<?xml version="1.0" standalone="no"?>
<!DOCTYPE svg PUBLIC "-//W3C//DTD SVG 1.1//EN" "http://www.w3.org/Graphics/SVG/1.1/DTD/svg11.dtd" >
<svg xmlns="http://www.w3.org/2000/svg" xmlns:xlink="http://www.w3.org/1999/xlink" version="1.1">
<metadata>
Created by FontForge 20170731 at Sat Jun  2 13:23:04 2018
 By Aleksey,,,
Copyright (c) 2017 by Rian Hughes / Device. All rights reserved.
</metadata>
<defs>
<font id="Kallisto-Medium" horiz-adv-x="681" >
  <font-face 
    font-family="Kallisto"
    font-weight="500"
    font-stretch="normal"
    units-per-em="1000"
    panose-1="0 0 6 0 0 0 0 0 0 0"
    ascent="794"
    descent="-206"
    x-height="562"
    cap-height="706"
    bbox="-372.64 -197 1672 952"
    underline-thickness="50"
    underline-position="-200"
    unicode-range="U+0020-FB02"
  />
<missing-glyph horiz-adv-x="505" 
d="M422 0h-339q-20 0 -20 20v660q0 20 20 20h339q20 0 20 -20v-660q0 -20 -20 -20zM85 680v-658l155 328zM109 680l143 -305l144 305h-287zM265 350l156 -328v658zM252 325l-143 -303h287z" />
    <glyph glyph-name="fi" unicode="fi" horiz-adv-x="617" 
d="M171 0h-54q-20 0 -20 20v455h-62q-20 0 -20 20v47q0 20 20 20h62q0 110 41 154q40 43 162 43h69q20 0 20 -20v-45q0 -20 -20 -20h-69q-70 0 -90 -20q-19 -19 -19 -92h178q20 0 20 -20v-47q0 -20 -20 -20h-178v-455q0 -20 -20 -20zM540 624h-54q-20 0 -20 20v95
q0 20 20 20h54q20 0 20 -20v-95q0 -20 -20 -20zM540 0h-54q-20 0 -20 20v522q0 20 20 20h54q20 0 20 -20v-522q0 -20 -20 -20z" />
    <glyph glyph-name="fl" unicode="fl" horiz-adv-x="617" 
d="M171 0h-54q-20 0 -20 20v455h-62q-20 0 -20 20v47q0 20 20 20h62q0 110 41 154q40 43 162 43h69q20 0 20 -20v-45q0 -20 -20 -20h-69q-70 0 -90 -20q-19 -19 -19 -92h178q20 0 20 -20v-47q0 -20 -20 -20h-178v-455q0 -20 -20 -20zM540 0h-54q-20 0 -20 20v719q0 20 20 20
h54q20 0 20 -20v-719q0 -20 -20 -20z" />
    <glyph glyph-name=".notdef" horiz-adv-x="505" 
d="M422 0h-339q-20 0 -20 20v660q0 20 20 20h339q20 0 20 -20v-660q0 -20 -20 -20zM85 680v-658l155 328zM109 680l143 -305l144 305h-287zM265 350l156 -328v658zM252 325l-143 -303h287z" />
    <glyph glyph-name=".null" horiz-adv-x="0" 
 />
    <glyph glyph-name="nonmarkingreturn" horiz-adv-x="333" 
 />
    <glyph glyph-name="space" unicode=" " horiz-adv-x="250" 
 />
    <glyph glyph-name="exclam" unicode="!" horiz-adv-x="236" 
d="M124 221h-12q-20 0 -21 19l-28 335v111q0 20 20 20h70q20 0 20 -20v-113l-28 -333q-1 -19 -21 -19zM147 0h-58q-20 0 -20 20v120q0 20 20 20h58q20 0 20 -20v-120q0 -20 -20 -20z" />
    <glyph glyph-name="quotedbl" unicode="&#x22;" horiz-adv-x="410" 
d="M128 383h-34q-20 0 -21 19l-14 284q-2 20 20 20h64q21 0 20 -21l-15 -283q-1 -19 -20 -19zM318 383h-34q-20 0 -21 19l-14 284q-2 20 20 20h64q21 0 20 -21l-15 -283q-1 -19 -20 -19z" />
    <glyph glyph-name="numbersign" unicode="#" horiz-adv-x="754" 
d="M192 0h-49q-24 0 -17 22l43 166h-108q-20 0 -20 20v48q0 20 20 20h132l41 155h-113q-20 0 -20 20v47q0 20 20 20h136l45 171q5 17 23 17h49q24 0 17 -22l-43 -166h148l45 171q5 17 23 17h50q24 0 17 -22l-44 -166h107q20 0 20 -20v-47q0 -20 -20 -20h-131l-40 -155h110
q20 0 20 -20v-48q0 -20 -20 -20h-134l-45 -171q-5 -17 -23 -17h-49q-24 0 -17 22l44 166h-149l-45 -171q-5 -17 -23 -17zM324 431l-41 -155h149l41 155h-149z" />
    <glyph glyph-name="dollar" unicode="$" horiz-adv-x="737" 
d="M415 395l79 -6q118 -9 168 -51q51 -42 51 -137q0 -106 -56.5 -153.5t-186.5 -47.5h-55v-51q0 -20 -20 -20h-55q-20 0 -20 20v51h-41q-122 0 -177 51.5t-60 166.5q0 20 20 20h58q20 0 20 -20q4 -70 34 -97q32 -26 105 -26h41v220l-55 5q-120 9 -169 49t-49 137
q0 104 56.5 152t186.5 48h30v53q0 20 20 20h55q20 0 20 -20v-53h51q122 0 177 -51.5t60 -166.5q0 -20 -20 -20h-58q-20 0 -20 20q-5 71 -35 96q-30 27 -104 27h-51v-216zM275 406l45 -3v208h-29q-84 0 -116 -23q-31 -22 -31 -83q0 -55 28 -74t103 -25zM415 95h55
q82 0 114 23t32 83q0 55 -29 75t-103 26l-69 6v-213z" />
    <glyph glyph-name="percent" unicode="%" horiz-adv-x="1188" 
d="M278 252h-34q-109 0 -158 55.5t-49 166.5v13q0 109 49.5 164t157.5 55h34q108 0 157.5 -55t49.5 -164v-13q0 -111 -49 -166.5t-158 -55.5zM509 0h-51q-24 0 -17 23l216 667q4 16 22 16h51q24 0 17 -23l-216 -667q-4 -16 -22 -16zM244 339h34q61 0 87.5 28.5t26.5 96.5v32
q0 66 -27 94.5t-87 28.5h-34q-60 0 -87 -28.5t-27 -94.5v-32q0 -68 26.5 -96.5t87.5 -28.5zM944 0h-34q-109 0 -158 55.5t-49 166.5v13q0 109 49.5 164t157.5 55h34q108 0 157.5 -55t49.5 -164v-13q0 -111 -49 -166.5t-158 -55.5zM911 87h33q61 0 87.5 28.5t26.5 96.5v32
q0 66 -26.5 94.5t-87.5 28.5h-33q-61 0 -88 -28.5t-27 -94.5v-32q0 -68 27 -96.5t88 -28.5z" />
    <glyph glyph-name="ampersand" unicode="&#x26;" horiz-adv-x="790" 
d="M704 399h46q20 0 20 -20v-48q0 -20 -20 -20h-46v-73q0 -130 -54 -184t-183 -54h-195q-123 0 -179.5 45t-56.5 141v9q0 116 91 159q-42 20 -64 55t-22 97v10q1 97 58.5 143.5t179.5 46.5h177q20 0 20 -20v-55q0 -20 -20 -20h-174q-78 0 -110 -23t-32 -80v-14
q0 -53 26.5 -74t89.5 -21h349v141q0 20 20 20h59q20 0 20 -20v-141zM605 238v73h-352q-63 0 -91 -24t-28 -79v-13q0 -57 31.5 -79t109.5 -22h192q80 0 109 29q29 31 29 115z" />
    <glyph glyph-name="quotesingle" unicode="'" horiz-adv-x="220" 
d="M128 383h-34q-20 0 -21 19l-14 284q-2 20 20 20h64q21 0 20 -21l-15 -283q-1 -19 -20 -19z" />
    <glyph glyph-name="parenleft" unicode="(" horiz-adv-x="294" 
d="M262 16v-47q0 -20 -21 -20q-126 4 -164 59q-20 30 -27.5 67.5t-7.5 102.5v352q0 65 7.5 102.5t27.5 66.5q38 56 164 60q21 0 21 -20v-47q0 -20 -20 -20q-66 -3 -86 -29q-19 -25 -19 -98v-382q0 -74 19 -99t86 -28q20 0 20 -20z" />
    <glyph glyph-name="parenright" unicode=")" horiz-adv-x="294" 
d="M53 -51q-21 0 -21 20v47q0 20 20 20q67 3 86 28q20 26 20 99v382q0 72 -20 98t-86 29q-20 0 -20 20v47q0 20 21 20q126 -4 164 -60q20 -29 27.5 -66.5t7.5 -102.5v-352q0 -65 -7.5 -102.5t-27.5 -67.5q-38 -55 -164 -59z" />
    <glyph glyph-name="asterisk" unicode="*" horiz-adv-x="532" 
d="M299 318h-47q-22 0 -20 21l8 138l-118 -77q-18 -12 -28 7l-19 39q-9 16 9 27l129 64l-129 61q-18 8 -9 27l20 42q9 20 27 7l118 -78l-8 142q-2 21 20 21h47q21 0 20 -21l-10 -141l118 76q18 12 27 -7l21 -41q11 -18 -9 -27l-129 -61l129 -64q18 -11 9 -27l-20 -39
q-10 -19 -28 -7l-118 77l10 -138q1 -21 -20 -21z" />
    <glyph glyph-name="plus" unicode="+" horiz-adv-x="547" 
d="M298 124h-48q-20 0 -20 20v166h-168q-20 0 -20 20v48q0 20 20 20h168v165q0 20 20 20h48q20 0 20 -20v-165h167q20 0 20 -20v-48q0 -20 -20 -20h-167v-166q0 -20 -20 -20z" />
    <glyph glyph-name="comma" unicode="," horiz-adv-x="221" 
d="M64 -160h-41q-24 0 -17 22l75 284q5 17 22 17h64q24 0 16 -23l-96 -284q-6 -16 -23 -16z" />
    <glyph glyph-name="hyphen" unicode="-" horiz-adv-x="334" 
d="M282 248h-230q-20 0 -20 20v39q0 20 20 20h230q20 0 20 -20v-39q0 -20 -20 -20z" />
    <glyph glyph-name="period" unicode="." horiz-adv-x="224" 
d="M141 0h-58q-20 0 -20 20v120q0 20 20 20h58q20 0 20 -20v-120q0 -20 -20 -20z" />
    <glyph glyph-name="slash" unicode="/" horiz-adv-x="313" 
d="M95 0h-54q-24 0 -17 22l176 667q5 17 23 17h54q24 0 17 -22l-176 -667q-5 -17 -23 -17z" />
    <glyph glyph-name="zero" unicode="0" horiz-adv-x="805" 
d="M518 0h-231q-123 0 -180 60.5t-57 182.5v219q0 123 57 183.5t180 60.5h231q123 0 180 -60.5t57 -183.5v-219q0 -122 -57 -182.5t-180 -60.5zM287 95h231q78 0 108.5 31t30.5 114v225q0 84 -31 115q-30 31 -108 31h-231q-78 0 -108.5 -31.5t-30.5 -114.5v-225
q0 -83 30.5 -114t108.5 -31z" />
    <glyph glyph-name="one" unicode="1" horiz-adv-x="315" 
d="M232 0h-59q-20 0 -20 20v493h-123q-20 0 -20 20v46q0 20 20 20h66q43 0 52 10q9 11 9 53v24q0 20 20 20h55q20 0 20 -20v-666q0 -20 -20 -20z" />
    <glyph glyph-name="two" unicode="2" horiz-adv-x="727" 
d="M663 0h-598q-20 0 -20 20v60q0 15 13 24l405 247q81 50 102 73q22 25 22 72q0 68 -29 91q-28 24 -112 24h-164q-82 0 -111 -29q-28 -28 -28 -117v-11q0 -20 -20 -20h-58q-20 0 -20 14v14q0 126 50 185t187 59h166q129 0 183 -48.5t54 -155.5q6 -72 -42 -130
q-11 -14 -38 -34l-46 -32l-63 -38l-283 -173h450q20 0 20 -20v-55q0 -20 -20 -20z" />
    <glyph glyph-name="three" unicode="3" horiz-adv-x="751" 
d="M470 0h-193q-122 0 -177 51t-60 166q0 21 20 21h58q20 0 20 -20q3 -73 33 -98q31 -26 106 -26h190q78 0 109.5 22t31.5 79v13q0 55 -28 78.5t-91 23.5h-209q-20 0 -20 20v49q0 20 20 20h206q63 0 90 21t27 74v14q0 57 -32 80t-111 23h-183q-75 0 -106 -26
q-30 -26 -33 -97q0 -20 -20 -20h-58q-20 0 -20 21q5 115 60 166t177 51h186q122 0 179.5 -46.5t58.5 -143.5v-10q0 -62 -22 -97t-64 -55q91 -43 91 -159v-9q0 -96 -56.5 -141t-179.5 -45z" />
    <glyph glyph-name="four" unicode="4" horiz-adv-x="771" 
d="M613 0h-55q-20 0 -20 20v130h-498q-20 0 -20 20v61q0 14 11 25l490 441q9 9 25 9h67q20 0 20 -20v-444h88q20 0 20 -20v-52q0 -20 -20 -20h-88v-130q0 -20 -20 -20zM538 597l-397 -355h397v355z" />
    <glyph glyph-name="five" unicode="5" horiz-adv-x="740" 
d="M466 0h-194q-126 0 -179 49t-58 168q0 21 20 21h58q20 0 20 -20q3 -72 32 -98q29 -25 107 -25h186q79 0 108 28q31 28 31 110q0 66 -31.5 94t-106.5 28l-387 1q-20 0 -19 21l31 310q1 19 21 19h528q20 0 20 -20v-55q0 -20 -20 -20h-459l-17 -169h309q123 0 176 -48
t53 -161q0 -128 -52 -180q-51 -53 -177 -53z" />
    <glyph glyph-name="six" unicode="6" horiz-adv-x="772" 
d="M452 0h-132q-153 0 -214 58t-61 191v9q0 66 21 115t84 114l202 209q9 10 25 10h79q13 0 16.5 -8t-5.5 -17l-200 -203q45 14 139 14h46q152 0 213 -58q62 -59 62 -176v-9q0 -133 -61 -191t-214 -58zM326 94h120q104 0 144 32q40 31 40 124v8q0 82 -41 114q-41 33 -143 33
h-120q-104 0 -144 -33q-40 -31 -40 -114v-8q0 -92 39 -124q41 -32 145 -32z" />
    <glyph glyph-name="seven" unicode="7" horiz-adv-x="698" 
d="M211 0h-73q-12 0 -15.5 7t3.5 17l426 587h-502q-20 0 -20 20v55q0 20 20 20h598q20 0 20 -20v-60q0 -14 -8 -25l-425 -589q-7 -12 -24 -12z" />
    <glyph glyph-name="eight" unicode="8" horiz-adv-x="726" 
d="M450 0h-174q-121 0 -178.5 45t-57.5 141v9q0 115 92 159q-43 21 -65 55.5t-22 96.5v10q1 97 59 143.5t179 46.5h160q121 0 179 -46.5t59 -143.5v-10q0 -62 -22 -96.5t-65 -55.5q92 -44 92 -159v-9q0 -96 -57.5 -141t-178.5 -45zM261 398h205q62 0 89 22t27 74v14
q0 57 -32 80t-110 23h-154q-78 0 -110 -23t-32 -80v-14q0 -52 27.5 -74t89.5 -22zM279 94h168q78 0 109.5 22t31.5 79v13q0 54 -28.5 78t-91.5 24h-210q-63 0 -91.5 -24t-28.5 -78v-13q0 -57 31.5 -79t109.5 -22z" />
    <glyph glyph-name="nine" unicode="9" horiz-adv-x="772" 
d="M395 0h-80q-13 0 -16.5 8t5.5 17l201 203q-45 -14 -139 -14h-46q-152 0 -213 58q-62 59 -62 176v9q0 132 61 190q62 59 214 59h132q152 0 214 -59q61 -58 61 -190v-9q0 -67 -22 -115q-21 -49 -83 -114l-202 -209q-9 -10 -25 -10zM326 301h120q102 0 143 32q41 33 41 115
v8q0 93 -40 124q-40 32 -144 32h-120q-104 0 -145 -32q-39 -32 -39 -124v-8q0 -82 40 -115q41 -32 144 -32z" />
    <glyph glyph-name="colon" unicode=":" horiz-adv-x="224" 
d="M141 402h-58q-20 0 -20 20v120q0 20 20 20h58q20 0 20 -20v-120q0 -20 -20 -20zM141 0h-58q-20 0 -20 20v120q0 20 20 20h58q20 0 20 -20v-120q0 -20 -20 -20z" />
    <glyph glyph-name="semicolon" unicode=";" horiz-adv-x="242" 
d="M160 402h-58q-20 0 -20 20v120q0 20 20 20h58q20 0 20 -20v-120q0 -20 -20 -20zM64 -148h-41q-24 0 -17 22l75 285q5 17 22 17h64q24 0 16 -23l-96 -285q-6 -16 -23 -16z" />
    <glyph glyph-name="less" unicode="&#x3c;" horiz-adv-x="443" 
d="M402 174v-50q0 -11 -7 -15.5t-17 0.5l-321 162q-14 8 -14 23v56q0 16 15 23l320 161q10 5 17 0.5t7 -15.5v-50q0 -15 -15 -23l-252 -125l252 -124q15 -7 15 -23z" />
    <glyph glyph-name="equal" unicode="=" horiz-adv-x="547" 
d="M485 413h-423q-20 0 -20 20v48q0 20 20 20h423q20 0 20 -20v-48q0 -20 -20 -20zM485 207h-423q-20 0 -20 20v47q0 20 20 20h423q20 0 20 -20v-47q0 -20 -20 -20z" />
    <glyph glyph-name="greater" unicode="&#x3e;" horiz-adv-x="443" 
d="M388 271l-321 -162q-24 -11 -24 15v50q0 16 15 23l251 124l-251 125q-15 8 -15 23v51q0 25 24 14l320 -161q15 -7 15 -23v-56q0 -15 -14 -23z" />
    <glyph glyph-name="question" unicode="?" horiz-adv-x="737" 
d="M368 219h-48q-20 0 -20 21q3 48 22.5 71.5t72.5 42.5l111 37q60 21 81.5 46t21.5 76q0 56 -31 77t-110 21h-201q-82 0 -111 -29q-28 -28 -28 -117v-31q0 -20 -20 -20h-58q-20 0 -20 20v28q0 126 50 185t187 59h203q124 0 180.5 -46.5t56.5 -140.5q0 -87 -40 -128
q-39 -42 -118 -70l-109 -38q-28 -10 -39 -19t-13 -26q-3 -19 -20 -19zM372 0h-58q-20 0 -20 20v120q0 20 20 20h58q20 0 20 -20v-120q0 -20 -20 -20z" />
    <glyph glyph-name="at" unicode="@" horiz-adv-x="837" 
d="M688 0h-401q-133 0 -186 62q-51 63 -51 181v219q0 120 51 181q53 63 186 63h263q134 0 185 -63q52 -61 52 -181v-114q0 -102 -42 -151.5t-133 -49.5h-43q-20 0 -20 20v46q-25 -66 -136 -66h-33q-98 0 -137 42.5t-39 137.5v47q0 96 39 138.5t137 42.5h33q111 0 136 -66v46
q0 20 20 20h33q20 0 20 -20v-320q50 0 72 24.5t22 88.5v145q0 88 -36.5 125.5t-119.5 37.5h-283q-82 0 -118.5 -38t-36.5 -125v-240q0 -89 36.5 -126.5t118.5 -37.5h411q20 0 20 -20v-29q0 -20 -20 -20zM381 216h64q56 0 80 22.5t24 83.5v56q0 62 -23.5 85t-80.5 23h-64
q-61 0 -82 -22q-21 -21 -21 -86v-56q0 -62 21 -85q21 -21 82 -21z" />
    <glyph glyph-name="A" unicode="A" horiz-adv-x="823" 
d="M800 0h-67q-15 0 -23 15l-60 119h-468l-61 -120q-8 -14 -23 -14h-67q-11 0 -15.5 7t0.5 17l342 668q8 14 23 14h70q15 0 23 -14l341 -668q5 -10 0.5 -17t-15.5 -7zM417 600l-193 -382h384z" />
    <glyph glyph-name="B" unicode="B" horiz-adv-x="754" 
d="M473 0h-390q-20 0 -20 20v666q0 20 20 20h383q125 0 181 -45.5t57 -144.5v-10q0 -62 -22 -96t-65 -54q92 -44 92 -161v-9q0 -97 -55.5 -141.5t-180.5 -44.5zM161 611v-211h325q62 0 89.5 21t27.5 73v14q0 56 -33 79.5t-109 23.5h-300zM161 313v-219h307q76 0 108.5 22.5
t32.5 78.5v13q0 105 -120 105h-328z" />
    <glyph glyph-name="C" unicode="C" horiz-adv-x="787" 
d="M510 0h-223q-123 0 -180 60.5t-57 182.5v219q0 123 57 183.5t180 60.5h223q123 0 180 -60.5t57 -183.5v-8q0 -20 -20 -20h-58q-20 0 -20 16v15q0 83 -30.5 114.5t-108.5 31.5h-223q-78 0 -108.5 -31.5t-30.5 -114.5v-225q0 -83 30.5 -114t108.5 -31h223q78 0 108.5 31
t30.5 114v22q0 20 20 20h58q20 0 20 -19v-20q0 -122 -57 -182.5t-180 -60.5z" />
    <glyph glyph-name="D" unicode="D" horiz-adv-x="800" 
d="M514 0h-431q-20 0 -20 20v666q0 20 20 20h431q126 0 181 -62.5t55 -202.5v-180q0 -139 -55 -200t-181 -61zM161 611v-517h344q84 0 115 34q33 34 33 134v179q0 99 -32 134q-31 36 -116 36h-344z" />
    <glyph glyph-name="E" unicode="E" horiz-adv-x="697" 
d="M640 0h-557q-20 0 -20 20v666q0 20 20 20h557q20 0 20 -20v-55q0 -20 -20 -20h-479v-205h326q20 0 20 -20v-52q0 -20 -20 -20h-326v-219h479q20 0 20 -20v-55q0 -20 -20 -20z" />
    <glyph glyph-name="F" unicode="F" horiz-adv-x="664" 
d="M141 0h-58q-20 0 -20 20v666q0 20 20 20h541q20 0 20 -20v-55q0 -20 -20 -20h-463v-205h314q20 0 20 -20v-52q0 -20 -20 -20h-314v-294q0 -20 -20 -20z" />
    <glyph glyph-name="G" unicode="G" horiz-adv-x="793" 
d="M506 0h-227q-123 0 -180 60.5t-57 182.5v219q0 123 57 183.5t180 60.5h227q119 0 175.5 -53t61.5 -165q0 -20 -20 -20h-58q-20 0 -20 20q-4 71 -34 97t-105 26h-227q-78 0 -108.5 -31.5t-30.5 -114.5v-225q0 -83 30.5 -114t108.5 -31h227q78 0 108.5 31t30.5 114v44h-218
q-20 0 -20 20v51q0 20 20 20h296q20 0 20 -20v-112q0 -122 -57 -182.5t-180 -60.5z" />
    <glyph glyph-name="H" unicode="H" horiz-adv-x="775" 
d="M141 0h-58q-20 0 -20 20v666q0 20 20 20h58q20 0 20 -20v-281h452v281q0 20 20 20h59q20 0 20 -20v-666q0 -20 -20 -20h-59q-20 0 -20 20v294h-452v-294q0 -20 -20 -20z" />
    <glyph glyph-name="I" unicode="I" horiz-adv-x="224" 
d="M141 0h-58q-20 0 -20 20v666q0 20 20 20h58q20 0 20 -20v-666q0 -20 -20 -20z" />
    <glyph glyph-name="J" unicode="J" horiz-adv-x="760" 
d="M473 0h-186q-123 0 -180 60.5t-57 182.5v69q0 20 20 20h58q20 0 20 -20v-72q0 -83 30.5 -114t108.5 -31h186q78 0 108 31t30 114v446q0 20 20 20h59q20 0 20 -20v-443q0 -122 -57 -182.5t-180 -60.5z" />
    <glyph glyph-name="K" unicode="K" horiz-adv-x="745" 
d="M141 0h-58q-20 0 -20 20v666q0 20 20 20h58q20 0 20 -20v-287h161l280 296q11 11 25 11h73q13 0 16.5 -7.5t-5.5 -17.5l-306 -326l306 -330q9 -10 5.5 -17.5t-16.5 -7.5h-72q-14 0 -25 11l-281 295h-161v-286q0 -20 -20 -20z" />
    <glyph glyph-name="L" unicode="L" horiz-adv-x="648" 
d="M616 0h-533q-20 0 -20 20v666q0 20 20 20h58q20 0 20 -20v-591h455q20 0 20 -20v-55q0 -20 -20 -20z" />
    <glyph glyph-name="M" unicode="M" horiz-adv-x="929" 
d="M141 0h-58q-20 0 -20 20v666q0 20 20 20h72q17 0 24 -13l286 -458l286 458q7 13 24 13h71q20 0 20 -20v-666q0 -20 -20 -20h-58q-20 0 -20 20v524l-259 -407q-7 -13 -24 -13h-41q-17 0 -24 13l-259 408v-525q0 -20 -20 -20z" />
    <glyph glyph-name="N" unicode="N" horiz-adv-x="787" 
d="M141 0h-58q-20 0 -20 20v666q0 20 20 20h63q16 0 25 -12l455 -551v543q0 20 20 20h58q20 0 20 -20v-666q0 -20 -20 -20h-65q-16 0 -25 12l-453 548v-540q0 -20 -20 -20z" />
    <glyph glyph-name="O" unicode="O" horiz-adv-x="825" 
d="M538 0h-251q-123 0 -180 60.5t-57 182.5v219q0 123 57 183.5t180 60.5h251q123 0 180 -60.5t57 -183.5v-219q0 -122 -57 -182.5t-180 -60.5zM287 95h251q78 0 108.5 31t30.5 114v225q0 84 -31 115q-30 31 -108 31h-251q-78 0 -108.5 -31.5t-30.5 -114.5v-225
q0 -83 30.5 -114t108.5 -31z" />
    <glyph glyph-name="P" unicode="P" horiz-adv-x="762" 
d="M141 0h-58q-20 0 -20 20v666q0 20 20 20h362q153 0 214 -57t61 -183v-16q0 -119 -62 -178q-61 -58 -213 -58h-284v-194q0 -20 -20 -20zM161 611v-303h278q103 0 143 31t40 112v15q0 88 -39 116q-38 29 -144 29h-278z" />
    <glyph glyph-name="Q" unicode="Q" horiz-adv-x="825" 
d="M287 706h251q123 0 180 -60.5t57 -183.5v-219q0 -111 -47 -171t-147 -70l74 -107q14 -24 -13 -24h-68q-16 0 -25 13l-76 116h-186q-123 0 -180 60.5t-57 182.5v219q0 123 57 183.5t180 60.5zM677 240v225q0 84 -31 115q-30 31 -108 31h-251q-78 0 -108.5 -31.5
t-30.5 -114.5v-225q0 -83 30.5 -114t108.5 -31h251q78 0 108.5 31t30.5 114z" />
    <glyph glyph-name="R" unicode="R" horiz-adv-x="767" 
d="M725 462v-12q0 -102 -37 -157t-123 -73l137 -196q7 -10 3 -17t-16 -7h-69q-15 0 -24 13l-134 197h-301v-190q0 -20 -20 -20h-58q-20 0 -20 20v666q0 20 20 20h362q155 0 217 -58q63 -58 63 -186zM626 451v10q0 90 -40 120q-39 30 -147 30h-278v-307h278q107 0 147 29
q40 28 40 118z" />
    <glyph glyph-name="S" unicode="S" horiz-adv-x="755" 
d="M470 0h-191q-122 0 -177 51.5t-60 166.5q0 20 20 20h58q20 0 20 -20q4 -70 34 -97q32 -26 105 -26h191q82 0 114 23t32 83q0 55 -29 75t-103 26l-219 18q-120 9 -169 49t-49 137q0 104 56.5 152t186.5 48h176q122 0 177 -51.5t60 -166.5q0 -20 -20 -20h-58q-20 0 -20 20
q-5 71 -35 96q-30 27 -104 27h-175q-84 0 -116 -23q-31 -22 -31 -83q0 -55 28 -74t103 -25l219 -17q118 -9 168 -51q51 -42 51 -137q0 -106 -56.5 -153.5t-186.5 -47.5z" />
    <glyph glyph-name="T" unicode="T" horiz-adv-x="655" 
d="M357 0h-59q-20 0 -20 20v591h-241q-20 0 -20 20v55q0 20 20 20h581q20 0 20 -20v-55q0 -20 -20 -20h-241v-591q0 -20 -20 -20z" />
    <glyph glyph-name="U" unicode="U" horiz-adv-x="824" 
d="M520 0h-216q-123 0 -180 60.5t-57 182.5v443q0 20 20 20h58q20 0 20 -20v-446q0 -83 30.5 -114t108.5 -31h216q78 0 108 31t30 114v446q0 20 20 20h59q20 0 20 -20v-443q0 -122 -57 -182.5t-180 -60.5z" />
    <glyph glyph-name="V" unicode="V" horiz-adv-x="789" 
d="M439 0h-80q-15 0 -23 15l-321 667q-5 10 -0.5 17t15.5 7h65q15 0 23 -15l282 -584l279 584q7 15 23 15h65q11 0 15.5 -7t-0.5 -17l-320 -667q-8 -15 -23 -15z" />
    <glyph glyph-name="W" unicode="W" horiz-adv-x="1039" 
d="M323 0h-67q-17 0 -23 16l-227 667q-8 23 16 23h63q18 0 22 -16l182 -558l183 558q4 16 22 16h68q18 0 22 -16l182 -558l183 558q4 16 22 16h62q24 0 16 -23l-227 -667q-6 -16 -23 -16h-67q-18 0 -22 16l-182 553l-183 -553q-4 -16 -22 -16z" />
    <glyph glyph-name="X" unicode="X" horiz-adv-x="695" 
d="M412 368l283 -343q8 -11 4.5 -18t-16.5 -7h-77q-15 0 -24 12l-230 280l-231 -280q-9 -12 -24 -12h-77q-13 0 -16.5 7t4.5 18l283 343l-259 313q-8 11 -4.5 18t16.5 7h77q15 0 24 -12l207 -251l206 251q9 12 24 12h77q13 0 16.5 -7t-4.5 -18z" />
    <glyph glyph-name="Y" unicode="Y" horiz-adv-x="748" 
d="M410 0h-59q-20 0 -20 20v173l-331 489q-7 10 -3 17t16 7h70q15 0 24 -13l273 -407l270 407q9 13 25 13h68q12 0 16 -7t-3 -17l-326 -489v-173q0 -20 -20 -20z" />
    <glyph glyph-name="Z" unicode="Z" horiz-adv-x="707" 
d="M657 0h-607q-20 0 -20 20v59q0 14 10 24l498 508h-488q-20 0 -20 20v55q0 20 20 20h606q20 0 20 -20v-60q0 -14 -10 -24l-499 -507h490q20 0 20 -20v-55q0 -20 -20 -20z" />
    <glyph glyph-name="bracketleft" unicode="[" horiz-adv-x="306" 
d="M254 -51h-171q-20 0 -20 20v770q0 20 20 20h171q20 0 20 -20v-47q0 -20 -20 -20h-97v-636h97q20 0 20 -20v-47q0 -20 -20 -20z" />
    <glyph glyph-name="backslash" unicode="\" horiz-adv-x="313" 
d="M278 0h-54q-18 0 -23 17l-176 667q-7 22 17 22h54q18 0 23 -17l176 -667q7 -22 -17 -22z" />
    <glyph glyph-name="bracketright" unicode="]" horiz-adv-x="305" 
d="M223 -51h-171q-20 0 -20 20v47q0 20 20 20h96v636h-96q-20 0 -20 20v47q0 20 20 20h171q20 0 20 -20v-770q0 -20 -20 -20z" />
    <glyph glyph-name="asciicircum" unicode="^" horiz-adv-x="499" 
d="M115 351h-53q-26 0 -15 24l151 316q8 15 23 15h63q16 0 23 -15l153 -316q11 -24 -15 -24h-53q-16 0 -23 15l-117 237l-114 -237q-8 -15 -23 -15z" />
    <glyph glyph-name="underscore" unicode="_" horiz-adv-x="525" 
d="M473 -187h-421q-20 0 -20 20v38q0 20 20 20h421q20 0 20 -20v-38q0 -20 -20 -20z" />
    <glyph glyph-name="grave" unicode="`" horiz-adv-x="558" 
d="M299 579h-36q-17 0 -24 13l-55 90q-6 10 -2.5 17t15.5 7h62q17 0 23 -16l33 -88q8 -23 -16 -23z" />
    <glyph glyph-name="a" unicode="a" horiz-adv-x="630" 
d="M312 0h-75q-210 0 -210 155q0 83 39 121q40 39 140 49l248 27q32 5 32 40q0 48 -20.5 64.5t-82.5 16.5h-291q-20 0 -20 20v49q0 20 20 20h293q105 0 150 -38.5t45 -126.5v-377q0 -20 -20 -20h-54q-20 0 -20 20v66q-19 -46 -58 -66q-38 -20 -116 -20zM237 87h113
q77 0 106.5 29t29.5 101v55l-265 -28q-59 -6 -79 -22.5t-20 -58.5q0 -76 115 -76z" />
    <glyph glyph-name="b" unicode="b" 
d="M310 562h119q120 0 163 -52q44 -53 44 -170v-121q0 -114 -44 -167q-43 -52 -163 -52h-119q-126 0 -159 73v-53q0 -20 -20 -20h-54q-20 0 -20 20v719q0 20 20 20h54q20 0 20 -20v-250q33 73 159 73zM542 212v136q0 76 -23 101q-23 24 -91 24h-162q-64 0 -89 -25
q-26 -24 -26 -100v-136q0 -75 26 -99t89 -24h162q68 0 91 24q23 25 23 99z" />
    <glyph glyph-name="c" unicode="c" horiz-adv-x="655" 
d="M418 0h-166q-121 0 -164 52t-43 170v121q0 115 43 167t164 52h166q112 0 158 -46t49 -157q0 -21 -20 -21h-54q-20 0 -20 21q-1 68 -25 92q-22 22 -90 22h-162q-70 0 -93 -24q-22 -23 -22 -99v-136q0 -78 22 -101q23 -24 93 -24h162q69 0 91 22t24 94q0 21 20 21h54
q20 0 20 -21q-5 -115 -50 -160q-47 -45 -157 -45z" />
    <glyph glyph-name="d" unicode="d" 
d="M530 489v250q0 20 20 20h54q20 0 20 -20v-719q0 -20 -20 -20h-54q-20 0 -20 20v53q-17 -38 -54.5 -55.5t-103.5 -17.5h-120q-121 0 -164 52t-43 167v121q0 118 43 170t164 52h120q66 0 103.5 -17.5t54.5 -55.5zM254 89h162q62 0 88 24t26 99v136q0 76 -26 100
q-25 25 -88 25h-162q-70 0 -93 -24q-22 -23 -22 -101v-136q0 -76 22 -99q23 -24 93 -24z" />
    <glyph glyph-name="e" unicode="e" horiz-adv-x="635" 
d="M535 0h-283q-121 0 -164 52t-43 170v121q0 115 43 167t164 52h141q120 0 163 -52q44 -53 44 -167v-90q0 -20 -20 -20h-441v-19q0 -78 22 -101q23 -24 93 -24h281q20 0 20 -20v-49q0 -20 -20 -20zM139 350v-32h367v32q0 74 -23 99q-22 24 -92 24h-137q-70 0 -93 -24
q-22 -23 -22 -99z" />
    <glyph glyph-name="f" unicode="f" horiz-adv-x="409" 
d="M171 0h-54q-20 0 -20 20v455h-62q-20 0 -20 20v47q0 20 20 20h62q0 110 41 154q40 43 162 43h69q20 0 20 -20v-45q0 -20 -20 -20h-69q-70 0 -90 -20q-19 -19 -19 -92h178q20 0 20 -20v-47q0 -20 -20 -20h-178v-455q0 -20 -20 -20z" />
    <glyph glyph-name="g" unicode="g" 
d="M413 -197h-268q-20 0 -20 20v49q0 20 20 20h268q67 0 92 27.5t25 97.5v82q-15 -41 -52 -59.5t-106 -18.5h-120q-121 0 -164 52t-43 170v100q0 115 43 167t164 52h120q129 0 158 -78v58q0 20 20 20h54q20 0 20 -20v-517q0 -111 -46 -166q-47 -56 -165 -56zM254 110h162
q62 0 88 24t26 101v115q0 75 -26 99t-88 24h-162q-70 0 -93 -24q-22 -23 -22 -99v-115q0 -78 22 -101q23 -24 93 -24z" />
    <glyph glyph-name="h" unicode="h" horiz-adv-x="667" 
d="M310 562h100q120 0 163 -52q44 -53 44 -170v-321q0 -20 -20 -20h-54q-20 0 -20 20v329q0 76 -23 101q-22 24 -92 24h-142q-64 0 -89 -25q-25 -24 -25 -100v-328q0 -20 -20 -20h-54q-20 0 -20 20v719q0 20 20 20h54q20 0 20 -20v-250q17 38 54.5 55.5t103.5 17.5z" />
    <glyph glyph-name="i" unicode="i" horiz-adv-x="208" 
d="M131 624h-54q-20 0 -20 20v95q0 20 20 20h54q20 0 20 -20v-95q0 -20 -20 -20zM131 0h-54q-20 0 -20 20v522q0 20 20 20h54q20 0 20 -20v-522q0 -20 -20 -20z" />
    <glyph glyph-name="j" unicode="j" horiz-adv-x="208" 
d="M131 624h-54q-20 0 -20 20v95q0 20 20 20h54q20 0 20 -20v-95q0 -20 -20 -20zM131 -197h-54q-20 0 -20 20v719q0 20 20 20h54q20 0 20 -20v-719q0 -20 -20 -20z" />
    <glyph glyph-name="k" unicode="k" horiz-adv-x="616" 
d="M133 0h-54q-20 0 -20 20v719q0 20 20 20h54q20 0 20 -20v-416h123l211 228q11 11 25 11h71q13 0 16.5 -7.5t-5.5 -17.5l-235 -256l233 -256q9 -10 5.5 -17.5t-16.5 -7.5h-70q-14 0 -25 11l-210 226h-123v-217q0 -20 -20 -20z" />
    <glyph glyph-name="l" unicode="l" horiz-adv-x="208" 
d="M131 0h-54q-20 0 -20 20v719q0 20 20 20h54q20 0 20 -20v-719q0 -20 -20 -20z" />
    <glyph glyph-name="m" unicode="m" horiz-adv-x="962" 
d="M686 562h22q116 0 160 -53t44 -169v-321q0 -20 -20 -20h-54q-20 0 -20 20v329q0 76 -23 101q-23 24 -92 24h-57q-64 0 -89 -25q-26 -24 -26 -100v-329q0 -20 -20 -20h-54q-20 0 -20 20v329q0 76 -23 101q-23 24 -91 24h-57q-64 0 -89 -25q-26 -24 -26 -100v-328
q0 -20 -20 -20h-54q-20 0 -20 20v522q0 20 20 20h54q20 0 20 -20v-53q33 73 159 73h22q141 0 178 -81q40 81 176 81z" />
    <glyph glyph-name="n" unicode="n" horiz-adv-x="666" 
d="M310 562h99q120 0 163 -52q44 -53 44 -170v-321q0 -20 -20 -20h-54q-20 0 -20 20v329q0 76 -23 101q-23 24 -91 24h-142q-64 0 -89 -25q-26 -24 -26 -100v-328q0 -20 -20 -20h-54q-20 0 -20 20v522q0 20 20 20h54q20 0 20 -20v-53q33 73 159 73z" />
    <glyph glyph-name="o" unicode="o" horiz-adv-x="670" 
d="M418 0h-166q-121 0 -164 52t-43 170v121q0 115 43 167t164 52h166q120 0 163 -52q44 -53 44 -167v-121q0 -117 -44 -170q-43 -52 -163 -52zM254 89h162q70 0 92 24q23 25 23 101v136q0 74 -23 99q-22 24 -92 24h-162q-70 0 -93 -24q-22 -23 -22 -99v-136q0 -78 22 -101
q23 -24 93 -24z" />
    <glyph glyph-name="p" unicode="p" 
d="M310 562h119q120 0 163 -52q44 -53 44 -167v-121q0 -117 -44 -170q-43 -52 -163 -52h-119q-126 0 -159 73v-250q0 -20 -20 -20h-54q-20 0 -20 20v719q0 20 20 20h54q20 0 20 -20v-53q33 73 159 73zM542 214v136q0 74 -23 99q-23 24 -91 24h-162q-64 0 -89 -24
q-26 -24 -26 -99v-136q0 -75 26 -101q26 -24 89 -24h162q68 0 91 24q23 25 23 101z" />
    <glyph glyph-name="q" unicode="q" 
d="M530 489v53q0 20 20 20h54q20 0 20 -20v-719q0 -20 -20 -20h-54q-20 0 -20 20v250q-17 -38 -54.5 -55.5t-103.5 -17.5h-120q-121 0 -164 52t-43 170v121q0 115 43 167t164 52h120q66 0 103.5 -17.5t54.5 -55.5zM254 89h162q62 0 88 24q26 26 26 101v136q0 75 -26 99
t-88 24h-162q-70 0 -93 -24q-22 -23 -22 -99v-136q0 -78 22 -101q23 -24 93 -24z" />
    <glyph glyph-name="r" unicode="r" horiz-adv-x="432" 
d="M310 562h92q20 0 20 -20v-49q0 -20 -20 -20h-136q-64 0 -89 -25q-26 -24 -26 -100v-328q0 -20 -20 -20h-54q-20 0 -20 20v522q0 20 20 20h54q20 0 20 -20v-53q33 73 159 73z" />
    <glyph glyph-name="s" unicode="s" horiz-adv-x="597" 
d="M357 0h-285q-20 0 -20 20v49q0 20 20 20h286q66 0 90 15t24 54t-19 52q-19 14 -79 20l-168 17q-92 9 -129 46.5t-37 115.5q0 79 48 116t153 37h278q20 0 20 -20v-49q0 -20 -20 -20h-276q-60 0 -84.5 -16t-24.5 -55q0 -36 17 -49.5t71 -19.5l166 -18q103 -10 141 -50
q38 -38 38 -115q0 -81 -48.5 -115.5t-161.5 -34.5z" />
    <glyph glyph-name="t" unicode="t" horiz-adv-x="471" 
d="M421 0h-102q-129 0 -176 50q-46 49 -46 162v263h-62q-20 0 -20 20v47q0 20 20 20q36 0 50 3.5t25 16.5t13 31.5t2 71.5q0 21 20 21h26q20 0 20 -20v-124h230q20 0 20 -20v-47q0 -20 -20 -20h-230v-271q0 -67 26 -93q27 -24 102 -24h102q20 0 20 -20v-47q0 -20 -20 -20z
" />
    <glyph glyph-name="u" unicode="u" horiz-adv-x="665" 
d="M514 213v328q0 20 20 20h54q20 0 20 -20v-522q0 -20 -20 -20h-54q-20 0 -20 20v54q-33 -74 -159 -74h-94q-120 0 -163 52q-44 53 -44 170v321q0 20 20 20h54q20 0 20 -20v-329q0 -78 22 -101q23 -23 93 -23h136q63 0 89 24t26 100z" />
    <glyph glyph-name="v" unicode="v" horiz-adv-x="671" 
d="M377 0h-76q-15 0 -23 15l-262 523q-5 10 -1 17t15 7h62q16 0 23 -15l224 -455l224 455q7 15 23 15h63q11 0 15 -7t-1 -17l-263 -523q-8 -15 -23 -15z" />
    <glyph glyph-name="w" unicode="w" horiz-adv-x="972" 
d="M323 0h-76q-17 0 -23 16l-207 523q-8 23 16 23h62q17 0 23 -16l167 -450l152 450q6 16 23 16h67q17 0 23 -16l152 -450l167 450q6 16 23 16h63q24 0 16 -23l-208 -523q-6 -16 -23 -16h-76q-17 0 -23 16l-148 430l-147 -430q-6 -16 -23 -16z" />
    <glyph glyph-name="x" unicode="x" horiz-adv-x="610" 
d="M368 291l233 -266q8 -10 5 -17.5t-16 -7.5h-75q-14 0 -25 11l-182 212l-182 -212q-11 -11 -25 -11h-75q-13 0 -16 7.5t5 17.5l234 266l-216 246q-8 10 -5 17.5t16 7.5h75q14 0 25 -11l164 -192l164 192q11 11 25 11h75q13 0 16.5 -7.5t-4.5 -17.5z" />
    <glyph glyph-name="y" unicode="y" 
d="M413 -197h-267q-20 0 -20 20v49q0 20 20 20h267q67 0 92 27.5t25 97.5v81q-15 -41 -52 -59.5t-106 -18.5h-108q-121 0 -164 52t-43 170v300q0 20 20 20h54q20 0 20 -20v-308q0 -78 22 -101q22 -24 92 -24h151q62 0 88 24q26 26 26 101v307q0 20 20 20h54q20 0 20 -20
v-516q0 -111 -46 -166q-47 -56 -165 -56z" />
    <glyph glyph-name="z" unicode="z" horiz-adv-x="577" 
d="M527 0h-477q-20 0 -20 20v53q0 14 10 24l381 378h-371q-20 0 -20 20v47q0 20 20 20h477q20 0 20 -20v-53q0 -14 -10 -24l-380 -378h370q20 0 20 -20v-47q0 -20 -20 -20z" />
    <glyph glyph-name="braceleft" unicode="{" horiz-adv-x="337" 
d="M305 14v-47q0 -20 -21 -20q-118 5 -158 56q-41 53 -41 173v93q0 21 -9.5 30.5t-33.5 11.5q-20 2 -20 21v43q0 19 20 21q24 2 33.5 11.5t9.5 30.5v92q0 120 41 173q40 51 158 56q21 0 21 -20v-47q0 -20 -20 -20q-66 -3 -86 -29q-19 -25 -19 -98v-85q0 -53 -14 -76.5
t-47 -30.5q33 -8 47 -33t14 -76v-83q0 -74 19 -99t86 -28q20 0 20 -20z" />
    <glyph glyph-name="bar" unicode="|" horiz-adv-x="201" 
d="M128 -51h-55q-20 0 -20 20v770q0 20 20 20h55q20 0 20 -20v-770q0 -20 -20 -20z" />
    <glyph glyph-name="braceright" unicode="}" horiz-adv-x="337" 
d="M53 -53q-21 0 -21 20v47q0 20 20 20q66 3 86 29t20 98v83q0 53 13.5 77.5t47.5 31.5q-34 7 -47.5 30.5t-13.5 76.5v85q0 72 -20 98t-86 29q-20 0 -20 20v47q0 20 21 20q118 -4 158 -56q41 -53 41 -173v-92q0 -21 9.5 -30.5t33.5 -11.5q20 -2 20 -21v-43q0 -19 -20 -21
q-24 -2 -33.5 -11.5t-9.5 -30.5v-93q0 -120 -41 -173q-40 -52 -158 -56z" />
    <glyph glyph-name="uni00A0" unicode="&#xa0;" horiz-adv-x="505" 
 />
    <glyph glyph-name="exclamdown" unicode="&#xa1;" horiz-adv-x="236" 
d="M147 546h-58q-20 0 -20 20v120q0 20 20 20h58q20 0 20 -20v-120q0 -20 -20 -20zM153 0h-70q-20 0 -20 20v111l28 335q1 19 21 19h12q20 0 21 -19l28 -333v-113q0 -20 -20 -20z" />
    <glyph glyph-name="cent" unicode="&#xa2;" horiz-adv-x="655" 
d="M384 89h32q69 0 91 22t24 94q0 21 20 21h54q20 0 20 -21q-5 -115 -50 -160q-47 -45 -157 -45h-34v-51q0 -20 -20 -20h-56q-20 0 -20 20v51h-36q-121 0 -164 52t-43 170v121q0 115 43 167t164 52h36v51q0 20 20 20h56q20 0 20 -20v-51h34q112 0 158 -46t49 -157
q0 -21 -20 -21h-54q-20 0 -20 21q-1 68 -25 92q-22 22 -90 22h-32v-384zM254 89h34v384h-34q-70 0 -93 -24q-22 -23 -22 -99v-136q0 -78 22 -101q23 -24 93 -24z" />
    <glyph glyph-name="sterling" unicode="&#xa3;" horiz-adv-x="745" 
d="M715 462v-28q0 -20 -20 -20h-58q-20 0 -20 20v31q0 79 -32.5 112.5t-106.5 33.5h-151q-67 0 -99 -25t-32 -79q0 -58 37 -122h230q20 0 20 -20v-49q0 -20 -20 -20h-176l122 -201h286q20 0 20 -20v-55q0 -20 -20 -20h-645q-20 0 -20 20v55q0 20 20 20h250l-105 169l-20 32
h-125q-20 0 -20 20v49q0 20 20 20h77q-28 60 -28 136q0 86 54.5 135.5t162.5 49.5h162q125 0 181 -62t56 -182z" />
    <glyph glyph-name="yen" unicode="&#xa5;" horiz-adv-x="748" 
d="M675 706h68q12 0 16 -7t-3 -17l-169 -254h116q20 0 20 -20v-48q0 -20 -20 -20h-175l-98 -147v-173q0 -20 -20 -20h-59q-20 0 -20 20v173l-99 147h-176q-20 0 -20 20v48q0 20 20 20h116l-172 254q-7 10 -3 17t16 7h70q15 0 24 -13l273 -407l270 407q9 13 25 13z" />
    <glyph glyph-name="brokenbar" unicode="&#xa6;" horiz-adv-x="201" 
d="M128 411h-55q-20 0 -20 20v308q0 20 20 20h55q20 0 20 -20v-308q0 -20 -20 -20zM128 -51h-55q-20 0 -20 20v313q0 20 20 20h55q20 0 20 -20v-313q0 -20 -20 -20z" />
    <glyph glyph-name="dieresis" unicode="&#xa8;" horiz-adv-x="558" 
d="M202 577h-43q-20 0 -20 20v89q0 20 20 20h43q20 0 20 -20v-89q0 -20 -20 -20zM400 577h-43q-20 0 -20 20v89q0 20 20 20h43q20 0 20 -20v-89q0 -20 -20 -20z" />
    <glyph glyph-name="copyright" unicode="&#xa9;" horiz-adv-x="837" 
d="M550 0h-263q-133 0 -186 62q-51 63 -51 181v219q0 120 51 181q53 63 186 63h263q134 0 185 -63q52 -61 52 -181v-219q0 -119 -52 -181q-51 -62 -185 -62zM277 69h283q83 0 119.5 38t36.5 126v240q0 88 -36.5 125.5t-119.5 37.5h-283q-82 0 -118.5 -38t-36.5 -125v-240
q0 -89 36.5 -126.5t118.5 -37.5zM484 140h-130q-76 0 -111 39.5t-35 118.5v108q0 155 146 155h130q74 0 108 -34.5t38 -109.5q0 -21 -20 -21h-33q-19 0 -21 20q-2 42 -18 58.5t-55 16.5h-127q-40 0 -57.5 -18.5t-17.5 -62.5v-117q0 -45 17.5 -63.5t57.5 -18.5h127
q39 0 55 16t18 58q2 20 21 20h33q20 0 19 -21q-4 -75 -38.5 -109.5t-106.5 -34.5z" />
    <glyph glyph-name="ordfeminine" unicode="&#xaa;" horiz-adv-x="590" 
d="M285 183h-48q-210 0 -210 151q0 78 38 113q38 34 141 46l208 27q32 5 32 30q0 40 -21.5 55.5t-81.5 15.5h-251q-20 0 -20 20v45q0 20 20 20h253q104 0 149.5 -33t45.5 -106v-364q0 -20 -20 -20h-54q-20 0 -20 20v65q-19 -46 -54.5 -65.5t-106.5 -19.5zM237 265h82
q70 0 98.5 29t28.5 100v54l-225 -29q-60 -7 -79.5 -22.5t-19.5 -55.5q0 -76 115 -76z" />
    <glyph glyph-name="guillemotleft" unicode="&#xab;" horiz-adv-x="484" 
d="M228 83h-41q-17 0 -24 13l-113 176q-9 14 0 28l113 176q7 13 24 13h41q26 0 15 -24l-91 -179l91 -179q11 -24 -15 -24zM428 83h-42q-17 0 -24 13l-112 176q-9 14 0 28l112 176q7 13 24 13h42q26 0 15 -24l-91 -179l91 -179q11 -24 -15 -24z" />
    <glyph glyph-name="registered" unicode="&#xae;" horiz-adv-x="837" 
d="M287 706h263q134 0 185 -63q52 -61 52 -181v-219q0 -119 -52 -181q-51 -62 -185 -62h-263q-133 0 -186 62q-51 63 -51 181v219q0 120 51 181q53 63 186 63zM716 233v240q0 88 -36.5 125.5t-119.5 37.5h-283q-82 0 -118.5 -38t-36.5 -125v-240q0 -89 36.5 -126.5
t118.5 -37.5h283q83 0 119.5 38t36.5 126zM245 555h195q105 0 148.5 -36t43.5 -111v-10q0 -54 -24 -86t-80 -44l75 -97q8 -10 4.5 -17t-16.5 -7h-40q-15 0 -24 12l-78 102h-151v-94q0 -20 -20 -20h-33q-20 0 -20 20v368q0 20 20 20zM559 399v9q0 42 -22 59t-83 17h-156v-153
h156q61 0 83 15.5t22 52.5z" />
    <glyph glyph-name="overscore" unicode="&#xaf;" horiz-adv-x="558" 
d="M403 591h-249q-20 0 -20 20v32q0 20 20 20h249q20 0 20 -20v-32q0 -20 -20 -20z" />
    <glyph glyph-name="degree" unicode="&#xb0;" horiz-adv-x="409" 
d="M213 400h-16q-82 0 -119.5 37.5t-37.5 113.5v13q0 74 37.5 111.5t119.5 37.5h16q82 0 119 -37.5t37 -111.5v-13q0 -76 -37 -113.5t-119 -37.5zM197 474h16q44 0 62.5 17.5t18.5 60.5v10q0 42 -18.5 59.5t-62.5 17.5h-16q-44 0 -62.5 -17.5t-18.5 -59.5v-10
q0 -43 18.5 -60.5t62.5 -17.5z" />
    <glyph glyph-name="acute" unicode="&#xb4;" horiz-adv-x="558" 
d="M308 579h-36q-24 0 -16 23l34 88q6 16 23 16h61q12 0 15.5 -7t-2.5 -17l-55 -90q-7 -13 -24 -13z" />
    <glyph glyph-name="paragraph" unicode="&#xb6;" horiz-adv-x="380" 
d="M308 -53h-51q-20 0 -20 20v416h-100q-95 0 -95 122v83q0 63 24 90.5t71 27.5h171q20 0 20 -20v-719q0 -20 -20 -20z" />
    <glyph glyph-name="middot" unicode="&#xb7;" horiz-adv-x="224" 
d="M141 211h-58q-20 0 -20 20v120q0 20 20 20h58q20 0 20 -20v-120q0 -20 -20 -20z" />
    <glyph glyph-name="cedilla" unicode="&#xb8;" horiz-adv-x="558" 
d="M273 -182h-63q-24 0 -16 23l61 167q6 16 23 16h39q22 0 18 -22l-40 -167q-5 -17 -22 -17z" />
    <glyph glyph-name="ordmasculine" unicode="&#xba;" horiz-adv-x="630" 
d="M378 184h-126q-121 0 -164 52t-43 170v81q0 115 43 167t164 52h126q120 0 163 -52q44 -53 44 -167v-81q0 -117 -44 -170q-43 -52 -163 -52zM254 273h122q70 0 92 24q23 25 23 101v96q0 74 -23 99q-22 24 -92 24h-122q-70 0 -93 -24q-22 -23 -22 -99v-96q0 -78 22 -101
q23 -24 93 -24z" />
    <glyph glyph-name="guillemotright" unicode="&#xbb;" horiz-adv-x="484" 
d="M111 83h-42q-26 0 -15 24l91 179l-91 179q-11 24 15 24h42q17 0 24 -13l112 -176q9 -14 0 -28l-112 -176q-7 -13 -24 -13zM310 83h-41q-26 0 -15 24l91 179l-91 179q-11 24 15 24h41q17 0 24 -13l113 -176q9 -14 0 -28l-113 -176q-7 -13 -24 -13z" />
    <glyph glyph-name="questiondown" unicode="&#xbf;" horiz-adv-x="737" 
d="M423 546h-58q-20 0 -20 20v120q0 20 20 20h58q20 0 20 -20v-120q0 -20 -20 -20zM470 0h-203q-124 0 -180.5 46.5t-56.5 140.5q0 86 39 128q40 42 119 70l109 38q28 10 39 19t13 26q3 19 20 19h48q20 0 20 -21q-3 -48 -22.5 -71.5t-72.5 -42.5l-111 -37q-60 -21 -81.5 -46
t-21.5 -76q0 -56 31 -77t110 -21h201q81 0 110 29t29 117v31q0 20 20 20h58q20 0 20 -20v-28q0 -126 -50 -185t-187 -59z" />
    <glyph glyph-name="Agrave" unicode="&#xc0;" horiz-adv-x="823" 
d="M409 871l33 -88q8 -23 -16 -23h-36q-17 0 -24 13l-55 90q-13 24 13 24h62q17 0 23 -16zM800 0h-67q-15 0 -23 15l-60 119h-468l-61 -120q-8 -14 -23 -14h-67q-11 0 -15.5 7t0.5 17l342 668q8 14 23 14h70q15 0 23 -14l341 -668q5 -10 0.5 -17t-15.5 -7zM417 600
l-193 -382h384z" />
    <glyph glyph-name="Aacute" unicode="&#xc1;" horiz-adv-x="823" 
d="M444 887h61q26 0 13 -24l-55 -90q-7 -13 -24 -13h-36q-24 0 -16 23l34 88q6 16 23 16zM800 0h-67q-15 0 -23 15l-60 119h-468l-61 -120q-8 -14 -23 -14h-67q-11 0 -15.5 7t0.5 17l342 668q8 14 23 14h70q15 0 23 -14l341 -668q5 -10 0.5 -17t-15.5 -7zM417 600l-193 -382
h384z" />
    <glyph glyph-name="Acircumflex" unicode="&#xc2;" horiz-adv-x="823" 
d="M465 769l-53 61l-54 -61q-11 -11 -25 -11h-43q-12 0 -15.5 7t3.5 17l70 92q9 12 24 12h80q15 0 24 -12l69 -92q7 -10 3.5 -17t-15.5 -7h-43q-14 0 -25 11zM800 0h-67q-15 0 -23 15l-60 119h-468l-61 -120q-8 -14 -23 -14h-67q-11 0 -15.5 7t0.5 17l342 668q8 14 23 14h70
q15 0 23 -14l341 -668q5 -10 0.5 -17t-15.5 -7zM417 600l-193 -382h384z" />
    <glyph glyph-name="Atilde" unicode="&#xc3;" horiz-adv-x="823" 
d="M447 761l-47 13q-74 20 -125 0q-24 -10 -24 14v35q0 17 16 24q57 22 141 -1l46 -11q53 -8 98 11q24 10 24 -15v-35q0 -17 -23 -26q-29 -10 -60 -12q-31 0 -46 3zM800 0h-67q-15 0 -23 15l-60 119h-468l-61 -120q-8 -14 -23 -14h-67q-11 0 -15.5 7t0.5 17l342 668
q8 14 23 14h70q15 0 23 -14l341 -668q5 -10 0.5 -17t-15.5 -7zM417 600l-193 -382h384z" />
    <glyph glyph-name="Adieresis" unicode="&#xc4;" horiz-adv-x="823" 
d="M293 892h43q20 0 20 -20v-89q0 -20 -20 -20h-43q-20 0 -20 20v89q0 20 20 20zM491 892h43q20 0 20 -20v-89q0 -20 -20 -20h-43q-20 0 -20 20v89q0 20 20 20zM800 0h-67q-15 0 -23 15l-60 119h-468l-61 -120q-8 -14 -23 -14h-67q-11 0 -15.5 7t0.5 17l342 668q8 14 23 14
h70q15 0 23 -14l341 -668q5 -10 0.5 -17t-15.5 -7zM417 600l-193 -382h384z" />
    <glyph glyph-name="Aring" unicode="&#xc5;" horiz-adv-x="823" 
d="M420 757h-10q-98 0 -98 95v7q0 93 98 93h10q97 0 97 -93v-7q0 -48 -23 -71.5t-74 -23.5zM380 857v-5q0 -17 6.5 -23.5t24.5 -6.5h8q18 0 24.5 6.5t6.5 23.5v5q0 17 -6.5 23t-24.5 6h-8q-18 0 -24.5 -6t-6.5 -23zM800 0h-67q-15 0 -23 15l-60 119h-468l-61 -120
q-8 -14 -23 -14h-67q-11 0 -15.5 7t0.5 17l342 668q8 14 23 14h70q15 0 23 -14l341 -668q5 -10 0.5 -17t-15.5 -7zM417 600l-193 -382h384z" />
    <glyph glyph-name="AE" unicode="&#xc6;" horiz-adv-x="1190" 
d="M81 0h-66q-12 0 -16 7t3 17l507 670q9 12 24 12h604q20 0 20 -20v-55q0 -20 -20 -20h-479v-207h326q20 0 20 -20v-48q0 -20 -20 -20h-326v-221h479q20 0 20 -20v-55q0 -20 -20 -20h-557q-20 0 -20 20v114h-363l-92 -122q-7 -12 -24 -12zM560 612l-299 -394h299v394z" />
    <glyph glyph-name="Ccedilla" unicode="&#xc7;" horiz-adv-x="787" 
d="M747 462v-14q0 -14 -20 -14h-58q-20 0 -20 16v15q0 83 -30.5 114.5t-108.5 31.5h-223q-78 0 -108.5 -31.5t-30.5 -114.5v-225q0 -83 30.5 -114t108.5 -31h223q78 0 108.5 31t30.5 114v22q0 20 20 20h58q20 0 20 -19v-20q0 -122 -57 -182.5t-180 -60.5h-63l-39 -165
q-5 -17 -22 -17h-63q-24 0 -16 23l58 159h-78q-123 0 -180 60.5t-57 182.5v219q0 123 57 183.5t180 60.5h223q123 0 180 -60.5t57 -183.5z" />
    <glyph glyph-name="Egrave" unicode="&#xc8;" horiz-adv-x="697" 
d="M375 759h-36q-17 0 -24 13l-55 90q-6 10 -2.5 17t15.5 7h62q17 0 23 -16l33 -88q8 -23 -16 -23zM640 0h-557q-20 0 -20 20v666q0 20 20 20h557q20 0 20 -20v-55q0 -20 -20 -20h-479v-205h326q20 0 20 -20v-52q0 -20 -20 -20h-326v-219h479q20 0 20 -20v-55q0 -20 -20 -20
z" />
    <glyph glyph-name="Eacute" unicode="&#xc9;" horiz-adv-x="697" 
d="M386 758h-36q-24 0 -16 23l34 88q6 16 23 16h61q26 0 13 -24l-55 -90q-7 -13 -24 -13zM640 0h-557q-20 0 -20 20v666q0 20 20 20h557q20 0 20 -20v-55q0 -20 -20 -20h-479v-205h326q20 0 20 -20v-52q0 -20 -20 -20h-326v-219h479q20 0 20 -20v-55q0 -20 -20 -20z" />
    <glyph glyph-name="Ecircumflex" unicode="&#xca;" horiz-adv-x="697" 
d="M227 781l70 92q9 12 24 12h80q15 0 24 -12l69 -92q14 -24 -12 -24h-43q-14 0 -25 11l-53 61l-54 -61q-11 -11 -25 -11h-43q-13 0 -16.5 7t4.5 17zM640 0h-557q-20 0 -20 20v666q0 20 20 20h557q20 0 20 -20v-55q0 -20 -20 -20h-479v-205h326q20 0 20 -20v-52
q0 -20 -20 -20h-326v-219h479q20 0 20 -20v-55q0 -20 -20 -20z" />
    <glyph glyph-name="Edieresis" unicode="&#xcb;" horiz-adv-x="697" 
d="M284 762h-43q-20 0 -20 20v89q0 20 20 20h43q20 0 20 -20v-89q0 -20 -20 -20zM482 762h-43q-20 0 -20 20v89q0 20 20 20h43q20 0 20 -20v-89q0 -20 -20 -20zM640 0h-557q-20 0 -20 20v666q0 20 20 20h557q20 0 20 -20v-55q0 -20 -20 -20h-479v-205h326q20 0 20 -20v-52
q0 -20 -20 -20h-326v-219h479q20 0 20 -20v-55q0 -20 -20 -20z" />
    <glyph glyph-name="Igrave" unicode="&#xcc;" horiz-adv-x="221" 
d="M126 759h-36q-17 0 -24 13l-55 90q-6 10 -2.5 17t15.5 7h62q17 0 23 -16l33 -88q8 -23 -16 -23zM144 0h-58q-20 0 -20 20v666q0 20 20 20h58q20 0 20 -20v-666q0 -20 -20 -20z" />
    <glyph glyph-name="Iacute" unicode="&#xcd;" horiz-adv-x="219" 
d="M134 759h-36q-24 0 -16 23l34 88q6 16 23 16h61q12 0 15.5 -7t-2.5 -17l-55 -90q-7 -13 -24 -13zM141 0h-58q-20 0 -20 20v666q0 20 20 20h58q20 0 20 -20v-666q0 -20 -20 -20z" />
    <glyph glyph-name="Icircumflex" unicode="&#xce;" horiz-adv-x="218" 
d="M-19 781l70 92q9 12 24 12h80q15 0 24 -12l69 -92q14 -24 -12 -24h-43q-14 0 -25 11l-53 61l-54 -61q-11 -11 -25 -11h-43q-13 0 -16.5 7t4.5 17zM145 0h-58q-20 0 -20 20v666q0 20 20 20h58q20 0 20 -20v-666q0 -20 -20 -20z" />
    <glyph glyph-name="Idieresis" unicode="&#xcf;" horiz-adv-x="218" 
d="M34 762h-43q-20 0 -20 20v89q0 20 20 20h43q20 0 20 -20v-89q0 -20 -20 -20zM232 762h-43q-20 0 -20 20v89q0 20 20 20h43q20 0 20 -20v-89q0 -20 -20 -20zM141 0h-58q-20 0 -20 20v666q0 20 20 20h58q20 0 20 -20v-666q0 -20 -20 -20z" />
    <glyph glyph-name="Eth" unicode="&#xd0;" horiz-adv-x="824" 
d="M101 706h437q126 0 181 -62.5t55 -202.5v-180q0 -139 -55 -200t-181 -61h-437q-20 0 -20 20v293h-49q-20 0 -20 20v54q0 20 20 20h49v279q0 20 20 20zM676 262v179q0 99 -32 134q-32 36 -115 36h-350v-204h216q20 0 20 -20v-54q0 -20 -20 -20h-216v-219h350q84 0 115 34
q32 35 32 134z" />
    <glyph glyph-name="Ntilde" unicode="&#xd1;" horiz-adv-x="787" 
d="M250 772q-24 -10 -24 14v35q0 17 16 24q57 22 141 -1l46 -11q53 -8 98 11q24 10 24 -15v-35q0 -17 -15 -23q-48 -20 -89 -15q-7 2 -15 3t-15 2q-11 3 -14 3q-1 0 -8 2t-13 4t-7 2q-74 20 -125 0zM141 0h-58q-20 0 -20 20v666q0 20 20 20h63q16 0 25 -12l455 -551v543
q0 20 20 20h58q20 0 20 -20v-666q0 -20 -20 -20h-65q-16 0 -25 12l-453 548v-540q0 -20 -20 -20z" />
    <glyph glyph-name="Ograve" unicode="&#xd2;" horiz-adv-x="825" 
d="M420 759h-36q-17 0 -24 13l-55 90q-6 10 -2.5 17t15.5 7h62q17 0 23 -16l33 -88q8 -23 -16 -23zM538 0h-251q-123 0 -180 60.5t-57 182.5v219q0 123 57 183.5t180 60.5h251q123 0 180 -60.5t57 -183.5v-219q0 -122 -57 -182.5t-180 -60.5zM287 95h251q78 0 108.5 31
t30.5 114v225q0 84 -31 115q-30 31 -108 31h-251q-78 0 -108.5 -31.5t-30.5 -114.5v-225q0 -83 30.5 -114t108.5 -31z" />
    <glyph glyph-name="Oacute" unicode="&#xd3;" horiz-adv-x="825" 
d="M442 758h-36q-24 0 -16 23l34 88q6 16 23 16h61q26 0 13 -24l-55 -90q-7 -13 -24 -13zM538 0h-251q-123 0 -180 60.5t-57 182.5v219q0 123 57 183.5t180 60.5h251q123 0 180 -60.5t57 -183.5v-219q0 -122 -57 -182.5t-180 -60.5zM287 95h251q78 0 108.5 31t30.5 114v225
q0 84 -31 115q-30 31 -108 31h-251q-78 0 -108.5 -31.5t-30.5 -114.5v-225q0 -83 30.5 -114t108.5 -31z" />
    <glyph glyph-name="Ocircumflex" unicode="&#xd4;" horiz-adv-x="825" 
d="M279 782l70 92q9 12 24 12h80q15 0 24 -12l69 -92q7 -10 3.5 -17t-15.5 -7h-43q-14 0 -25 11l-53 61l-54 -61q-11 -11 -25 -11h-43q-13 0 -16.5 7t4.5 17zM538 0h-251q-123 0 -180 60.5t-57 182.5v219q0 123 57 183.5t180 60.5h251q123 0 180 -60.5t57 -183.5v-219
q0 -122 -57 -182.5t-180 -60.5zM287 95h251q78 0 108.5 31t30.5 114v225q0 84 -31 115q-30 31 -108 31h-251q-78 0 -108.5 -31.5t-30.5 -114.5v-225q0 -83 30.5 -114t108.5 -31z" />
    <glyph glyph-name="Otilde" unicode="&#xd5;" horiz-adv-x="825" 
d="M274 771q-24 -11 -24 14v35q0 17 16 24q57 22 141 -1l46 -11q53 -8 98 11q24 11 24 -15v-35q0 -17 -15 -23q-48 -20 -89 -15q-7 2 -15 3t-15 2q-11 3 -14 3q-1 0 -8 2t-13 4t-7 2q-74 20 -125 0zM538 0h-251q-123 0 -180 60.5t-57 182.5v219q0 123 57 183.5t180 60.5h251
q123 0 180 -60.5t57 -183.5v-219q0 -122 -57 -182.5t-180 -60.5zM287 95h251q78 0 108.5 31t30.5 114v225q0 84 -31 115q-30 31 -108 31h-251q-78 0 -108.5 -31.5t-30.5 -114.5v-225q0 -83 30.5 -114t108.5 -31z" />
    <glyph glyph-name="Odieresis" unicode="&#xd6;" horiz-adv-x="825" 
d="M335 761h-43q-20 0 -20 20v89q0 20 20 20h43q20 0 20 -20v-89q0 -20 -20 -20zM533 761h-43q-20 0 -20 20v89q0 20 20 20h43q20 0 20 -20v-89q0 -20 -20 -20zM538 0h-251q-123 0 -180 60.5t-57 182.5v219q0 123 57 183.5t180 60.5h251q123 0 180 -60.5t57 -183.5v-219
q0 -122 -57 -182.5t-180 -60.5zM287 95h251q78 0 108.5 31t30.5 114v225q0 84 -31 115q-30 31 -108 31h-251q-78 0 -108.5 -31.5t-30.5 -114.5v-225q0 -83 30.5 -114t108.5 -31z" />
    <glyph glyph-name="multiply" unicode="&#xd7;" horiz-adv-x="474" 
d="M252 293l-119 -117q-14 -14 -28 0l-34 33q-14 14 0 28l118 118l-119 118q-14 14 0 28l35 35q14 14 28 0l119 -119l117 117q14 14 28 0l35 -34q14 -14 0 -28l-118 -117l118 -118q14 -14 0 -28l-34 -33q-14 -14 -28 0z" />
    <glyph glyph-name="Oslash" unicode="&#xd8;" horiz-adv-x="825" 
d="M570 757l-13 -51q113 -5 165.5 -65.5t52.5 -178.5v-219q0 -122 -57 -182.5t-180 -60.5h-162l-14 -53q-5 -17 -22 -17h-54q-21 0 -17 22l12 48q-120 1 -175.5 61.5t-55.5 181.5v219q0 123 57 183.5t180 60.5h175l15 56q5 17 22 17h54q21 0 17 -22zM287 95h18l133 516h-151
q-78 0 -108.5 -31.5t-30.5 -114.5v-225q0 -83 30.5 -114t108.5 -31zM677 240v225q0 84 -31 115q-30 31 -108 31h-5l-133 -516h138q78 0 108.5 31t30.5 114z" />
    <glyph glyph-name="Ugrave" unicode="&#xd9;" horiz-adv-x="824" 
d="M429 757h-36q-17 0 -24 13l-55 90q-6 10 -2.5 17t15.5 7h62q17 0 23 -16l33 -88q8 -23 -16 -23zM520 0h-216q-123 0 -180 60.5t-57 182.5v443q0 20 20 20h58q20 0 20 -20v-446q0 -83 30.5 -114t108.5 -31h216q78 0 108 31t30 114v446q0 20 20 20h59q20 0 20 -20v-443
q0 -122 -57 -182.5t-180 -60.5z" />
    <glyph glyph-name="Uacute" unicode="&#xda;" horiz-adv-x="824" 
d="M433 758h-36q-24 0 -16 23l34 88q6 16 23 16h61q26 0 13 -24l-55 -90q-7 -13 -24 -13zM520 0h-216q-123 0 -180 60.5t-57 182.5v443q0 20 20 20h58q20 0 20 -20v-446q0 -83 30.5 -114t108.5 -31h216q78 0 108 31t30 114v446q0 20 20 20h59q20 0 20 -20v-443
q0 -122 -57 -182.5t-180 -60.5z" />
    <glyph glyph-name="Ucircumflex" unicode="&#xdb;" horiz-adv-x="824" 
d="M278 781l70 92q9 12 24 12h80q15 0 24 -12l69 -92q14 -24 -12 -24h-43q-14 0 -25 11l-53 61l-54 -61q-11 -11 -25 -11h-43q-13 0 -16.5 7t4.5 17zM520 0h-216q-123 0 -180 60.5t-57 182.5v443q0 20 20 20h58q20 0 20 -20v-446q0 -83 30.5 -114t108.5 -31h216q78 0 108 31
t30 114v446q0 20 20 20h59q20 0 20 -20v-443q0 -122 -57 -182.5t-180 -60.5z" />
    <glyph glyph-name="Udieresis" unicode="&#xdc;" horiz-adv-x="824" 
d="M334 761h-43q-20 0 -20 20v89q0 20 20 20h43q20 0 20 -20v-89q0 -20 -20 -20zM532 761h-43q-20 0 -20 20v89q0 20 20 20h43q20 0 20 -20v-89q0 -20 -20 -20zM520 0h-216q-123 0 -180 60.5t-57 182.5v443q0 20 20 20h58q20 0 20 -20v-446q0 -83 30.5 -114t108.5 -31h216
q78 0 108 31t30 114v446q0 20 20 20h59q20 0 20 -20v-443q0 -122 -57 -182.5t-180 -60.5z" />
    <glyph glyph-name="Yacute" unicode="&#xdd;" horiz-adv-x="748" 
d="M407 758h-36q-24 0 -16 23l34 88q6 16 23 16h61q26 0 13 -24l-55 -90q-7 -13 -24 -13zM410 0h-59q-20 0 -20 20v173l-331 489q-7 10 -3 17t16 7h70q15 0 24 -13l273 -407l270 407q9 13 25 13h68q12 0 16 -7t-3 -17l-326 -489v-173q0 -20 -20 -20z" />
    <glyph glyph-name="Thorn" unicode="&#xde;" horiz-adv-x="745" 
d="M141 0h-58q-20 0 -20 20v666q0 20 20 20h58q20 0 20 -20v-79h267q153 0 214 -59q61 -58 61 -192v-7q0 -133 -61 -190q-60 -57 -214 -57h-267v-82q0 -20 -20 -20zM161 512v-316h260q106 0 145 30q39 32 39 124v6q0 94 -39 125q-37 31 -145 31h-260z" />
    <glyph glyph-name="germandbls" unicode="&#xdf;" horiz-adv-x="727" 
d="M167 0h-54q-20 0 -20 20v455h-58q-20 0 -20 20v47q0 20 20 20h58q0 112 49 164q50 53 178 53h108q107 0 156 -32.5t49 -101.5v-10q0 -86 -76 -111q125 -35 125 -181v-114q0 -125 -51 -178q-49 -51 -194 -51h-128q-20 0 -20 20v47q0 20 20 20h130q92 0 121 29
q28 28 28 117v115q0 72 -34 99.5t-121 27.5h-117q-20 0 -20 20v47q0 20 20 20h123q57 0 77.5 15t20.5 50v9q0 33 -23.5 47t-85.5 14h-110q-84 0 -108 -30q-23 -31 -23 -117v-530q0 -20 -20 -20z" />
    <glyph glyph-name="agrave" unicode="&#xe0;" horiz-adv-x="630" 
d="M342 613h-36q-17 0 -24 13l-55 90q-6 10 -2.5 17t15.5 7h62q17 0 23 -16l33 -88q8 -23 -16 -23zM312 0h-75q-210 0 -210 155q0 83 39 121q40 39 140 49l248 27q32 5 32 40q0 48 -20.5 64.5t-82.5 16.5h-291q-20 0 -20 20v49q0 20 20 20h293q105 0 150 -38.5t45 -126.5
v-377q0 -20 -20 -20h-54q-20 0 -20 20v66q-19 -46 -58 -66q-38 -20 -116 -20zM237 87h113q77 0 106.5 29t29.5 101v55l-265 -28q-59 -6 -79 -22.5t-20 -58.5q0 -76 115 -76z" />
    <glyph glyph-name="aacute" unicode="&#xe1;" horiz-adv-x="630" 
d="M326 614h-36q-24 0 -16 23l34 88q6 16 23 16h61q26 0 13 -24l-55 -90q-7 -13 -24 -13zM312 0h-75q-210 0 -210 155q0 83 39 121q40 39 140 49l248 27q32 5 32 40q0 48 -20.5 64.5t-82.5 16.5h-291q-20 0 -20 20v49q0 20 20 20h293q105 0 150 -38.5t45 -126.5v-377
q0 -20 -20 -20h-54q-20 0 -20 20v66q-19 -46 -58 -66q-38 -20 -116 -20zM237 87h113q77 0 106.5 29t29.5 101v55l-265 -28q-59 -6 -79 -22.5t-20 -58.5q0 -76 115 -76z" />
    <glyph glyph-name="acircumflex" unicode="&#xe2;" horiz-adv-x="630" 
d="M192 637l70 92q9 12 24 12h80q15 0 24 -12l69 -92q14 -24 -12 -24h-43q-14 0 -25 11l-53 61l-54 -61q-11 -11 -25 -11h-43q-13 0 -16.5 7t4.5 17zM312 0h-75q-210 0 -210 155q0 83 39 121q40 39 140 49l248 27q32 5 32 40q0 48 -20.5 64.5t-82.5 16.5h-291q-20 0 -20 20
v49q0 20 20 20h293q105 0 150 -38.5t45 -126.5v-377q0 -20 -20 -20h-54q-20 0 -20 20v66q-19 -46 -58 -66q-38 -20 -116 -20zM237 87h113q77 0 106.5 29t29.5 101v55l-265 -28q-59 -6 -79 -22.5t-20 -58.5q0 -76 115 -76z" />
    <glyph glyph-name="atilde" unicode="&#xe3;" horiz-adv-x="630" 
d="M198 629q-24 -11 -24 14v35q0 17 16 24q57 22 141 -1l46 -11q53 -8 98 11q24 11 24 -15v-35q0 -17 -15 -23q-48 -20 -89 -15q-7 2 -15 3t-15 2q-11 3 -14 3q-1 0 -8 2t-13 4t-7 2q-74 20 -125 0zM312 0h-75q-210 0 -210 155q0 83 39 121q40 39 140 49l248 27q32 5 32 40
q0 48 -20.5 64.5t-82.5 16.5h-291q-20 0 -20 20v49q0 20 20 20h293q105 0 150 -38.5t45 -126.5v-377q0 -20 -20 -20h-54q-20 0 -20 20v66q-19 -46 -58 -66q-38 -20 -116 -20zM237 87h113q77 0 106.5 29t29.5 101v55l-265 -28q-59 -6 -79 -22.5t-20 -58.5q0 -76 115 -76z" />
    <glyph glyph-name="adieresis" unicode="&#xe4;" horiz-adv-x="630" 
d="M248 617h-43q-20 0 -20 20v89q0 20 20 20h43q20 0 20 -20v-89q0 -20 -20 -20zM446 617h-43q-20 0 -20 20v89q0 20 20 20h43q20 0 20 -20v-89q0 -20 -20 -20zM312 0h-75q-210 0 -210 155q0 83 39 121q40 39 140 49l248 27q32 5 32 40q0 48 -20.5 64.5t-82.5 16.5h-291
q-20 0 -20 20v49q0 20 20 20h293q105 0 150 -38.5t45 -126.5v-377q0 -20 -20 -20h-54q-20 0 -20 20v66q-19 -46 -58 -66q-38 -20 -116 -20zM237 87h113q77 0 106.5 29t29.5 101v55l-265 -28q-59 -6 -79 -22.5t-20 -58.5q0 -76 115 -76z" />
    <glyph glyph-name="aring" unicode="&#xe5;" horiz-adv-x="630" 
d="M331 612h-10q-98 0 -98 95v7q0 93 98 93h10q97 0 97 -93v-7q0 -48 -23 -71.5t-74 -23.5zM322 677h8q18 0 24.5 6.5t6.5 23.5v5q0 17 -6.5 23t-24.5 6h-8q-18 0 -24.5 -6t-6.5 -23v-5q0 -17 6.5 -23.5t24.5 -6.5zM312 0h-75q-210 0 -210 155q0 83 39 121q40 39 140 49
l248 27q32 5 32 40q0 48 -20.5 64.5t-82.5 16.5h-291q-20 0 -20 20v49q0 20 20 20h293q105 0 150 -38.5t45 -126.5v-377q0 -20 -20 -20h-54q-20 0 -20 20v66q-19 -46 -58 -66q-38 -20 -116 -20zM237 87h113q77 0 106.5 29t29.5 101v55l-265 -28q-59 -6 -79 -22.5t-20 -58.5
q0 -76 115 -76z" />
    <glyph glyph-name="ae" unicode="&#xe6;" horiz-adv-x="1077" 
d="M366 0h-129q-210 0 -210 155q0 83 39 121q40 39 140 49l248 27q18 2 25 9.5t7 24.5q0 52 -20 69q-20 18 -83 18h-291q-20 0 -20 20v49q0 20 20 20h285q72 0 109 -20t50 -65q14 45 51.5 65t108.5 20h139q120 0 163 -52q44 -53 44 -167v-90q0 -20 -20 -20h-441v-19
q0 -78 22 -101q23 -24 92 -24h284q20 0 20 -20v-49q0 -20 -20 -20h-282q-77 0 -115 23.5t-50 75.5q-18 -47 -62.5 -73t-103.5 -26zM581 350v-32h366v32q0 74 -23 99q-23 24 -91 24h-138q-69 0 -92 -24q-22 -23 -22 -99zM237 87h133q60 0 88 31t28 99v55l-265 -28
q-59 -6 -79 -22.5t-20 -58.5q0 -76 115 -76z" />
    <glyph glyph-name="ccedilla" unicode="&#xe7;" horiz-adv-x="655" 
d="M254 89h162q69 0 91 22t24 94q0 21 20 21h54q20 0 20 -21q-5 -115 -50 -160q-47 -45 -157 -45h-40l-39 -165q-5 -17 -22 -17h-63q-24 0 -16 23l58 159h-44q-121 0 -164 52t-43 170v121q0 115 43 167t164 52h166q112 0 158 -46t49 -157q0 -21 -20 -21h-54q-20 0 -20 21
q-1 68 -25 92q-22 22 -90 22h-162q-70 0 -93 -24q-22 -23 -22 -99v-136q0 -78 22 -101q23 -24 93 -24z" />
    <glyph glyph-name="egrave" unicode="&#xe8;" horiz-adv-x="635" 
d="M335 614h-36q-17 0 -24 13l-55 90q-13 24 13 24h62q17 0 23 -16l33 -88q8 -23 -16 -23zM535 0h-283q-121 0 -164 52t-43 170v121q0 115 43 167t164 52h141q120 0 163 -52q44 -53 44 -167v-90q0 -20 -20 -20h-441v-19q0 -78 22 -101q23 -24 93 -24h281q20 0 20 -20v-49
q0 -20 -20 -20zM139 350v-32h367v32q0 74 -23 99q-22 24 -92 24h-137q-70 0 -93 -24q-22 -23 -22 -99z" />
    <glyph glyph-name="eacute" unicode="&#xe9;" horiz-adv-x="635" 
d="M354 615h-36q-24 0 -16 23l34 88q6 16 23 16h61q12 0 15.5 -7t-2.5 -17l-55 -90q-7 -13 -24 -13zM535 0h-283q-121 0 -164 52t-43 170v121q0 115 43 167t164 52h141q120 0 163 -52q44 -53 44 -167v-90q0 -20 -20 -20h-441v-19q0 -78 22 -101q23 -24 93 -24h281
q20 0 20 -20v-49q0 -20 -20 -20zM139 350v-32h367v32q0 74 -23 99q-22 24 -92 24h-137q-70 0 -93 -24q-22 -23 -22 -99z" />
    <glyph glyph-name="ecircumflex" unicode="&#xea;" horiz-adv-x="635" 
d="M190 636l70 92q9 12 24 12h80q15 0 24 -12l69 -92q7 -10 3.5 -17t-15.5 -7h-43q-14 0 -25 11l-53 61l-54 -61q-11 -11 -25 -11h-43q-13 0 -16.5 7t4.5 17zM535 0h-283q-121 0 -164 52t-43 170v121q0 115 43 167t164 52h141q120 0 163 -52q44 -53 44 -167v-90
q0 -20 -20 -20h-441v-19q0 -78 22 -101q23 -24 93 -24h281q20 0 20 -20v-49q0 -20 -20 -20zM139 350v-32h367v32q0 74 -23 99q-22 24 -92 24h-137q-70 0 -93 -24q-22 -23 -22 -99z" />
    <glyph glyph-name="edieresis" unicode="&#xeb;" horiz-adv-x="635" 
d="M246 618h-43q-20 0 -20 20v89q0 20 20 20h43q20 0 20 -20v-89q0 -20 -20 -20zM444 618h-43q-20 0 -20 20v89q0 20 20 20h43q20 0 20 -20v-89q0 -20 -20 -20zM535 0h-283q-121 0 -164 52t-43 170v121q0 115 43 167t164 52h141q120 0 163 -52q44 -53 44 -167v-90
q0 -20 -20 -20h-441v-19q0 -78 22 -101q23 -24 93 -24h281q20 0 20 -20v-49q0 -20 -20 -20zM139 350v-32h367v32q0 74 -23 99q-22 24 -92 24h-137q-70 0 -93 -24q-22 -23 -22 -99z" />
    <glyph glyph-name="igrave" unicode="&#xec;" horiz-adv-x="208" 
d="M120 614h-36q-17 0 -24 13l-55 90q-13 24 13 24h62q17 0 23 -16l33 -88q8 -23 -16 -23zM135 0h-54q-20 0 -20 20v522q0 20 20 20h54q20 0 20 -20v-522q0 -20 -20 -20z" />
    <glyph glyph-name="iacute" unicode="&#xed;" horiz-adv-x="207" 
d="M127 615h-36q-24 0 -16 23l34 88q6 16 23 16h61q12 0 15.5 -7t-2.5 -17l-55 -90q-7 -13 -24 -13zM131 0h-54q-20 0 -20 20v522q0 20 20 20h54q20 0 20 -20v-522q0 -20 -20 -20z" />
    <glyph glyph-name="icircumflex" unicode="&#xee;" horiz-adv-x="207" 
d="M-26 637l70 92q9 12 24 12h80q15 0 24 -12l69 -92q14 -24 -12 -24h-43q-14 0 -25 11l-53 61l-54 -61q-11 -11 -25 -11h-43q-13 0 -16.5 7t4.5 17zM135 0h-54q-20 0 -20 20v522q0 20 20 20h54q20 0 20 -20v-522q0 -20 -20 -20z" />
    <glyph glyph-name="idieresis" unicode="&#xef;" horiz-adv-x="209" 
d="M28 617h-43q-20 0 -20 20v89q0 20 20 20h43q20 0 20 -20v-89q0 -20 -20 -20zM226 617h-43q-20 0 -20 20v89q0 20 20 20h43q20 0 20 -20v-89q0 -20 -20 -20zM132 0h-54q-20 0 -20 20v522q0 20 20 20h54q20 0 20 -20v-522q0 -20 -20 -20z" />
    <glyph glyph-name="eth" unicode="&#xf0;" horiz-adv-x="670" 
d="M528 622l19 -36q26 -45 39 -74q39 -80 39 -168v-122q0 -117 -44 -170q-43 -52 -163 -52h-166q-121 0 -164 52t-43 170v121q0 115 43 167t164 52h96q96 0 125 -23l-44 83h-172q-20 0 -20 20v31q0 20 20 20h135l-22 42q-11 24 14 24h57q15 0 23 -14l27 -52h74q20 0 20 -20
v-31q0 -20 -20 -20h-37zM531 214v136q0 74 -23 99q-22 24 -92 24h-162q-70 0 -93 -24q-22 -23 -22 -99v-136q0 -78 22 -101q23 -24 93 -24h162q70 0 92 24q23 25 23 101z" />
    <glyph glyph-name="ntilde" unicode="&#xf1;" horiz-adv-x="666" 
d="M378 622l-47 13q-74 20 -125 0q-24 -11 -24 14v35q0 17 16 24q57 22 141 -1l46 -11q53 -8 98 11q24 11 24 -15v-35q0 -17 -23 -26q-28 -11 -60 -12q-31 0 -46 3zM310 562h99q120 0 163 -52q44 -53 44 -170v-321q0 -20 -20 -20h-54q-20 0 -20 20v329q0 76 -23 101
q-23 24 -91 24h-142q-64 0 -89 -25q-26 -24 -26 -100v-328q0 -20 -20 -20h-54q-20 0 -20 20v522q0 20 20 20h54q20 0 20 -20v-53q33 73 159 73z" />
    <glyph glyph-name="ograve" unicode="&#xf2;" horiz-adv-x="670" 
d="M346 614h-36q-17 0 -24 13l-55 90q-13 24 13 24h62q17 0 23 -16l33 -88q8 -23 -16 -23zM418 0h-166q-121 0 -164 52t-43 170v121q0 115 43 167t164 52h166q120 0 163 -52q44 -53 44 -167v-121q0 -117 -44 -170q-43 -52 -163 -52zM254 89h162q70 0 92 24q23 25 23 101v136
q0 74 -23 99q-22 24 -92 24h-162q-70 0 -93 -24q-22 -23 -22 -99v-136q0 -78 22 -101q23 -24 93 -24z" />
    <glyph glyph-name="oacute" unicode="&#xf3;" horiz-adv-x="670" 
d="M360 613h-36q-24 0 -16 23l34 88q6 16 23 16h61q12 0 15.5 -7t-2.5 -17l-55 -90q-7 -13 -24 -13zM418 0h-166q-121 0 -164 52t-43 170v121q0 115 43 167t164 52h166q120 0 163 -52q44 -53 44 -167v-121q0 -117 -44 -170q-43 -52 -163 -52zM254 89h162q70 0 92 24
q23 25 23 101v136q0 74 -23 99q-22 24 -92 24h-162q-70 0 -93 -24q-22 -23 -22 -99v-136q0 -78 22 -101q23 -24 93 -24z" />
    <glyph glyph-name="ocircumflex" unicode="&#xf4;" horiz-adv-x="670" 
d="M198 636l70 92q9 12 24 12h80q15 0 24 -12l69 -92q7 -10 3.5 -17t-15.5 -7h-43q-14 0 -25 11l-53 61l-54 -61q-11 -11 -25 -11h-43q-13 0 -16.5 7t4.5 17zM418 0h-166q-121 0 -164 52t-43 170v121q0 115 43 167t164 52h166q120 0 163 -52q44 -53 44 -167v-121
q0 -117 -44 -170q-43 -52 -163 -52zM254 89h162q70 0 92 24q23 25 23 101v136q0 74 -23 99q-22 24 -92 24h-162q-70 0 -93 -24q-22 -23 -22 -99v-136q0 -78 22 -101q23 -24 93 -24z" />
    <glyph glyph-name="otilde" unicode="&#xf5;" horiz-adv-x="670" 
d="M198 630q-24 -10 -24 14v35q0 17 16 24q57 22 141 -1l46 -11q53 -8 98 11q24 10 24 -15v-35q0 -17 -15 -23q-48 -20 -89 -15q-7 2 -15 3t-15 2q-11 3 -14 3q-1 0 -8 2t-13 4t-7 2q-74 20 -125 0zM418 0h-166q-121 0 -164 52t-43 170v121q0 115 43 167t164 52h166
q120 0 163 -52q44 -53 44 -167v-121q0 -117 -44 -170q-43 -52 -163 -52zM254 89h162q70 0 92 24q23 25 23 101v136q0 74 -23 99q-22 24 -92 24h-162q-70 0 -93 -24q-22 -23 -22 -99v-136q0 -78 22 -101q23 -24 93 -24z" />
    <glyph glyph-name="odieresis" unicode="&#xf6;" horiz-adv-x="670" 
d="M254 617h-43q-20 0 -20 20v89q0 20 20 20h43q20 0 20 -20v-89q0 -20 -20 -20zM452 617h-43q-20 0 -20 20v89q0 20 20 20h43q20 0 20 -20v-89q0 -20 -20 -20zM418 0h-166q-121 0 -164 52t-43 170v121q0 115 43 167t164 52h166q120 0 163 -52q44 -53 44 -167v-121
q0 -117 -44 -170q-43 -52 -163 -52zM254 89h162q70 0 92 24q23 25 23 101v136q0 74 -23 99q-22 24 -92 24h-162q-70 0 -93 -24q-22 -23 -22 -99v-136q0 -78 22 -101q23 -24 93 -24z" />
    <glyph glyph-name="divide" unicode="&#xf7;" horiz-adv-x="546" 
d="M298 476h-49q-20 0 -20 20v98q0 20 20 20h49q20 0 20 -20v-98q0 -20 -20 -20zM484 310h-422q-20 0 -20 20v48q0 20 20 20h422q20 0 20 -20v-48q0 -20 -20 -20zM298 96h-49q-20 0 -20 20v98q0 20 20 20h49q20 0 20 -20v-98q0 -20 -20 -20z" />
    <glyph glyph-name="oslash" unicode="&#xf8;" horiz-adv-x="670" 
d="M467 612l-13 -51q98 -8 134 -60q37 -50 37 -158v-121q0 -117 -44 -170q-43 -52 -163 -52h-104l-14 -54q-5 -17 -22 -17h-57q-21 0 -17 22l12 50q-98 7 -135 60q-36 52 -36 161v121q0 115 43 167t164 52h104l14 55q5 17 22 17h57q22 0 18 -22zM139 350v-136q0 -73 19 -98
t80 -27l96 384h-80q-70 0 -93 -24q-22 -23 -22 -99zM531 214v136q0 71 -20 96q-20 26 -79 27l-96 -384h80q70 0 92 24q23 25 23 101z" />
    <glyph glyph-name="ugrave" unicode="&#xf9;" horiz-adv-x="665" 
d="M328 724l33 -88q8 -23 -16 -23h-36q-17 0 -24 13l-55 90q-6 10 -2.5 17t15.5 7h62q17 0 23 -16zM514 213v328q0 20 20 20h54q20 0 20 -20v-522q0 -20 -20 -20h-54q-20 0 -20 20v54q-33 -74 -159 -74h-94q-120 0 -163 52q-44 53 -44 170v321q0 20 20 20h54q20 0 20 -20
v-329q0 -78 22 -101q23 -23 93 -23h136q63 0 89 24t26 100z" />
    <glyph glyph-name="uacute" unicode="&#xfa;" horiz-adv-x="665" 
d="M351 740h61q12 0 15.5 -7t-2.5 -17l-55 -90q-7 -13 -24 -13h-36q-24 0 -16 23l34 88q6 16 23 16zM514 213v328q0 20 20 20h54q20 0 20 -20v-522q0 -20 -20 -20h-54q-20 0 -20 20v54q-33 -74 -159 -74h-94q-120 0 -163 52q-44 53 -44 170v321q0 20 20 20h54q20 0 20 -20
v-329q0 -78 22 -101q23 -23 93 -23h136q63 0 89 24t26 100z" />
    <glyph glyph-name="ucircumflex" unicode="&#xfb;" horiz-adv-x="665" 
d="M384 623l-53 61l-54 -61q-11 -11 -25 -11h-43q-12 0 -15.5 7t3.5 17l70 92q9 12 24 12h80q15 0 24 -12l69 -92q7 -10 3.5 -17t-15.5 -7h-43q-14 0 -25 11zM514 213v328q0 20 20 20h54q20 0 20 -20v-522q0 -20 -20 -20h-54q-20 0 -20 20v54q-33 -74 -159 -74h-94
q-120 0 -163 52q-44 53 -44 170v321q0 20 20 20h54q20 0 20 -20v-329q0 -78 22 -101q23 -23 93 -23h136q63 0 89 24t26 100z" />
    <glyph glyph-name="udieresis" unicode="&#xfc;" horiz-adv-x="665" 
d="M212 747h43q20 0 20 -20v-89q0 -20 -20 -20h-43q-20 0 -20 20v89q0 20 20 20zM410 747h43q20 0 20 -20v-89q0 -20 -20 -20h-43q-20 0 -20 20v89q0 20 20 20zM514 213v328q0 20 20 20h54q20 0 20 -20v-522q0 -20 -20 -20h-54q-20 0 -20 20v54q-33 -74 -159 -74h-94
q-120 0 -163 52q-44 53 -44 170v321q0 20 20 20h54q20 0 20 -20v-329q0 -78 22 -101q23 -23 93 -23h136q63 0 89 24t26 100z" />
    <glyph glyph-name="yacute" unicode="&#xfd;" 
d="M351 613h-36q-24 0 -16 23l34 88q6 16 23 16h61q12 0 15.5 -7t-2.5 -17l-55 -90q-7 -13 -24 -13zM413 -197h-267q-20 0 -20 20v49q0 20 20 20h267q67 0 92 27.5t25 97.5v81q-15 -41 -52 -59.5t-106 -18.5h-108q-121 0 -164 52t-43 170v300q0 20 20 20h54q20 0 20 -20
v-308q0 -78 22 -101q22 -24 92 -24h151q62 0 88 24q26 26 26 101v307q0 20 20 20h54q20 0 20 -20v-516q0 -111 -46 -166q-47 -56 -165 -56z" />
    <glyph glyph-name="thorn" unicode="&#xfe;" horiz-adv-x="682" 
d="M310 562h120q120 0 163 -52q44 -53 44 -167v-121q0 -117 -44 -170q-43 -52 -163 -52h-120q-126 0 -159 74v-251q0 -20 -20 -20h-54q-20 0 -20 20v916q0 20 20 20h54q20 0 20 -20v-218q35 41 159 41zM542 214v136q0 74 -23 99q-23 24 -91 24h-162q-64 0 -89 -24
q-26 -24 -26 -99v-136q0 -75 26 -101q26 -24 89 -24h162q68 0 91 24q23 25 23 101z" />
    <glyph glyph-name="ydieresis" unicode="&#xff;" 
d="M259 618h-43q-20 0 -20 20v89q0 20 20 20h43q20 0 20 -20v-89q0 -20 -20 -20zM457 618h-43q-20 0 -20 20v89q0 20 20 20h43q20 0 20 -20v-89q0 -20 -20 -20zM413 -197h-267q-20 0 -20 20v49q0 20 20 20h267q67 0 92 27.5t25 97.5v81q-15 -41 -52 -59.5t-106 -18.5h-108
q-121 0 -164 52t-43 170v300q0 20 20 20h54q20 0 20 -20v-308q0 -78 22 -101q22 -24 92 -24h151q62 0 88 24q26 26 26 101v307q0 20 20 20h54q20 0 20 -20v-516q0 -111 -46 -166q-47 -56 -165 -56z" />
    <glyph glyph-name="Amacron" unicode="&#x100;" horiz-adv-x="823" 
d="M288 839h249q20 0 20 -20v-32q0 -20 -20 -20h-249q-20 0 -20 20v32q0 20 20 20zM800 0h-67q-15 0 -23 15l-60 119h-468l-61 -120q-8 -14 -23 -14h-67q-11 0 -15.5 7t0.5 17l342 668q8 14 23 14h70q15 0 23 -14l341 -668q5 -10 0.5 -17t-15.5 -7zM417 600l-193 -382h384z
" />
    <glyph glyph-name="amacron" unicode="&#x101;" horiz-adv-x="630" 
d="M447 622h-249q-20 0 -20 20v32q0 20 20 20h249q20 0 20 -20v-32q0 -20 -20 -20zM312 0h-75q-210 0 -210 155q0 83 39 121q40 39 140 49l248 27q32 5 32 40q0 48 -20.5 64.5t-82.5 16.5h-291q-20 0 -20 20v49q0 20 20 20h293q105 0 150 -38.5t45 -126.5v-377
q0 -20 -20 -20h-54q-20 0 -20 20v66q-19 -46 -58 -66q-38 -20 -116 -20zM237 87h113q77 0 106.5 29t29.5 101v55l-265 -28q-59 -6 -79 -22.5t-20 -58.5q0 -76 115 -76z" />
    <glyph glyph-name="Abreve" unicode="&#x102;" horiz-adv-x="823" 
d="M414 757q-136 0 -136 111q0 20 20 20h38q20 0 20 -10v-11q0 -29 12.5 -40t45.5 -11q34 0 46 10.5t12 39.5v2q0 20 20 20h37q20 0 20 -11v-12q0 -59 -32.5 -83.5t-102.5 -24.5zM800 0h-67q-15 0 -23 15l-60 119h-468l-61 -120q-8 -14 -23 -14h-67q-11 0 -15.5 7t0.5 17
l342 668q8 14 23 14h70q15 0 23 -14l341 -668q5 -10 0.5 -17t-15.5 -7zM417 600l-193 -382h384z" />
    <glyph glyph-name="abreve" unicode="&#x103;" horiz-adv-x="630" 
d="M319 613q-136 0 -136 111q0 20 20 20h38q20 0 20 -10v-11q0 -29 12.5 -40t45.5 -11q34 0 46 10.5t12 39.5v2q0 20 20 20h37q20 0 20 -11v-12q0 -59 -32.5 -83.5t-102.5 -24.5zM312 0h-75q-210 0 -210 155q0 83 39 121q40 39 140 49l248 27q32 5 32 40q0 48 -20.5 64.5
t-82.5 16.5h-291q-20 0 -20 20v49q0 20 20 20h293q105 0 150 -38.5t45 -126.5v-377q0 -20 -20 -20h-54q-20 0 -20 20v66q-19 -46 -58 -66q-38 -20 -116 -20zM237 87h113q77 0 106.5 29t29.5 101v55l-265 -28q-59 -6 -79 -22.5t-20 -58.5q0 -76 115 -76z" />
    <glyph glyph-name="Aogonek" unicode="&#x104;" horiz-adv-x="823" 
d="M731 -57q0 -34 13 -47t52 -15q21 -1 21 -21v-34q0 -20 -21 -20q-79 4 -109 31.5t-30 92.5q0 72 47 96l-54 108h-468l-61 -120q-8 -14 -23 -14h-67q-11 0 -15.5 7t0.5 17l342 668q8 14 23 14h70q15 0 23 -14l341 -668q12 -24 -7 -24h-20q-32 0 -44.5 -13.5t-12.5 -43.5z
M417 600l-193 -382h384z" />
    <glyph glyph-name="aogonek" unicode="&#x105;" horiz-adv-x="628" 
d="M595 -140v-34q0 -20 -21 -20q-79 4 -109 31.5t-30 92.5q0 74 51 98v58q-19 -46 -58 -66q-38 -20 -116 -20h-75q-210 0 -210 155q0 83 39 121q40 39 140 49l248 27q32 5 32 40q0 48 -20.5 64.5t-82.5 16.5h-291q-20 0 -20 20v49q0 20 20 20h293q105 0 150 -38.5t45 -126.5
v-377q0 -19 -20 -21q-29 -2 -40 -14t-11 -42q0 -34 13 -47t52 -15q21 -1 21 -21zM237 87h113q77 0 106.5 29t29.5 101v55l-265 -28q-59 -6 -79 -22.5t-20 -58.5q0 -76 115 -76z" />
    <glyph glyph-name="Cacute" unicode="&#x106;" horiz-adv-x="787" 
d="M436 759h-36q-24 0 -16 23l34 88q6 16 23 16h61q12 0 15.5 -7t-2.5 -17l-55 -90q-7 -13 -24 -13zM510 0h-223q-123 0 -180 60.5t-57 182.5v219q0 123 57 183.5t180 60.5h223q123 0 180 -60.5t57 -183.5v-8q0 -20 -20 -20h-58q-20 0 -20 16v15q0 83 -30.5 114.5
t-108.5 31.5h-223q-78 0 -108.5 -31.5t-30.5 -114.5v-225q0 -83 30.5 -114t108.5 -31h223q78 0 108.5 31t30.5 114v22q0 20 20 20h58q20 0 20 -19v-20q0 -122 -57 -182.5t-180 -60.5z" />
    <glyph glyph-name="cacute" unicode="&#x107;" horiz-adv-x="655" 
d="M358 615h-36q-24 0 -16 23l34 88q6 16 23 16h61q12 0 15.5 -7t-2.5 -17l-55 -90q-7 -13 -24 -13zM418 0h-166q-121 0 -164 52t-43 170v121q0 115 43 167t164 52h166q112 0 158 -46t49 -157q0 -21 -20 -21h-54q-20 0 -20 21q-1 68 -25 92q-22 22 -90 22h-162
q-70 0 -93 -24q-22 -23 -22 -99v-136q0 -78 22 -101q23 -24 93 -24h162q69 0 91 22t24 94q0 21 20 21h54q20 0 20 -21q-5 -115 -50 -160q-47 -45 -157 -45z" />
    <glyph glyph-name="Ccircumflex" unicode="&#x108;" horiz-adv-x="787" 
d="M269 780l70 92q9 12 24 12h80q15 0 24 -12l69 -92q7 -10 3.5 -17t-15.5 -7h-43q-14 0 -25 11l-53 61l-54 -61q-11 -11 -25 -11h-43q-13 0 -16.5 7t4.5 17zM510 0h-223q-123 0 -180 60.5t-57 182.5v219q0 123 57 183.5t180 60.5h223q123 0 180 -60.5t57 -183.5v-8
q0 -20 -20 -20h-58q-20 0 -20 16v15q0 83 -30.5 114.5t-108.5 31.5h-223q-78 0 -108.5 -31.5t-30.5 -114.5v-225q0 -83 30.5 -114t108.5 -31h223q78 0 108.5 31t30.5 114v22q0 20 20 20h58q20 0 20 -19v-20q0 -122 -57 -182.5t-180 -60.5z" />
    <glyph glyph-name="ccircumflex" unicode="&#x109;" horiz-adv-x="655" 
d="M199 637l70 92q9 12 24 12h80q15 0 24 -12l69 -92q14 -24 -12 -24h-43q-14 0 -25 11l-53 61l-54 -61q-11 -11 -25 -11h-43q-13 0 -16.5 7t4.5 17zM418 0h-166q-121 0 -164 52t-43 170v121q0 115 43 167t164 52h166q112 0 158 -46t49 -157q0 -21 -20 -21h-54q-20 0 -20 21
q-1 68 -25 92q-22 22 -90 22h-162q-70 0 -93 -24q-22 -23 -22 -99v-136q0 -78 22 -101q23 -24 93 -24h162q69 0 91 22t24 94q0 21 20 21h54q20 0 20 -21q-5 -115 -50 -160q-47 -45 -157 -45z" />
    <glyph glyph-name="Cdotaccent" unicode="&#x10a;" horiz-adv-x="787" 
d="M427 759h-48q-20 0 -20 20v88q0 20 20 20h48q20 0 20 -20v-88q0 -20 -20 -20zM510 0h-223q-123 0 -180 60.5t-57 182.5v219q0 123 57 183.5t180 60.5h223q123 0 180 -60.5t57 -183.5v-8q0 -20 -20 -20h-58q-20 0 -20 16v15q0 83 -30.5 114.5t-108.5 31.5h-223
q-78 0 -108.5 -31.5t-30.5 -114.5v-225q0 -83 30.5 -114t108.5 -31h223q78 0 108.5 31t30.5 114v22q0 20 20 20h58q20 0 20 -19v-20q0 -122 -57 -182.5t-180 -60.5z" />
    <glyph glyph-name="cdotaccent" unicode="&#x10b;" horiz-adv-x="655" 
d="M358 618h-48q-20 0 -20 20v88q0 20 20 20h48q20 0 20 -20v-88q0 -20 -20 -20zM418 0h-166q-121 0 -164 52t-43 170v121q0 115 43 167t164 52h166q112 0 158 -46t49 -157q0 -21 -20 -21h-54q-20 0 -20 21q-1 68 -25 92q-22 22 -90 22h-162q-70 0 -93 -24q-22 -23 -22 -99
v-136q0 -78 22 -101q23 -24 93 -24h162q69 0 91 22t24 94q0 21 20 21h54q20 0 20 -21q-5 -115 -50 -160q-47 -45 -157 -45z" />
    <glyph glyph-name="Ccaron" unicode="&#x10c;" horiz-adv-x="787" 
d="M442 757h-80q-15 0 -24 12l-70 92q-8 10 -4.5 17t16.5 7h43q14 0 25 -11l54 -60l53 60q11 11 25 11h43q27 0 13 -24l-70 -92q-9 -12 -24 -12zM510 0h-223q-123 0 -180 60.5t-57 182.5v219q0 123 57 183.5t180 60.5h223q123 0 180 -60.5t57 -183.5v-8q0 -20 -20 -20h-58
q-20 0 -20 16v15q0 83 -30.5 114.5t-108.5 31.5h-223q-78 0 -108.5 -31.5t-30.5 -114.5v-225q0 -83 30.5 -114t108.5 -31h223q78 0 108.5 31t30.5 114v22q0 20 20 20h58q20 0 20 -19v-20q0 -122 -57 -182.5t-180 -60.5z" />
    <glyph glyph-name="ccaron" unicode="&#x10d;" horiz-adv-x="655" 
d="M373 612h-80q-15 0 -24 12l-70 92q-8 10 -4.5 17t16.5 7h43q14 0 25 -11l54 -60l53 60q11 11 25 11h43q12 0 16 -7t-3 -17l-70 -92q-9 -12 -24 -12zM418 0h-166q-121 0 -164 52t-43 170v121q0 115 43 167t164 52h166q112 0 158 -46t49 -157q0 -21 -20 -21h-54
q-20 0 -20 21q-1 68 -25 92q-22 22 -90 22h-162q-70 0 -93 -24q-22 -23 -22 -99v-136q0 -78 22 -101q23 -24 93 -24h162q69 0 91 22t24 94q0 21 20 21h54q20 0 20 -21q-5 -115 -50 -160q-47 -45 -157 -45z" />
    <glyph glyph-name="Dcaron" unicode="&#x10e;" horiz-adv-x="800" 
d="M441 758h-80q-15 0 -24 12l-70 92q-8 10 -4.5 17t16.5 7h43q14 0 25 -11l54 -60l53 60q11 11 25 11h43q12 0 16 -7t-3 -17l-70 -92q-9 -12 -24 -12zM514 0h-431q-20 0 -20 20v666q0 20 20 20h431q126 0 181 -62.5t55 -202.5v-180q0 -139 -55 -200t-181 -61zM161 611v-517
h344q84 0 115 34q33 34 33 134v179q0 99 -32 134q-31 36 -116 36h-344z" />
    <glyph glyph-name="dcaron" unicode="&#x10f;" horiz-adv-x="814" 
d="M530 489v250q0 20 20 20h54q20 0 20 -20v-719q0 -20 -20 -20h-54q-20 0 -20 20v53q-17 -38 -54.5 -55.5t-103.5 -17.5h-120q-121 0 -164 52t-43 167v121q0 118 43 170t164 52h120q66 0 103.5 -17.5t54.5 -55.5zM672 400l75 288q5 17 23 17h64q24 0 16 -23l-105 -288
q-6 -16 -23 -16h-33q-24 0 -17 22zM254 89h162q62 0 88 24t26 99v136q0 76 -26 100q-25 25 -88 25h-162q-70 0 -93 -24q-22 -23 -22 -101v-136q0 -76 22 -99q23 -24 93 -24z" />
    <glyph glyph-name="Dcroat" unicode="&#x110;" horiz-adv-x="824" 
d="M101 706h437q236 0 236 -265v-180q0 -261 -236 -261h-437q-20 0 -20 20v291h-51q-20 0 -20 20v49q0 20 20 20h51v286q0 20 20 20zM676 262v179q0 90 -35.5 130t-111.5 40h-350v-211h216q20 0 20 -20v-49q0 -20 -20 -20h-216v-217h350q75 0 111 39.5t36 128.5z" />
    <glyph glyph-name="dslash" unicode="&#x111;" horiz-adv-x="687" 
d="M624 693h34q20 0 20 -20v-31q0 -20 -20 -20h-34v-602q0 -20 -20 -20h-54q-20 0 -20 20v53q-17 -38 -54.5 -55.5t-103.5 -17.5h-120q-121 0 -164 52t-43 167v121q0 118 43 170t164 52h120q66 0 103.5 -17.5t54.5 -55.5v133h-178q-20 0 -20 20v31q0 20 20 20h178v46
q0 20 20 20h54q20 0 20 -20v-46zM254 89h162q62 0 88 24t26 99v136q0 76 -26 100q-25 25 -88 25h-162q-70 0 -93 -24q-22 -23 -22 -101v-136q0 -76 22 -99q23 -24 93 -24z" />
    <glyph glyph-name="Emacron" unicode="&#x112;" horiz-adv-x="697" 
d="M486 765h-249q-20 0 -20 20v32q0 20 20 20h249q20 0 20 -20v-32q0 -20 -20 -20zM640 0h-557q-20 0 -20 20v666q0 20 20 20h557q20 0 20 -20v-55q0 -20 -20 -20h-479v-205h326q20 0 20 -20v-52q0 -20 -20 -20h-326v-219h479q20 0 20 -20v-55q0 -20 -20 -20z" />
    <glyph glyph-name="emacron" unicode="&#x113;" horiz-adv-x="635" 
d="M448 622h-249q-20 0 -20 20v32q0 20 20 20h249q20 0 20 -20v-32q0 -20 -20 -20zM535 0h-283q-121 0 -164 52t-43 170v121q0 115 43 167t164 52h141q120 0 163 -52q44 -53 44 -167v-90q0 -20 -20 -20h-441v-19q0 -78 22 -101q23 -24 93 -24h281q20 0 20 -20v-49
q0 -20 -20 -20zM139 350v-32h367v32q0 74 -23 99q-22 24 -92 24h-137q-70 0 -93 -24q-22 -23 -22 -99z" />
    <glyph glyph-name="Ebreve" unicode="&#x114;" horiz-adv-x="697" 
d="M366 755q-136 0 -136 111q0 20 20 20h38q20 0 20 -10v-11q0 -29 12.5 -40t45.5 -11q34 0 46 10.5t12 39.5v2q0 20 20 20h37q20 0 20 -11v-12q0 -59 -32.5 -83.5t-102.5 -24.5zM640 0h-557q-20 0 -20 20v666q0 20 20 20h557q20 0 20 -20v-55q0 -20 -20 -20h-479v-205h326
q20 0 20 -20v-52q0 -20 -20 -20h-326v-219h479q20 0 20 -20v-55q0 -20 -20 -20z" />
    <glyph glyph-name="ebreve" unicode="&#x115;" horiz-adv-x="635" 
d="M324 614q-136 0 -136 111q0 20 20 20h38q20 0 20 -10v-11q0 -29 12.5 -40t45.5 -11q34 0 46 10.5t12 39.5v2q0 20 20 20h37q20 0 20 -11v-12q0 -59 -32.5 -83.5t-102.5 -24.5zM535 0h-283q-121 0 -164 52t-43 170v121q0 115 43 167t164 52h141q120 0 163 -52
q44 -53 44 -167v-90q0 -20 -20 -20h-441v-19q0 -78 22 -101q23 -24 93 -24h281q20 0 20 -20v-49q0 -20 -20 -20zM139 350v-32h367v32q0 74 -23 99q-22 24 -92 24h-137q-70 0 -93 -24q-22 -23 -22 -99z" />
    <glyph glyph-name="Edotaccent" unicode="&#x116;" horiz-adv-x="697" 
d="M386 755h-48q-20 0 -20 20v88q0 20 20 20h48q20 0 20 -20v-88q0 -20 -20 -20zM640 0h-557q-20 0 -20 20v666q0 20 20 20h557q20 0 20 -20v-55q0 -20 -20 -20h-479v-205h326q20 0 20 -20v-52q0 -20 -20 -20h-326v-219h479q20 0 20 -20v-55q0 -20 -20 -20z" />
    <glyph glyph-name="edotaccent" unicode="&#x117;" horiz-adv-x="635" 
d="M348 619h-48q-20 0 -20 20v88q0 20 20 20h48q20 0 20 -20v-88q0 -20 -20 -20zM535 0h-283q-121 0 -164 52t-43 170v121q0 115 43 167t164 52h141q120 0 163 -52q44 -53 44 -167v-90q0 -20 -20 -20h-441v-19q0 -78 22 -101q23 -24 93 -24h281q20 0 20 -20v-49
q0 -20 -20 -20zM139 350v-32h367v32q0 74 -23 99q-22 24 -92 24h-137q-70 0 -93 -24q-22 -23 -22 -99z" />
    <glyph glyph-name="Eogonek" unicode="&#x118;" horiz-adv-x="697" 
d="M661 -140v-34q0 -20 -21 -20q-79 4 -109 31.5t-30 92.5q0 45 17 70h-435q-20 0 -20 20v666q0 20 20 20h557q20 0 20 -20v-55q0 -20 -20 -20h-479v-205h326q20 0 20 -20v-52q0 -20 -20 -20h-326v-219h479q20 0 20 -20v-55q0 -20 -21 -20q-39 -2 -51.5 -13t-12.5 -44
q0 -34 13 -47t52 -15q21 -1 21 -21z" />
    <glyph glyph-name="eogonek" unicode="&#x119;" horiz-adv-x="635" 
d="M600 343v-90q0 -20 -20 -20h-441v-19q0 -78 22 -101q23 -24 93 -24h281q20 0 20 -20v-49q0 -20 -21 -20q-38 -2 -50.5 -13t-12.5 -44q0 -34 13 -47t52 -15q21 -1 21 -21v-34q0 -20 -21 -20q-79 4 -109 31.5t-30 92.5q0 45 17 70h-162q-121 0 -164 52t-43 170v121
q0 115 43 167t164 52h141q120 0 163 -52q44 -53 44 -167zM139 350v-32h367v32q0 74 -23 99q-22 24 -92 24h-137q-70 0 -93 -24q-22 -23 -22 -99z" />
    <glyph glyph-name="Ecaron" unicode="&#x11a;" horiz-adv-x="697" 
d="M403 756h-80q-15 0 -24 12l-70 92q-8 10 -4.5 17t16.5 7h43q14 0 25 -11l54 -60l53 60q11 11 25 11h43q12 0 16 -7t-3 -17l-70 -92q-9 -12 -24 -12zM640 0h-557q-20 0 -20 20v666q0 20 20 20h557q20 0 20 -20v-55q0 -20 -20 -20h-479v-205h326q20 0 20 -20v-52
q0 -20 -20 -20h-326v-219h479q20 0 20 -20v-55q0 -20 -20 -20z" />
    <glyph glyph-name="ecaron" unicode="&#x11b;" horiz-adv-x="635" 
d="M364 613h-80q-15 0 -24 12l-70 92q-8 10 -4.5 17t16.5 7h43q14 0 25 -11l54 -60l53 60q11 11 25 11h43q27 0 13 -24l-70 -92q-9 -12 -24 -12zM535 0h-283q-121 0 -164 52t-43 170v121q0 115 43 167t164 52h141q120 0 163 -52q44 -53 44 -167v-90q0 -20 -20 -20h-441v-19
q0 -78 22 -101q23 -24 93 -24h281q20 0 20 -20v-49q0 -20 -20 -20zM139 350v-32h367v32q0 74 -23 99q-22 24 -92 24h-137q-70 0 -93 -24q-22 -23 -22 -99z" />
    <glyph glyph-name="Gcircumflex" unicode="&#x11c;" horiz-adv-x="793" 
d="M262 780l70 92q9 12 24 12h80q15 0 24 -12l69 -92q7 -10 3.5 -17t-15.5 -7h-43q-14 0 -25 11l-53 61l-54 -61q-11 -11 -25 -11h-43q-13 0 -16.5 7t4.5 17zM506 0h-227q-123 0 -180 60.5t-57 182.5v219q0 123 57 183.5t180 60.5h227q119 0 175.5 -53t61.5 -165
q0 -20 -20 -20h-58q-20 0 -20 20q-4 71 -34 97t-105 26h-227q-78 0 -108.5 -31.5t-30.5 -114.5v-225q0 -83 30.5 -114t108.5 -31h227q78 0 108.5 31t30.5 114v44h-218q-20 0 -20 20v51q0 20 20 20h296q20 0 20 -20v-112q0 -122 -57 -182.5t-180 -60.5z" />
    <glyph glyph-name="gcircumflex" unicode="&#x11d;" 
d="M200 639l70 92q9 12 24 12h80q15 0 24 -12l69 -92q14 -24 -12 -24h-43q-14 0 -25 11l-53 61l-54 -61q-11 -11 -25 -11h-43q-13 0 -16.5 7t4.5 17zM413 -197h-268q-20 0 -20 20v49q0 20 20 20h268q67 0 92 27.5t25 97.5v82q-15 -41 -52 -59.5t-106 -18.5h-120
q-121 0 -164 52t-43 170v100q0 115 43 167t164 52h120q129 0 158 -78v58q0 20 20 20h54q20 0 20 -20v-517q0 -111 -46 -166q-47 -56 -165 -56zM254 110h162q62 0 88 24t26 101v115q0 75 -26 99t-88 24h-162q-70 0 -93 -24q-22 -23 -22 -99v-115q0 -78 22 -101q23 -24 93 -24
z" />
    <glyph glyph-name="Gbreve" unicode="&#x11e;" horiz-adv-x="793" 
d="M396 756q-136 0 -136 111q0 20 20 20h38q20 0 20 -10v-11q0 -29 12.5 -40t45.5 -11q34 0 46 10.5t12 39.5v2q0 20 20 20h37q20 0 20 -11v-12q0 -59 -32.5 -83.5t-102.5 -24.5zM506 0h-227q-123 0 -180 60.5t-57 182.5v219q0 123 57 183.5t180 60.5h227q119 0 175.5 -53
t61.5 -165q0 -20 -20 -20h-58q-20 0 -20 20q-4 71 -34 97t-105 26h-227q-78 0 -108.5 -31.5t-30.5 -114.5v-225q0 -83 30.5 -114t108.5 -31h227q78 0 108.5 31t30.5 114v44h-218q-20 0 -20 20v51q0 20 20 20h296q20 0 20 -20v-112q0 -122 -57 -182.5t-180 -60.5z" />
    <glyph glyph-name="gbreve" unicode="&#x11f;" 
d="M334 611q-136 0 -136 111q0 20 20 20h38q20 0 20 -10v-11q0 -29 12.5 -40t45.5 -11q34 0 46 10.5t12 39.5v2q0 20 20 20h37q20 0 20 -11v-12q0 -59 -32.5 -83.5t-102.5 -24.5zM413 -197h-268q-20 0 -20 20v49q0 20 20 20h268q67 0 92 27.5t25 97.5v82q-15 -41 -52 -59.5
t-106 -18.5h-120q-121 0 -164 52t-43 170v100q0 115 43 167t164 52h120q129 0 158 -78v58q0 20 20 20h54q20 0 20 -20v-517q0 -111 -46 -166q-47 -56 -165 -56zM254 110h162q62 0 88 24t26 101v115q0 75 -26 99t-88 24h-162q-70 0 -93 -24q-22 -23 -22 -99v-115
q0 -78 22 -101q23 -24 93 -24z" />
    <glyph glyph-name="Gdotaccent" unicode="&#x120;" horiz-adv-x="793" 
d="M420 758h-48q-20 0 -20 20v88q0 20 20 20h48q20 0 20 -20v-88q0 -20 -20 -20zM506 0h-227q-123 0 -180 60.5t-57 182.5v219q0 123 57 183.5t180 60.5h227q119 0 175.5 -53t61.5 -165q0 -20 -20 -20h-58q-20 0 -20 20q-4 71 -34 97t-105 26h-227q-78 0 -108.5 -31.5
t-30.5 -114.5v-225q0 -83 30.5 -114t108.5 -31h227q78 0 108.5 31t30.5 114v44h-218q-20 0 -20 20v51q0 20 20 20h296q20 0 20 -20v-112q0 -122 -57 -182.5t-180 -60.5z" />
    <glyph glyph-name="gdotaccent" unicode="&#x121;" 
d="M358 619h-48q-20 0 -20 20v88q0 20 20 20h48q20 0 20 -20v-88q0 -20 -20 -20zM413 -197h-268q-20 0 -20 20v49q0 20 20 20h268q67 0 92 27.5t25 97.5v82q-15 -41 -52 -59.5t-106 -18.5h-120q-121 0 -164 52t-43 170v100q0 115 43 167t164 52h120q129 0 158 -78v58
q0 20 20 20h54q20 0 20 -20v-517q0 -111 -46 -166q-47 -56 -165 -56zM254 110h162q62 0 88 24t26 101v115q0 75 -26 99t-88 24h-162q-70 0 -93 -24q-22 -23 -22 -99v-115q0 -78 22 -101q23 -24 93 -24z" />
    <glyph glyph-name="Gcommaaccent" unicode="&#x122;" horiz-adv-x="793" 
d="M506 0h-227q-123 0 -180 60.5t-57 182.5v219q0 123 57 183.5t180 60.5h227q119 0 175.5 -53t61.5 -165q0 -20 -20 -20h-58q-20 0 -20 20q-4 71 -34 97t-105 26h-227q-78 0 -108.5 -31.5t-30.5 -114.5v-225q0 -83 30.5 -114t108.5 -31h227q78 0 108.5 31t30.5 114v44h-218
q-20 0 -20 20v51q0 20 20 20h296q20 0 20 -20v-112q0 -122 -57 -182.5t-180 -60.5zM397 -197h-31q-21 0 -17 22l21 101q3 18 22 18h54q24 0 16 -23l-42 -102q-6 -16 -23 -16z" />
    <glyph glyph-name="gcommaaccent" unicode="&#x123;" 
d="M354 756h31q21 0 17 -22l-21 -101q-3 -18 -22 -18h-54q-24 0 -16 23l42 102q6 16 23 16zM413 -197h-268q-20 0 -20 20v49q0 20 20 20h268q67 0 92 27.5t25 97.5v82q-15 -41 -52 -59.5t-106 -18.5h-120q-121 0 -164 52t-43 170v100q0 115 43 167t164 52h120q129 0 158 -78
v58q0 20 20 20h54q20 0 20 -20v-517q0 -111 -46 -166q-47 -56 -165 -56zM254 110h162q62 0 88 24t26 101v115q0 75 -26 99t-88 24h-162q-70 0 -93 -24q-22 -23 -22 -99v-115q0 -78 22 -101q23 -24 93 -24z" />
    <glyph glyph-name="Hcircumflex" unicode="&#x124;" horiz-adv-x="775" 
d="M257 780l70 92q9 12 24 12h80q15 0 24 -12l69 -92q7 -10 3.5 -17t-15.5 -7h-43q-14 0 -25 11l-53 61l-54 -61q-11 -11 -25 -11h-43q-13 0 -16.5 7t4.5 17zM141 0h-58q-20 0 -20 20v666q0 20 20 20h58q20 0 20 -20v-281h452v281q0 20 20 20h59q20 0 20 -20v-666
q0 -20 -20 -20h-59q-20 0 -20 20v294h-452v-294q0 -20 -20 -20z" />
    <glyph glyph-name="hcircumflex" unicode="&#x125;" horiz-adv-x="667" 
d="M389 822l-53 61l-54 -61q-11 -11 -25 -11h-43q-12 0 -15.5 7t3.5 17l70 92q9 12 24 12h80q15 0 24 -12l69 -92q14 -24 -12 -24h-43q-14 0 -25 11zM310 562h100q120 0 163 -52q44 -53 44 -170v-321q0 -20 -20 -20h-54q-20 0 -20 20v329q0 76 -23 101q-22 24 -92 24h-142
q-64 0 -89 -25q-25 -24 -25 -100v-328q0 -20 -20 -20h-54q-20 0 -20 20v719q0 20 20 20h54q20 0 20 -20v-250q17 38 54.5 55.5t103.5 17.5z" />
    <glyph glyph-name="Hbar" unicode="&#x126;" horiz-adv-x="816" 
d="M722 588h54q20 0 20 -20v-48q0 -20 -20 -20h-54v-480q0 -20 -20 -20h-59q-20 0 -20 20v294h-452v-294q0 -20 -20 -20h-58q-20 0 -20 20v480h-39q-20 0 -20 20v48q0 20 20 20h39v98q0 20 20 20h58q20 0 20 -20v-98h452v98q0 20 20 20h59q20 0 20 -20v-98zM171 405h452v95
h-452v-95z" />
    <glyph glyph-name="hbar" unicode="&#x127;" horiz-adv-x="680" 
d="M323 562h100q120 0 163 -52q44 -53 44 -170v-321q0 -20 -20 -20h-54q-20 0 -20 20v329q0 76 -23 101q-22 24 -92 24h-142q-64 0 -89 -25q-25 -24 -25 -100v-328q0 -20 -20 -20h-54q-20 0 -20 20v602h-41q-20 0 -20 20v31q0 20 20 20h41v46q0 20 20 20h54q20 0 20 -20v-46
h173q20 0 20 -20v-31q0 -20 -20 -20h-173v-133q17 38 54.5 55.5t103.5 17.5z" />
    <glyph glyph-name="Itilde" unicode="&#x128;" horiz-adv-x="218" 
d="M10 774q-24 -10 -24 14v34q0 16 14 24q45 21 107 -2q18 -6 34 -10q38 -9 72 7q24 11 24 -13v-34q0 -16 -14 -24q-21 -11 -48 -13q-23 -1 -37 2q-3 1 -8 3t-14 5l-15 5q-52 19 -91 2zM141 0h-58q-20 0 -20 20v666q0 20 20 20h58q20 0 20 -20v-666q0 -20 -20 -20z" />
    <glyph glyph-name="itilde" unicode="&#x129;" horiz-adv-x="204" 
d="M-1 633q-24 -11 -24 14v34q0 17 15 24q46 22 109 -2q18 -6 34 -10q38 -9 74 7q24 10 24 -13v-34q0 -16 -14 -24q-23 -11 -49 -13q-23 -1 -37 2l-38 13q-54 19 -94 2zM129 0h-54q-20 0 -20 20v522q0 20 20 20h54q20 0 20 -20v-522q0 -20 -20 -20z" />
    <glyph glyph-name="Imacron" unicode="&#x12a;" horiz-adv-x="219" 
d="M208 766h-195q-20 0 -20 20v32q0 20 20 20h195q20 0 20 -20v-32q0 -20 -20 -20zM141 0h-58q-20 0 -20 20v666q0 20 20 20h58q20 0 20 -20v-666q0 -20 -20 -20z" />
    <glyph glyph-name="imacron" unicode="&#x12b;" horiz-adv-x="204" 
d="M193 621h-187q-20 0 -20 20v32q0 20 20 20h187q20 0 20 -20v-32q0 -20 -20 -20zM129 0h-54q-20 0 -20 20v522q0 20 20 20h54q20 0 20 -20v-522q0 -20 -20 -20z" />
    <glyph glyph-name="Ibreve" unicode="&#x12c;" horiz-adv-x="219" 
d="M111 756q-136 0 -136 111q0 20 20 20h38q20 0 20 -10v-11q0 -29 12.5 -40t45.5 -11q34 0 46 10.5t12 39.5v2q0 20 20 20h37q20 0 20 -11v-12q0 -59 -32.5 -83.5t-102.5 -24.5zM141 0h-58q-20 0 -20 20v666q0 20 20 20h58q20 0 20 -20v-666q0 -20 -20 -20z" />
    <glyph glyph-name="ibreve" unicode="&#x12d;" horiz-adv-x="207" 
d="M104 611q-136 0 -136 111q0 20 20 20h38q20 0 20 -10v-11q0 -29 12.5 -40t45.5 -11q34 0 46 10.5t12 39.5v2q0 20 20 20h37q20 0 20 -11v-12q0 -59 -32.5 -83.5t-102.5 -24.5zM131 0h-54q-20 0 -20 20v522q0 20 20 20h54q20 0 20 -20v-522q0 -20 -20 -20z" />
    <glyph glyph-name="Iogonek" unicode="&#x12e;" horiz-adv-x="221" 
d="M169 -140v-34q0 -20 -21 -20q-79 4 -109 31.5t-30 92.5q0 76 54 99v657q0 20 20 20h58q20 0 20 -20v-666q0 -20 -21 -20q-33 -2 -45 -13.5t-12 -43.5q0 -34 13 -47t52 -15q21 -1 21 -21z" />
    <glyph glyph-name="iogonek" unicode="&#x12f;" horiz-adv-x="206" 
d="M77 759h54q20 0 20 -20v-95q0 -20 -20 -20h-54q-20 0 -20 20v95q0 20 20 20zM70 -57q0 -34 13 -47t52 -15q21 -1 21 -21v-34q0 -20 -21 -20q-79 4 -109 31.5t-30 92.5q0 81 61 102v510q0 20 20 20h54q20 0 20 -20v-522q0 -19 -26 -21q-32 -2 -43.5 -13.5t-11.5 -42.5z
" />
    <glyph glyph-name="Idot" unicode="&#x130;" horiz-adv-x="221" 
d="M132 761h-48q-20 0 -20 20v88q0 20 20 20h48q20 0 20 -20v-88q0 -20 -20 -20zM141 0h-58q-20 0 -20 20v666q0 20 20 20h58q20 0 20 -20v-666q0 -20 -20 -20z" />
    <glyph glyph-name="dotlessi" unicode="&#x131;" horiz-adv-x="208" 
d="M131 0h-54q-20 0 -20 20v522q0 20 20 20h54q20 0 20 -20v-522q0 -20 -20 -20z" />
    <glyph glyph-name="Jcircumflex" unicode="&#x134;" horiz-adv-x="760" 
d="M258 782l70 92q9 12 24 12h80q15 0 24 -12l69 -92q7 -10 3.5 -17t-15.5 -7h-43q-14 0 -25 11l-53 61l-54 -61q-11 -11 -25 -11h-43q-13 0 -16.5 7t4.5 17zM473 0h-186q-123 0 -180 60.5t-57 182.5v69q0 20 20 20h58q20 0 20 -20v-72q0 -83 30.5 -114t108.5 -31h186
q78 0 108 31t30 114v446q0 20 20 20h59q20 0 20 -20v-443q0 -122 -57 -182.5t-180 -60.5z" />
    <glyph glyph-name="jcircumflex" unicode="&#x135;" horiz-adv-x="208" 
d="M-26 636l70 92q9 12 24 12h80q15 0 24 -12l69 -92q7 -10 3.5 -17t-15.5 -7h-43q-14 0 -25 11l-53 61l-54 -61q-11 -11 -25 -11h-43q-13 0 -16.5 7t4.5 17zM133 -197h-54q-20 0 -20 20v719q0 20 20 20h54q20 0 20 -20v-719q0 -20 -20 -20z" />
    <glyph glyph-name="Kcommaaccent" unicode="&#x136;" horiz-adv-x="745" 
d="M141 0h-58q-20 0 -20 20v666q0 20 20 20h58q20 0 20 -20v-287h161l280 296q11 11 25 11h73q13 0 16.5 -7.5t-5.5 -17.5l-306 -326l306 -330q9 -10 5.5 -17.5t-16.5 -7.5h-72q-14 0 -25 11l-281 295h-161v-286q0 -20 -20 -20zM368 -197h-31q-21 0 -17 22l21 101
q3 18 22 18h54q24 0 16 -23l-42 -102q-6 -16 -23 -16z" />
    <glyph glyph-name="kcommaaccent" unicode="&#x137;" horiz-adv-x="616" 
d="M133 0h-54q-20 0 -20 20v719q0 20 20 20h54q20 0 20 -20v-416h123l211 228q11 11 25 11h71q13 0 16.5 -7.5t-5.5 -17.5l-235 -256l233 -256q9 -10 5.5 -17.5t-16.5 -7.5h-70q-14 0 -25 11l-210 226h-123v-217q0 -20 -20 -20zM288 -197h-31q-21 0 -17 22l21 101
q3 18 22 18h54q24 0 16 -23l-42 -102q-6 -16 -23 -16z" />
    <glyph glyph-name="kgreenlandic" unicode="&#x138;" horiz-adv-x="616" 
d="M133 0h-54q-20 0 -20 20v522q0 20 20 20h54q20 0 20 -20v-219h123l211 228q11 11 25 11h71q13 0 16.5 -7.5t-5.5 -17.5l-235 -256l233 -256q9 -10 5.5 -17.5t-16.5 -7.5h-70q-14 0 -25 11l-210 226h-123v-217q0 -20 -20 -20z" />
    <glyph glyph-name="Lacute" unicode="&#x139;" horiz-adv-x="648" 
d="M136 759h-36q-24 0 -16 23l34 88q6 16 23 16h61q12 0 15.5 -7t-2.5 -17l-55 -90q-7 -13 -24 -13zM616 0h-533q-20 0 -20 20v666q0 20 20 20h58q20 0 20 -20v-591h455q20 0 20 -20v-55q0 -20 -20 -20z" />
    <glyph glyph-name="lacute" unicode="&#x13a;" horiz-adv-x="209" 
d="M126 809h-36q-24 0 -16 23l34 88q6 16 23 16h61q12 0 15.5 -7t-2.5 -17l-55 -90q-7 -13 -24 -13zM131 0h-54q-20 0 -20 20v719q0 20 20 20h54q20 0 20 -20v-719q0 -20 -20 -20z" />
    <glyph glyph-name="Lcommaaccent" unicode="&#x13b;" horiz-adv-x="648" 
d="M616 0h-533q-20 0 -20 20v666q0 20 20 20h58q20 0 20 -20v-591h455q20 0 20 -20v-55q0 -20 -20 -20zM323 -197h-31q-21 0 -17 22l21 101q3 18 22 18h54q24 0 16 -23l-42 -102q-6 -16 -23 -16z" />
    <glyph glyph-name="lcommaaccent" unicode="&#x13c;" horiz-adv-x="277" 
d="M131 0h-54q-20 0 -20 20v719q0 20 20 20h54q20 0 20 -20v-719q0 -20 -20 -20zM119 -197h-31q-21 0 -17 22l21 101q3 18 22 18h54q24 0 16 -23l-42 -102q-6 -16 -23 -16z" />
    <glyph glyph-name="Lcaron" unicode="&#x13d;" horiz-adv-x="648" 
d="M616 0h-533q-20 0 -20 20v666q0 20 20 20h58q20 0 20 -20v-591h455q20 0 20 -20v-55q0 -20 -20 -20zM389 353h-41q-24 0 -17 22l75 284q5 17 22 17h64q24 0 16 -23l-96 -284q-6 -16 -23 -16z" />
    <glyph glyph-name="lcaron" unicode="&#x13e;" horiz-adv-x="335" 
d="M130 0h-55q-20 0 -20 20v719q0 20 20 20h55q20 0 20 -20v-719q0 -20 -20 -20zM250 378h-33q-24 0 -17 22l76 288q5 17 22 17h64q24 0 16 -23l-105 -288q-6 -16 -23 -16z" />
    <glyph glyph-name="Ldot" unicode="&#x13f;" horiz-adv-x="648" 
d="M616 0h-533q-20 0 -20 20v666q0 20 20 20h58q20 0 20 -20v-591h455q20 0 20 -20v-55q0 -20 -20 -20zM445 311h-58q-20 0 -20 20v120q0 20 20 20h58q20 0 20 -20v-120q0 -20 -20 -20z" />
    <glyph glyph-name="ldot" unicode="&#x140;" horiz-adv-x="468" 
d="M131 0h-54q-20 0 -20 20v719q0 20 20 20h54q20 0 20 -20v-719q0 -20 -20 -20zM359 208h-58q-20 0 -20 20v120q0 20 20 20h58q20 0 20 -20v-120q0 -20 -20 -20z" />
    <glyph glyph-name="Lslash" unicode="&#x141;" horiz-adv-x="655" 
d="M168 286v-191h455q20 0 20 -20v-55q0 -20 -20 -20h-533q-20 0 -20 20v233l-45 -15q-23 -8 -23 16v51q0 17 16 23l52 17v341q0 20 20 20h58q20 0 20 -20v-308l207 70q23 8 23 -16v-51q0 -17 -16 -23z" />
    <glyph glyph-name="lslash" unicode="&#x142;" horiz-adv-x="228" 
d="M162 409l36 12q23 8 23 -16v-40q0 -17 -16 -23l-43 -14v-308q0 -20 -20 -20h-55q-20 0 -20 20v277l-37 -12q-23 -8 -23 16v40q0 16 16 22l44 15v361q0 20 20 20h55q20 0 20 -20v-330z" />
    <glyph glyph-name="Nacute" unicode="&#x143;" horiz-adv-x="787" 
d="M416 758h-36q-24 0 -16 23l34 88q6 16 23 16h61q26 0 13 -24l-55 -90q-7 -13 -24 -13zM141 0h-58q-20 0 -20 20v666q0 20 20 20h63q16 0 25 -12l455 -551v543q0 20 20 20h58q20 0 20 -20v-666q0 -20 -20 -20h-65q-16 0 -25 12l-453 548v-540q0 -20 -20 -20z" />
    <glyph glyph-name="nacute" unicode="&#x144;" horiz-adv-x="666" 
d="M380 741h61q26 0 13 -24l-55 -90q-7 -13 -24 -13h-36q-24 0 -16 23l34 88q6 16 23 16zM310 562h99q120 0 163 -52q44 -53 44 -170v-321q0 -20 -20 -20h-54q-20 0 -20 20v329q0 76 -23 101q-23 24 -91 24h-142q-64 0 -89 -25q-26 -24 -26 -100v-328q0 -20 -20 -20h-54
q-20 0 -20 20v522q0 20 20 20h54q20 0 20 -20v-53q33 73 159 73z" />
    <glyph glyph-name="Ncommaaccent" unicode="&#x145;" horiz-adv-x="787" 
d="M141 0h-58q-20 0 -20 20v666q0 20 20 20h63q16 0 25 -12l455 -551v543q0 20 20 20h58q20 0 20 -20v-666q0 -20 -20 -20h-65q-16 0 -25 12l-453 548v-540q0 -20 -20 -20zM365 -197h-31q-21 0 -17 22l21 101q3 18 22 18h54q24 0 16 -23l-42 -102q-6 -16 -23 -16z" />
    <glyph glyph-name="ncommaaccent" unicode="&#x146;" horiz-adv-x="666" 
d="M310 562h99q120 0 163 -52q44 -53 44 -170v-321q0 -20 -20 -20h-54q-20 0 -20 20v329q0 76 -23 101q-23 24 -91 24h-142q-64 0 -89 -25q-26 -24 -26 -100v-328q0 -20 -20 -20h-54q-20 0 -20 20v522q0 20 20 20h54q20 0 20 -20v-53q33 73 159 73zM313 -197h-31
q-21 0 -17 22l21 101q3 18 22 18h54q24 0 16 -23l-42 -102q-6 -16 -23 -16z" />
    <glyph glyph-name="Ncaron" unicode="&#x147;" horiz-adv-x="787" 
d="M433 758h-80q-15 0 -24 12l-70 92q-8 10 -4.5 17t16.5 7h43q14 0 25 -11l54 -60l53 60q11 11 25 11h43q12 0 16 -7t-3 -17l-70 -92q-9 -12 -24 -12zM141 0h-58q-20 0 -20 20v666q0 20 20 20h63q16 0 25 -12l455 -551v543q0 20 20 20h58q20 0 20 -20v-666q0 -20 -20 -20
h-65q-16 0 -25 12l-453 548v-540q0 -20 -20 -20z" />
    <glyph glyph-name="ncaron" unicode="&#x148;" horiz-adv-x="666" 
d="M473 717l-69 -92q-9 -12 -24 -12h-80q-15 0 -24 12l-70 92q-8 10 -4.5 17t16.5 7h43q14 0 25 -11l54 -60l53 60q11 11 25 11h43q26 0 12 -24zM310 562h99q120 0 163 -52q44 -53 44 -170v-321q0 -20 -20 -20h-54q-20 0 -20 20v329q0 76 -23 101q-23 24 -91 24h-142
q-64 0 -89 -25q-26 -24 -26 -100v-328q0 -20 -20 -20h-54q-20 0 -20 20v522q0 20 20 20h54q20 0 20 -20v-53q33 73 159 73z" />
    <glyph glyph-name="Eng" unicode="&#x14a;" horiz-adv-x="776" 
d="M476 -197h-158q-20 0 -20 20v55q0 20 20 20h158q64 0 97.5 24t39.5 78l-452 560v-540q0 -20 -20 -20h-58q-20 0 -20 20v666q0 20 20 20h63q15 0 24 -12l444 -551v543q0 20 20 20h59q20 0 20 -20v-653q0 -111 -60 -170.5t-177 -59.5z" />
    <glyph glyph-name="eng" unicode="&#x14b;" horiz-adv-x="667" 
d="M310 562h100q120 0 163 -52q44 -53 44 -170v-517q0 -20 -20 -20h-55q-20 0 -20 20v525q0 76 -23 101q-23 24 -91 24h-142q-64 0 -89 -25q-26 -24 -26 -100v-328q0 -20 -20 -20h-54q-20 0 -20 20v522q0 20 20 20h54q20 0 20 -20v-54q33 74 159 74z" />
    <glyph glyph-name="Omacron" unicode="&#x14c;" horiz-adv-x="825" 
d="M537 767h-249q-20 0 -20 20v32q0 20 20 20h249q20 0 20 -20v-32q0 -20 -20 -20zM538 0h-251q-123 0 -180 60.5t-57 182.5v219q0 123 57 183.5t180 60.5h251q123 0 180 -60.5t57 -183.5v-219q0 -122 -57 -182.5t-180 -60.5zM287 95h251q78 0 108.5 31t30.5 114v225
q0 84 -31 115q-30 31 -108 31h-251q-78 0 -108.5 -31.5t-30.5 -114.5v-225q0 -83 30.5 -114t108.5 -31z" />
    <glyph glyph-name="omacron" unicode="&#x14d;" horiz-adv-x="670" 
d="M456 620h-249q-20 0 -20 20v32q0 20 20 20h249q20 0 20 -20v-32q0 -20 -20 -20zM418 0h-166q-121 0 -164 52t-43 170v121q0 115 43 167t164 52h166q120 0 163 -52q44 -53 44 -167v-121q0 -117 -44 -170q-43 -52 -163 -52zM254 89h162q70 0 92 24q23 25 23 101v136
q0 74 -23 99q-22 24 -92 24h-162q-70 0 -93 -24q-22 -23 -22 -99v-136q0 -78 22 -101q23 -24 93 -24z" />
    <glyph glyph-name="Obreve" unicode="&#x14e;" horiz-adv-x="825" 
d="M413 759q-136 0 -136 111q0 20 20 20h38q20 0 20 -10v-11q0 -29 12.5 -40t45.5 -11q34 0 46 10.5t12 39.5v2q0 20 20 20h37q20 0 20 -11v-12q0 -59 -32.5 -83.5t-102.5 -24.5zM538 0h-251q-123 0 -180 60.5t-57 182.5v219q0 123 57 183.5t180 60.5h251q123 0 180 -60.5
t57 -183.5v-219q0 -122 -57 -182.5t-180 -60.5zM287 95h251q78 0 108.5 31t30.5 114v225q0 84 -31 115q-30 31 -108 31h-251q-78 0 -108.5 -31.5t-30.5 -114.5v-225q0 -83 30.5 -114t108.5 -31z" />
    <glyph glyph-name="obreve" unicode="&#x14f;" horiz-adv-x="670" 
d="M332 612q-136 0 -136 111q0 20 20 20h38q20 0 20 -10v-11q0 -29 12.5 -40t45.5 -11q34 0 46 10.5t12 39.5v2q0 20 20 20h37q20 0 20 -11v-12q0 -59 -32.5 -83.5t-102.5 -24.5zM418 0h-166q-121 0 -164 52t-43 170v121q0 115 43 167t164 52h166q120 0 163 -52
q44 -53 44 -167v-121q0 -117 -44 -170q-43 -52 -163 -52zM254 89h162q70 0 92 24q23 25 23 101v136q0 74 -23 99q-22 24 -92 24h-162q-70 0 -93 -24q-22 -23 -22 -99v-136q0 -78 22 -101q23 -24 93 -24z" />
    <glyph glyph-name="Ohungarumlaut" unicode="&#x150;" horiz-adv-x="825" 
d="M353 758h-31q-24 0 -16 23l33 88q6 16 23 16h50q11 0 15 -7t-1 -17l-49 -89q-8 -14 -24 -14zM524 758h-30q-24 0 -16 23l32 88q6 16 23 16h51q11 0 15.5 -7t-1.5 -17l-50 -89q-8 -14 -24 -14zM538 0h-251q-123 0 -180 60.5t-57 182.5v219q0 123 57 183.5t180 60.5h251
q123 0 180 -60.5t57 -183.5v-219q0 -122 -57 -182.5t-180 -60.5zM287 95h251q78 0 108.5 31t30.5 114v225q0 84 -31 115q-30 31 -108 31h-251q-78 0 -108.5 -31.5t-30.5 -114.5v-225q0 -83 30.5 -114t108.5 -31z" />
    <glyph glyph-name="ohungarumlaut" unicode="&#x151;" horiz-adv-x="670" 
d="M253 613h-31q-24 0 -16 23l33 88q6 16 23 16h50q11 0 15 -7t-1 -17l-49 -89q-8 -14 -24 -14zM424 613h-30q-24 0 -16 23l32 88q6 16 23 16h51q11 0 15.5 -7t-1.5 -17l-50 -89q-8 -14 -24 -14zM418 0h-166q-121 0 -164 52t-43 170v121q0 115 43 167t164 52h166
q120 0 163 -52q44 -53 44 -167v-121q0 -117 -44 -170q-43 -52 -163 -52zM254 89h162q70 0 92 24q23 25 23 101v136q0 74 -23 99q-22 24 -92 24h-162q-70 0 -93 -24q-22 -23 -22 -99v-136q0 -78 22 -101q23 -24 93 -24z" />
    <glyph glyph-name="OE" unicode="&#x152;" horiz-adv-x="1305" 
d="M487 0h-200q-123 0 -180 60.5t-57 182.5v219q0 123 57 183.5t180 60.5h200q138 0 184 -82v62q0 20 20 20h557q20 0 20 -20v-55q0 -20 -20 -20h-479v-207h326q20 0 20 -20v-48q0 -20 -20 -20h-326v-221h479q20 0 20 -20v-55q0 -20 -20 -20h-557q-20 0 -20 20v62
q-46 -82 -184 -82zM287 95h246q74 0 106 28t32 97v265q0 70 -32 98t-106 28h-246q-78 0 -108.5 -31.5t-30.5 -114.5v-225q0 -83 30.5 -114t108.5 -31z" />
    <glyph glyph-name="oe" unicode="&#x153;" horiz-adv-x="1118" 
d="M1083 343v-90q0 -20 -20 -20h-441v-19q0 -78 22 -101q22 -24 93 -24h283q20 0 20 -20v-49q0 -20 -20 -20h-275q-72 0 -111.5 19t-57.5 59q-34 -78 -170 -78h-156q-120 0 -163 52q-44 53 -44 170v121q0 114 44 167q43 52 163 52h156q136 0 170 -78q18 40 57.5 59t111.5 19
h131q120 0 163 -52q44 -53 44 -167zM529 214v136q0 74 -23 99q-22 24 -91 24h-163q-70 0 -93 -24q-22 -23 -22 -99v-136q0 -78 22 -101q23 -24 93 -24h163q69 0 91 24q23 25 23 101zM622 350v-32h367v32q0 74 -23 99q-22 24 -92 24h-137q-71 0 -93 -24q-22 -23 -22 -99z" />
    <glyph glyph-name="Racute" unicode="&#x154;" horiz-adv-x="767" 
d="M394 887h61q26 0 13 -24l-55 -90q-7 -13 -24 -13h-36q-24 0 -16 23l34 88q6 16 23 16zM725 462v-12q0 -102 -37 -157t-123 -73l137 -196q7 -10 3 -17t-16 -7h-69q-15 0 -24 13l-134 197h-301v-190q0 -20 -20 -20h-58q-20 0 -20 20v666q0 20 20 20h362q155 0 217 -58
q63 -58 63 -186zM626 451v10q0 90 -40 120q-39 30 -147 30h-278v-307h278q107 0 147 29q40 28 40 118z" />
    <glyph glyph-name="racute" unicode="&#x155;" horiz-adv-x="432" 
d="M276 741h61q26 0 13 -24l-55 -90q-7 -13 -24 -13h-36q-24 0 -16 23l34 88q6 16 23 16zM310 562h92q20 0 20 -20v-49q0 -20 -20 -20h-136q-64 0 -89 -25q-26 -24 -26 -100v-328q0 -20 -20 -20h-54q-20 0 -20 20v522q0 20 20 20h54q20 0 20 -20v-53q33 73 159 73z" />
    <glyph glyph-name="Rcommaaccent" unicode="&#x156;" horiz-adv-x="767" 
d="M725 462v-12q0 -102 -37 -157t-123 -73l137 -196q7 -10 3 -17t-16 -7h-69q-15 0 -24 13l-134 197h-301v-190q0 -20 -20 -20h-58q-20 0 -20 20v666q0 20 20 20h362q155 0 217 -58q63 -58 63 -186zM626 451v10q0 90 -40 120q-39 30 -147 30h-278v-307h278q107 0 147 29
q40 28 40 118zM368 -197h-31q-21 0 -17 22l21 101q3 18 22 18h54q24 0 16 -23l-42 -102q-6 -16 -23 -16z" />
    <glyph glyph-name="rcommaaccent" unicode="&#x157;" horiz-adv-x="432" 
d="M310 562h92q20 0 20 -20v-49q0 -20 -20 -20h-136q-64 0 -89 -25q-26 -24 -26 -100v-328q0 -20 -20 -20h-54q-20 0 -20 20v522q0 20 20 20h54q20 0 20 -20v-53q33 73 159 73zM117 -197h-31q-21 0 -17 22l21 101q3 18 22 18h54q24 0 16 -23l-42 -102q-6 -16 -23 -16z" />
    <glyph glyph-name="Rcaron" unicode="&#x158;" horiz-adv-x="767" 
d="M505 861l-69 -92q-9 -12 -24 -12h-80q-15 0 -24 12l-70 92q-8 10 -4.5 17t16.5 7h43q14 0 25 -11l54 -60l53 60q11 11 25 11h43q26 0 12 -24zM725 462v-12q0 -102 -37 -157t-123 -73l137 -196q7 -10 3 -17t-16 -7h-69q-15 0 -24 13l-134 197h-301v-190q0 -20 -20 -20h-58
q-20 0 -20 20v666q0 20 20 20h362q155 0 217 -58q63 -58 63 -186zM626 451v10q0 90 -40 120q-39 30 -147 30h-278v-307h278q107 0 147 29q40 28 40 118z" />
    <glyph glyph-name="rcaron" unicode="&#x159;" horiz-adv-x="432" 
d="M377 718l-69 -92q-9 -12 -24 -12h-80q-15 0 -24 12l-70 92q-8 10 -4.5 17t16.5 7h43q14 0 25 -11l54 -60l53 60q11 11 25 11h43q12 0 15.5 -7t-3.5 -17zM310 562h92q20 0 20 -20v-49q0 -20 -20 -20h-136q-64 0 -89 -25q-26 -24 -26 -100v-328q0 -20 -20 -20h-54
q-20 0 -20 20v522q0 20 20 20h54q20 0 20 -20v-53q33 73 159 73z" />
    <glyph glyph-name="Sacute" unicode="&#x15a;" horiz-adv-x="755" 
d="M385 757h-36q-24 0 -16 23l34 88q6 16 23 16h61q12 0 15.5 -7t-2.5 -17l-55 -90q-7 -13 -24 -13zM470 0h-191q-122 0 -177 51.5t-60 166.5q0 20 20 20h58q20 0 20 -20q4 -70 34 -97q32 -26 105 -26h191q82 0 114 23t32 83q0 55 -29 75t-103 26l-219 18q-120 9 -169 49
t-49 137q0 104 56.5 152t186.5 48h176q122 0 177 -51.5t60 -166.5q0 -20 -20 -20h-58q-20 0 -20 20q-5 71 -35 96q-30 27 -104 27h-175q-84 0 -116 -23q-31 -22 -31 -83q0 -55 28 -74t103 -25l219 -17q118 -9 168 -51q51 -42 51 -137q0 -106 -56.5 -153.5t-186.5 -47.5z" />
    <glyph glyph-name="sacute" unicode="&#x15b;" horiz-adv-x="597" 
d="M328 613h-36q-24 0 -16 23l34 88q6 16 23 16h61q12 0 15.5 -7t-2.5 -17l-55 -90q-7 -13 -24 -13zM357 0h-285q-20 0 -20 20v49q0 20 20 20h286q66 0 90 15t24 54t-19 52q-19 14 -79 20l-168 17q-92 9 -129 46.5t-37 115.5q0 79 48 116t153 37h278q20 0 20 -20v-49
q0 -20 -20 -20h-276q-60 0 -84.5 -16t-24.5 -55q0 -36 17 -49.5t71 -19.5l166 -18q103 -10 141 -50q38 -38 38 -115q0 -81 -48.5 -115.5t-161.5 -34.5z" />
    <glyph glyph-name="Scircumflex" unicode="&#x15c;" horiz-adv-x="755" 
d="M235 780l70 92q9 12 24 12h80q15 0 24 -12l69 -92q7 -10 3.5 -17t-15.5 -7h-43q-14 0 -25 11l-53 61l-54 -61q-11 -11 -25 -11h-43q-13 0 -16.5 7t4.5 17zM470 0h-191q-122 0 -177 51.5t-60 166.5q0 20 20 20h58q20 0 20 -20q4 -70 34 -97q32 -26 105 -26h191
q82 0 114 23t32 83q0 55 -29 75t-103 26l-219 18q-120 9 -169 49t-49 137q0 104 56.5 152t186.5 48h176q122 0 177 -51.5t60 -166.5q0 -20 -20 -20h-58q-20 0 -20 20q-5 71 -35 96q-30 27 -104 27h-175q-84 0 -116 -23q-31 -22 -31 -83q0 -55 28 -74t103 -25l219 -17
q118 -9 168 -51q51 -42 51 -137q0 -106 -56.5 -153.5t-186.5 -47.5z" />
    <glyph glyph-name="scircumflex" unicode="&#x15d;" horiz-adv-x="597" 
d="M167 636l70 92q9 12 24 12h80q15 0 24 -12l69 -92q7 -10 3.5 -17t-15.5 -7h-43q-14 0 -25 11l-53 61l-54 -61q-11 -11 -25 -11h-43q-13 0 -16.5 7t4.5 17zM357 0h-285q-20 0 -20 20v49q0 20 20 20h286q66 0 90 15t24 54t-19 52q-19 14 -79 20l-168 17q-92 9 -129 46.5
t-37 115.5q0 79 48 116t153 37h278q20 0 20 -20v-49q0 -20 -20 -20h-276q-60 0 -84.5 -16t-24.5 -55q0 -36 17 -49.5t71 -19.5l166 -18q103 -10 141 -50q38 -38 38 -115q0 -81 -48.5 -115.5t-161.5 -34.5z" />
    <glyph glyph-name="Scedilla" unicode="&#x15e;" horiz-adv-x="755" 
d="M275 406l219 -17q118 -9 168 -51q51 -42 51 -137q0 -106 -56.5 -153.5t-186.5 -47.5h-52l-39 -165q-5 -17 -22 -17h-63q-24 0 -16 23l58 159h-57q-122 0 -177 51.5t-60 166.5q0 20 20 20h58q20 0 20 -20q4 -70 34 -97q32 -26 105 -26h191q82 0 114 23t32 83q0 55 -29 75
t-103 26l-219 18q-120 9 -169 49t-49 137q0 104 56.5 152t186.5 48h176q122 0 177 -51.5t60 -166.5q0 -20 -20 -20h-58q-20 0 -20 20q-5 71 -35 96q-30 27 -104 27h-175q-84 0 -116 -23q-31 -22 -31 -83q0 -55 28 -74t103 -25z" />
    <glyph glyph-name="scedilla" unicode="&#x15f;" horiz-adv-x="597" 
d="M222 333l166 -18q103 -10 141 -50q38 -38 38 -115q0 -81 -48.5 -115.5t-161.5 -34.5h-19l-39 -165q-5 -17 -22 -17h-63q-24 0 -16 23l58 159h-184q-20 0 -20 20v49q0 20 20 20h286q66 0 90 15t24 54t-19 52q-19 14 -79 20l-168 17q-92 9 -129 46.5t-37 115.5q0 79 48 116
t153 37h278q20 0 20 -20v-49q0 -20 -20 -20h-276q-60 0 -84.5 -16t-24.5 -55q0 -36 17 -49.5t71 -19.5z" />
    <glyph glyph-name="Scaron" unicode="&#x160;" horiz-adv-x="755" 
d="M404 757h-80q-15 0 -24 12l-70 92q-8 10 -4.5 17t16.5 7h43q14 0 25 -11l54 -60l53 60q11 11 25 11h43q27 0 13 -24l-70 -92q-9 -12 -24 -12zM470 0h-191q-122 0 -177 51.5t-60 166.5q0 20 20 20h58q20 0 20 -20q4 -70 34 -97q32 -26 105 -26h191q82 0 114 23t32 83
q0 55 -29 75t-103 26l-219 18q-120 9 -169 49t-49 137q0 104 56.5 152t186.5 48h176q122 0 177 -51.5t60 -166.5q0 -20 -20 -20h-58q-20 0 -20 20q-5 71 -35 96q-30 27 -104 27h-175q-84 0 -116 -23q-31 -22 -31 -83q0 -55 28 -74t103 -25l219 -17q118 -9 168 -51
q51 -42 51 -137q0 -106 -56.5 -153.5t-186.5 -47.5z" />
    <glyph glyph-name="scaron" unicode="&#x161;" horiz-adv-x="597" 
d="M340 613h-80q-15 0 -24 12l-70 92q-8 10 -4.5 17t16.5 7h43q14 0 25 -11l54 -60l53 60q11 11 25 11h43q27 0 13 -24l-70 -92q-9 -12 -24 -12zM357 0h-285q-20 0 -20 20v49q0 20 20 20h286q66 0 90 15t24 54t-19 52q-19 14 -79 20l-168 17q-92 9 -129 46.5t-37 115.5
q0 79 48 116t153 37h278q20 0 20 -20v-49q0 -20 -20 -20h-276q-60 0 -84.5 -16t-24.5 -55q0 -36 17 -49.5t71 -19.5l166 -18q103 -10 141 -50q38 -38 38 -115q0 -81 -48.5 -115.5t-161.5 -34.5z" />
    <glyph glyph-name="uni0162" unicode="&#x162;" horiz-adv-x="456" 
d="M357 0h-59q-20 0 -20 20v591h-241q-20 0 -20 20v55q0 20 20 20h581q20 0 20 -20v-55q0 -20 -20 -20h-241v-591q0 -20 -20 -20zM303 -197h-31q-21 0 -17 22l21 101q3 18 22 18h54q24 0 16 -23l-42 -102q-6 -16 -23 -16z" />
    <glyph glyph-name="uni0163" unicode="&#x163;" horiz-adv-x="471" 
d="M421 0h-102q-129 0 -176 50q-46 49 -46 162v263h-62q-20 0 -20 20v47q0 20 20 20q36 0 50 3.5t25 16.5t13 31.5t2 71.5q0 21 20 21h26q20 0 20 -20v-124h230q20 0 20 -20v-47q0 -20 -20 -20h-230v-271q0 -67 26 -93q27 -24 102 -24h102q20 0 20 -20v-47q0 -20 -20 -20z
M272 -197h-31q-21 0 -17 22l21 101q3 18 22 18h54q24 0 16 -23l-42 -102q-6 -16 -23 -16z" />
    <glyph glyph-name="Tcaron" unicode="&#x164;" horiz-adv-x="655" 
d="M368 756h-80q-15 0 -24 12l-70 92q-8 10 -4.5 17t16.5 7h43q14 0 25 -11l54 -60l53 60q11 11 25 11h43q12 0 16 -7t-3 -17l-70 -92q-9 -12 -24 -12zM357 0h-59q-20 0 -20 20v591h-241q-20 0 -20 20v55q0 20 20 20h581q20 0 20 -20v-55q0 -20 -20 -20h-241v-591
q0 -20 -20 -20z" />
    <glyph glyph-name="tcaron" unicode="&#x165;" horiz-adv-x="492" 
d="M393 617h-31q-21 0 -17 22l21 101q3 18 22 18h54q24 0 16 -23l-42 -102q-6 -16 -23 -16zM421 0h-102q-129 0 -176 50q-46 49 -46 162v263h-62q-20 0 -20 20v47q0 20 20 20q36 0 50 3.5t25 16.5t13 31.5t2 71.5q0 21 20 21h26q20 0 20 -20v-124h230q20 0 20 -20v-47
q0 -20 -20 -20h-230v-271q0 -67 26 -93q27 -24 102 -24h102q20 0 20 -20v-47q0 -20 -20 -20z" />
    <glyph glyph-name="Tbar" unicode="&#x166;" horiz-adv-x="656" 
d="M639 686v-55q0 -20 -20 -20h-241v-207h132q20 0 20 -20v-48q0 -20 -20 -20h-132v-296q0 -20 -20 -20h-59q-20 0 -20 20v296h-132q-20 0 -20 20v48q0 20 20 20h132v207h-241q-20 0 -20 20v55q0 20 20 20h581q20 0 20 -20z" />
    <glyph glyph-name="tbar" unicode="&#x167;" horiz-adv-x="471" 
d="M441 542v-47q0 -20 -20 -20h-230v-144h161q20 0 20 -20v-29q0 -20 -20 -20h-161v-58q0 -67 26 -93q27 -24 102 -24h102q20 0 20 -20v-47q0 -20 -20 -20h-102q-129 0 -176 50q-46 49 -46 162v50h-48q-20 0 -20 20v29q0 20 20 20h48v144h-62q-20 0 -20 20v47q0 20 20 20
q36 0 50 3.5t25 16.5t13 31.5t2 71.5q0 21 20 21h26q20 0 20 -20v-124h230q20 0 20 -20z" />
    <glyph glyph-name="Utilde" unicode="&#x168;" horiz-adv-x="824" 
d="M273 775q-24 -11 -24 14v35q0 17 16 24q57 22 141 -1l46 -11q53 -8 98 11q24 11 24 -15v-35q0 -17 -15 -23q-48 -20 -89 -15q-7 2 -15 3t-15 2q-11 3 -14 3q-1 0 -8 2t-13 4t-7 2q-74 20 -125 0zM520 0h-216q-123 0 -180 60.5t-57 182.5v443q0 20 20 20h58q20 0 20 -20
v-446q0 -83 30.5 -114t108.5 -31h216q78 0 108 31t30 114v446q0 20 20 20h59q20 0 20 -20v-443q0 -122 -57 -182.5t-180 -60.5z" />
    <glyph glyph-name="utilde" unicode="&#x169;" horiz-adv-x="665" 
d="M364 617l-47 13q-74 20 -125 0q-24 -10 -24 14v35q0 17 16 24q57 22 141 -1l46 -11q53 -8 98 11q24 10 24 -15v-35q0 -17 -23 -26q-28 -10 -60 -12q-31 0 -46 3zM514 213v328q0 20 20 20h54q20 0 20 -20v-522q0 -20 -20 -20h-54q-20 0 -20 20v54q-33 -74 -159 -74h-94
q-120 0 -163 52q-44 53 -44 170v321q0 20 20 20h54q20 0 20 -20v-329q0 -78 22 -101q23 -23 93 -23h136q63 0 89 24t26 100z" />
    <glyph glyph-name="Umacron" unicode="&#x16a;" horiz-adv-x="824" 
d="M536 766h-249q-20 0 -20 20v32q0 20 20 20h249q20 0 20 -20v-32q0 -20 -20 -20zM520 0h-216q-123 0 -180 60.5t-57 182.5v443q0 20 20 20h58q20 0 20 -20v-446q0 -83 30.5 -114t108.5 -31h216q78 0 108 31t30 114v446q0 20 20 20h59q20 0 20 -20v-443q0 -122 -57 -182.5
t-180 -60.5z" />
    <glyph glyph-name="umacron" unicode="&#x16b;" horiz-adv-x="665" 
d="M207 694h249q20 0 20 -20v-32q0 -20 -20 -20h-249q-20 0 -20 20v32q0 20 20 20zM514 213v328q0 20 20 20h54q20 0 20 -20v-522q0 -20 -20 -20h-54q-20 0 -20 20v54q-33 -74 -159 -74h-94q-120 0 -163 52q-44 53 -44 170v321q0 20 20 20h54q20 0 20 -20v-329
q0 -78 22 -101q23 -23 93 -23h136q63 0 89 24t26 100z" />
    <glyph glyph-name="Ubreve" unicode="&#x16c;" horiz-adv-x="824" 
d="M412 756q-136 0 -136 111q0 20 20 20h38q20 0 20 -10v-11q0 -29 12.5 -40t45.5 -11q34 0 46 10.5t12 39.5v2q0 20 20 20h37q20 0 20 -11v-12q0 -59 -32.5 -83.5t-102.5 -24.5zM520 0h-216q-123 0 -180 60.5t-57 182.5v443q0 20 20 20h58q20 0 20 -20v-446
q0 -83 30.5 -114t108.5 -31h216q78 0 108 31t30 114v446q0 20 20 20h59q20 0 20 -20v-443q0 -122 -57 -182.5t-180 -60.5z" />
    <glyph glyph-name="ubreve" unicode="&#x16d;" horiz-adv-x="665" 
d="M334 613q-136 0 -136 111q0 20 20 20h38q20 0 20 -10v-11q0 -29 12.5 -40t45.5 -11q34 0 46 10.5t12 39.5v2q0 20 20 20h37q20 0 20 -11v-12q0 -59 -32.5 -83.5t-102.5 -24.5zM514 213v328q0 20 20 20h54q20 0 20 -20v-522q0 -20 -20 -20h-54q-20 0 -20 20v54
q-33 -74 -159 -74h-94q-120 0 -163 52q-44 53 -44 170v321q0 20 20 20h54q20 0 20 -20v-329q0 -78 22 -101q23 -23 93 -23h136q63 0 89 24t26 100z" />
    <glyph glyph-name="Uring" unicode="&#x16e;" horiz-adv-x="824" 
d="M418 756h-10q-98 0 -98 95v7q0 93 98 93h10q97 0 97 -93v-7q0 -48 -23 -71.5t-74 -23.5zM409 821h8q18 0 24.5 6.5t6.5 23.5v5q0 17 -6.5 23t-24.5 6h-8q-18 0 -24.5 -6t-6.5 -23v-5q0 -17 6.5 -23.5t24.5 -6.5zM520 0h-216q-123 0 -180 60.5t-57 182.5v443q0 20 20 20
h58q20 0 20 -20v-446q0 -83 30.5 -114t108.5 -31h216q78 0 108 31t30 114v446q0 20 20 20h59q20 0 20 -20v-443q0 -122 -57 -182.5t-180 -60.5z" />
    <glyph glyph-name="uring" unicode="&#x16f;" horiz-adv-x="665" 
d="M332 611h-10q-98 0 -98 95v7q0 93 98 93h10q97 0 97 -93v-7q0 -48 -23 -71.5t-74 -23.5zM292 711v-5q0 -17 6.5 -23.5t24.5 -6.5h8q18 0 24.5 6.5t6.5 23.5v5q0 17 -6.5 23t-24.5 6h-8q-18 0 -24.5 -6t-6.5 -23zM514 213v328q0 20 20 20h54q20 0 20 -20v-522
q0 -20 -20 -20h-54q-20 0 -20 20v54q-33 -74 -159 -74h-94q-120 0 -163 52q-44 53 -44 170v321q0 20 20 20h54q20 0 20 -20v-329q0 -78 22 -101q23 -23 93 -23h136q63 0 89 24t26 100z" />
    <glyph glyph-name="Uhungarumlaut" unicode="&#x170;" horiz-adv-x="824" 
d="M342 757h-31q-24 0 -16 23l33 88q6 16 23 16h50q11 0 15 -7t-1 -17l-49 -89q-8 -14 -24 -14zM513 757h-30q-24 0 -16 23l32 88q6 16 23 16h51q11 0 15.5 -7t-1.5 -17l-50 -89q-8 -14 -24 -14zM520 0h-216q-123 0 -180 60.5t-57 182.5v443q0 20 20 20h58q20 0 20 -20v-446
q0 -83 30.5 -114t108.5 -31h216q78 0 108 31t30 114v446q0 20 20 20h59q20 0 20 -20v-443q0 -122 -57 -182.5t-180 -60.5z" />
    <glyph glyph-name="uhungarumlaut" unicode="&#x171;" horiz-adv-x="665" 
d="M268 741h50q11 0 15 -7t-1 -17l-49 -89q-8 -14 -24 -14h-31q-24 0 -16 23l33 88q6 16 23 16zM439 741h51q11 0 15.5 -7t-1.5 -17l-50 -89q-8 -14 -24 -14h-30q-24 0 -16 23l32 88q6 16 23 16zM514 213v328q0 20 20 20h54q20 0 20 -20v-522q0 -20 -20 -20h-54
q-20 0 -20 20v54q-33 -74 -159 -74h-94q-120 0 -163 52q-44 53 -44 170v321q0 20 20 20h54q20 0 20 -20v-329q0 -78 22 -101q23 -23 93 -23h136q63 0 89 24t26 100z" />
    <glyph glyph-name="Uogonek" unicode="&#x172;" horiz-adv-x="824" 
d="M658 240v446q0 20 20 20h59q20 0 20 -20v-443q0 -122 -57 -182.5t-180 -60.5h-28q-32 0 -44.5 -13.5t-12.5 -43.5q0 -34 13 -47t52 -15q21 -1 21 -21v-34q0 -20 -21 -20q-79 4 -109 31.5t-30 92.5q0 45 17 70h-74q-123 0 -180 60.5t-57 182.5v443q0 20 20 20h58
q20 0 20 -20v-446q0 -83 30.5 -114t108.5 -31h216q78 0 108 31t30 114z" />
    <glyph glyph-name="uogonek" unicode="&#x173;" horiz-adv-x="688" 
d="M621 -140v-34q0 -20 -21 -20q-79 4 -109 31.5t-30 92.5q0 75 53 99v44q-33 -74 -159 -74h-94q-120 0 -163 52q-44 53 -44 170v321q0 20 20 20h54q20 0 20 -20v-329q0 -78 22 -101q23 -23 93 -23h136q63 0 89 24t26 100v328q0 20 20 20h54q20 0 20 -20v-523q0 -18 -20 -21
q-34 -3 -43.5 -12t-9.5 -42q0 -34 13 -47t52 -15q21 -1 21 -21z" />
    <glyph glyph-name="Wcircumflex" unicode="&#x174;" horiz-adv-x="1039" 
d="M395 783l70 92q9 12 24 12h80q15 0 24 -12l69 -92q14 -24 -12 -24h-43q-14 0 -25 11l-53 61l-54 -61q-11 -11 -25 -11h-43q-13 0 -16.5 7t4.5 17zM323 0h-67q-17 0 -23 16l-227 667q-8 23 16 23h63q18 0 22 -16l182 -558l183 558q4 16 22 16h68q18 0 22 -16l182 -558
l183 558q4 16 22 16h62q24 0 16 -23l-227 -667q-6 -16 -23 -16h-67q-18 0 -22 16l-182 553l-183 -553q-4 -16 -22 -16z" />
    <glyph glyph-name="wcircumflex" unicode="&#x175;" horiz-adv-x="972" 
d="M358 635l70 92q9 12 24 12h80q15 0 24 -12l69 -92q14 -24 -12 -24h-43q-14 0 -25 11l-53 61l-54 -61q-11 -11 -25 -11h-43q-13 0 -16.5 7t4.5 17zM323 0h-76q-17 0 -23 16l-207 523q-8 23 16 23h62q17 0 23 -16l167 -450l152 450q6 16 23 16h67q17 0 23 -16l152 -450
l167 450q6 16 23 16h63q24 0 16 -23l-208 -523q-6 -16 -23 -16h-76q-17 0 -23 16l-148 430l-147 -430q-6 -16 -23 -16z" />
    <glyph glyph-name="Ycircumflex" unicode="&#x176;" horiz-adv-x="748" 
d="M252 782l70 92q9 12 24 12h80q15 0 24 -12l69 -92q7 -10 3.5 -17t-15.5 -7h-43q-14 0 -25 11l-53 61l-54 -61q-11 -11 -25 -11h-43q-13 0 -16.5 7t4.5 17zM410 0h-59q-20 0 -20 20v173l-331 489q-7 10 -3 17t16 7h70q15 0 24 -13l273 -407l270 407q9 13 25 13h68
q12 0 16 -7t-3 -17l-326 -489v-173q0 -20 -20 -20z" />
    <glyph glyph-name="ycircumflex" unicode="&#x177;" 
d="M202 637l70 92q9 12 24 12h80q15 0 24 -12l69 -92q14 -24 -12 -24h-43q-14 0 -25 11l-53 61l-54 -61q-11 -11 -25 -11h-43q-13 0 -16.5 7t4.5 17zM413 -197h-267q-20 0 -20 20v49q0 20 20 20h267q67 0 92 27.5t25 97.5v81q-15 -41 -52 -59.5t-106 -18.5h-108
q-121 0 -164 52t-43 170v300q0 20 20 20h54q20 0 20 -20v-308q0 -78 22 -101q22 -24 92 -24h151q62 0 88 24q26 26 26 101v307q0 20 20 20h54q20 0 20 -20v-516q0 -111 -46 -166q-47 -56 -165 -56z" />
    <glyph glyph-name="Ydieresis" unicode="&#x178;" horiz-adv-x="748" 
d="M307 764h-43q-20 0 -20 20v89q0 20 20 20h43q20 0 20 -20v-89q0 -20 -20 -20zM505 764h-43q-20 0 -20 20v89q0 20 20 20h43q20 0 20 -20v-89q0 -20 -20 -20zM410 0h-59q-20 0 -20 20v173l-331 489q-7 10 -3 17t16 7h70q15 0 24 -13l273 -407l270 407q9 13 25 13h68
q12 0 16 -7t-3 -17l-326 -489v-173q0 -20 -20 -20z" />
    <glyph glyph-name="Zacute" unicode="&#x179;" horiz-adv-x="707" 
d="M377 757h-36q-24 0 -16 23l34 88q6 16 23 16h61q12 0 15.5 -7t-2.5 -17l-55 -90q-7 -13 -24 -13zM657 0h-607q-20 0 -20 20v59q0 14 10 24l498 508h-488q-20 0 -20 20v55q0 20 20 20h606q20 0 20 -20v-60q0 -14 -10 -24l-499 -507h490q20 0 20 -20v-55q0 -20 -20 -20z
" />
    <glyph glyph-name="zacute" unicode="&#x17a;" horiz-adv-x="577" 
d="M300 614h-36q-24 0 -16 23l34 88q6 16 23 16h61q26 0 13 -24l-55 -90q-7 -13 -24 -13zM527 0h-477q-20 0 -20 20v53q0 14 10 24l381 378h-371q-20 0 -20 20v47q0 20 20 20h477q20 0 20 -20v-53q0 -14 -10 -24l-380 -378h370q20 0 20 -20v-47q0 -20 -20 -20z" />
    <glyph glyph-name="Zdotaccent" unicode="&#x17b;" horiz-adv-x="707" 
d="M378 764h-48q-20 0 -20 20v88q0 20 20 20h48q20 0 20 -20v-88q0 -20 -20 -20zM657 0h-607q-20 0 -20 20v59q0 14 10 24l498 508h-488q-20 0 -20 20v55q0 20 20 20h606q20 0 20 -20v-60q0 -14 -10 -24l-499 -507h490q20 0 20 -20v-55q0 -20 -20 -20z" />
    <glyph glyph-name="zdotaccent" unicode="&#x17c;" horiz-adv-x="577" 
d="M301 619h-48q-20 0 -20 20v88q0 20 20 20h48q20 0 20 -20v-88q0 -20 -20 -20zM527 0h-477q-20 0 -20 20v53q0 14 10 24l381 378h-371q-20 0 -20 20v47q0 20 20 20h477q20 0 20 -20v-53q0 -14 -10 -24l-380 -378h370q20 0 20 -20v-47q0 -20 -20 -20z" />
    <glyph glyph-name="Zcaron" unicode="&#x17d;" horiz-adv-x="707" 
d="M394 755h-80q-15 0 -24 12l-70 92q-8 10 -4.5 17t16.5 7h43q14 0 25 -11l54 -60l53 60q11 11 25 11h43q27 0 13 -24l-70 -92q-9 -12 -24 -12zM657 0h-607q-20 0 -20 20v59q0 14 10 24l498 508h-488q-20 0 -20 20v55q0 20 20 20h606q20 0 20 -20v-60q0 -14 -10 -24
l-499 -507h490q20 0 20 -20v-55q0 -20 -20 -20z" />
    <glyph glyph-name="zcaron" unicode="&#x17e;" horiz-adv-x="577" 
d="M317 613h-80q-15 0 -24 12l-70 92q-8 10 -4.5 17t16.5 7h43q14 0 25 -11l54 -60l53 60q11 11 25 11h43q27 0 13 -24l-70 -92q-9 -12 -24 -12zM527 0h-477q-20 0 -20 20v53q0 14 10 24l381 378h-371q-20 0 -20 20v47q0 20 20 20h477q20 0 20 -20v-53q0 -14 -10 -24
l-380 -378h370q20 0 20 -20v-47q0 -20 -20 -20z" />
    <glyph glyph-name="florin" unicode="&#x192;" horiz-adv-x="416" 
d="M178 -197h-54q-20 0 -20 20v652h-62q-20 0 -20 20v47q0 20 20 20h61q0 107 43 151q43 46 161 46h69q20 0 20 -20v-45q0 -20 -20 -20h-69q-65 0 -88 -23q-21 -23 -21 -89h178q20 0 20 -20v-47q0 -20 -20 -20h-178v-652q0 -20 -20 -20z" />
    <glyph glyph-name="Scommaaccent" unicode="&#x218;" horiz-adv-x="755" 
d="M470 0h-191q-122 0 -177 51.5t-60 166.5q0 20 20 20h58q20 0 20 -20q4 -70 34 -97q32 -26 105 -26h191q82 0 114 23t32 83q0 55 -29 75t-103 26l-219 18q-120 9 -169 49t-49 137q0 104 56.5 152t186.5 48h176q122 0 177 -51.5t60 -166.5q0 -20 -20 -20h-58q-20 0 -20 20
q-5 71 -35 96q-30 27 -104 27h-175q-84 0 -116 -23q-31 -22 -31 -83q0 -55 28 -74t103 -25l219 -17q118 -9 168 -51q51 -42 51 -137q0 -106 -56.5 -153.5t-186.5 -47.5zM345 -197h-31q-21 0 -17 22l21 101q3 18 22 18h54q24 0 16 -23l-42 -102q-6 -16 -23 -16z" />
    <glyph glyph-name="scommaaccent" unicode="&#x219;" horiz-adv-x="597" 
d="M357 0h-285q-20 0 -20 20v49q0 20 20 20h286q66 0 90 15t24 54t-19 52q-19 14 -79 20l-168 17q-92 9 -129 46.5t-37 115.5q0 79 48 116t153 37h278q20 0 20 -20v-49q0 -20 -20 -20h-276q-60 0 -84.5 -16t-24.5 -55q0 -36 17 -49.5t71 -19.5l166 -18q103 -10 141 -50
q38 -38 38 -115q0 -81 -48.5 -115.5t-161.5 -34.5zM269 -197h-31q-21 0 -17 22l21 101q3 18 22 18h54q24 0 16 -23l-42 -102q-6 -16 -23 -16z" />
    <glyph glyph-name="circumflex" unicode="&#x2c6;" horiz-adv-x="558" 
d="M148 602l70 92q9 12 24 12h80q15 0 24 -12l69 -92q7 -10 3.5 -17t-15.5 -7h-43q-14 0 -25 11l-53 61l-54 -61q-11 -11 -25 -11h-43q-13 0 -16.5 7t4.5 17z" />
    <glyph glyph-name="caron" unicode="&#x2c7;" horiz-adv-x="558" 
d="M322 578h-80q-15 0 -24 12l-70 92q-8 10 -4.5 17t16.5 7h43q14 0 25 -11l54 -60l53 60q11 11 25 11h43q12 0 16 -7t-3 -17l-70 -92q-9 -12 -24 -12z" />
    <glyph glyph-name="breve" unicode="&#x2d8;" horiz-adv-x="558" 
d="M279 575q-136 0 -136 111q0 20 20 20h38q20 0 20 -10v-11q0 -29 12.5 -40t45.5 -11q34 0 46 10.5t12 39.5v2q0 20 20 20h37q20 0 20 -11v-12q0 -59 -32.5 -83.5t-102.5 -24.5z" />
    <glyph glyph-name="dotaccent" unicode="&#x2d9;" horiz-adv-x="558" 
d="M304 578h-48q-20 0 -20 20v88q0 20 20 20h48q20 0 20 -20v-88q0 -20 -20 -20z" />
    <glyph glyph-name="ring" unicode="&#x2da;" horiz-adv-x="558" 
d="M285 575h-10q-98 0 -98 95v7q0 93 98 93h10q97 0 97 -93v-7q0 -48 -23 -71.5t-74 -23.5zM276 640h8q18 0 24.5 6.5t6.5 23.5v5q0 17 -6.5 23t-24.5 6h-8q-18 0 -24.5 -6t-6.5 -23v-5q0 -17 6.5 -23.5t24.5 -6.5z" />
    <glyph glyph-name="ogonek" unicode="&#x2db;" horiz-adv-x="558" 
d="M396 -140v-34q0 -20 -21 -20q-79 4 -109 31.5t-30 92.5q0 54 25.5 80t84.5 30q21 2 21 -19v-2q0 -16 -20 -21q-37 -6 -37 -55q0 -34 13 -47t52 -15q21 -1 21 -21z" />
    <glyph glyph-name="tilde" unicode="&#x2dc;" horiz-adv-x="558" 
d="M144 595q-24 -11 -24 14v35q0 17 16 24q57 22 141 -1l46 -11q53 -8 98 11q24 11 24 -15v-35q0 -17 -15 -23q-48 -20 -89 -15q-7 2 -15 3t-15 2q-10 3 -14 3q-1 0 -8 2t-13 4t-7 2q-74 20 -125 0z" />
    <glyph glyph-name="hungarumlaut" unicode="&#x2dd;" horiz-adv-x="558" 
d="M210 579h-31q-24 0 -16 23l33 88q6 16 23 16h50q11 0 15 -7t-1 -17l-49 -89q-8 -14 -24 -14zM381 579h-30q-24 0 -16 23l32 88q6 16 23 16h51q11 0 15.5 -7t-1.5 -17l-50 -89q-8 -14 -24 -14z" />
    <glyph glyph-name="uni0326" unicode="&#x326;" horiz-adv-x="0" 
d="M-324 -197h-31q-21 0 -17 22l21 101q3 18 22 18h54q24 0 16 -23l-42 -102q-6 -16 -23 -16z" />
    <glyph glyph-name="pi" unicode="&#x3c0;" horiz-adv-x="837" 
d="M550 0h-263q-133 0 -186 62q-51 63 -51 181v219q0 120 51 181q53 63 186 63h263q134 0 185 -63q52 -61 52 -181v-219q0 -119 -52 -181q-51 -62 -185 -62zM277 69h283q83 0 119.5 38t36.5 126v240q0 88 -36.5 125.5t-119.5 37.5h-283q-82 0 -118.5 -38t-36.5 -125v-240
q0 -89 36.5 -126.5t118.5 -37.5zM278 147h-33q-20 0 -20 20v368q0 20 20 20h195q110 0 150 -37q42 -36 42 -112v-18q0 -73 -40.5 -106.5t-142.5 -33.5h-151v-81q0 -20 -20 -20zM298 484v-166h156q61 0 83 16t22 55v17q0 44 -21.5 61t-83.5 17h-156z" />
    <glyph glyph-name="uni1E02" unicode="&#x1e02;" horiz-adv-x="754" 
d="M396 758h-48q-20 0 -20 20v88q0 20 20 20h48q20 0 20 -20v-88q0 -20 -20 -20zM473 0h-390q-20 0 -20 20v666q0 20 20 20h383q125 0 181 -45.5t57 -144.5v-10q0 -62 -22 -96t-65 -54q92 -44 92 -161v-9q0 -97 -55.5 -141.5t-180.5 -44.5zM161 611v-211h325q62 0 89.5 21
t27.5 73v14q0 56 -33 79.5t-109 23.5h-300zM161 313v-219h307q76 0 108.5 22.5t32.5 78.5v13q0 105 -120 105h-328z" />
    <glyph glyph-name="uni1E03" unicode="&#x1e03;" 
d="M310 562h119q120 0 163 -52q44 -53 44 -170v-121q0 -114 -44 -167q-43 -52 -163 -52h-119q-126 0 -159 73v-53q0 -20 -20 -20h-54q-20 0 -20 20v719q0 20 20 20h54q20 0 20 -20v-250q33 73 159 73zM352 747h48q20 0 20 -20v-88q0 -20 -20 -20h-48q-20 0 -20 20v88
q0 20 20 20zM542 212v136q0 76 -23 101q-23 24 -91 24h-162q-64 0 -89 -25q-26 -24 -26 -100v-136q0 -75 26 -99t89 -24h162q68 0 91 24q23 25 23 99z" />
    <glyph glyph-name="uni1E0A" unicode="&#x1e0a;" horiz-adv-x="800" 
d="M430 757h-48q-20 0 -20 20v88q0 20 20 20h48q20 0 20 -20v-88q0 -20 -20 -20zM514 0h-431q-20 0 -20 20v666q0 20 20 20h431q126 0 181 -62.5t55 -202.5v-180q0 -139 -55 -200t-181 -61zM161 611v-517h344q84 0 115 34q33 34 33 134v179q0 99 -32 134q-31 36 -116 36
h-344z" />
    <glyph glyph-name="uni1E0B" unicode="&#x1e0b;" 
d="M530 489v250q0 20 20 20h54q20 0 20 -20v-719q0 -20 -20 -20h-54q-20 0 -20 20v53q-17 -38 -54.5 -55.5t-103.5 -17.5h-120q-121 0 -164 52t-43 167v121q0 118 43 170t164 52h120q66 0 103.5 -17.5t54.5 -55.5zM283 747h48q20 0 20 -20v-88q0 -20 -20 -20h-48
q-20 0 -20 20v88q0 20 20 20zM254 89h162q62 0 88 24t26 99v136q0 76 -26 100q-25 25 -88 25h-162q-70 0 -93 -24q-22 -23 -22 -101v-136q0 -76 22 -99q23 -24 93 -24z" />
    <glyph glyph-name="uni1E1E" unicode="&#x1e1e;" horiz-adv-x="664" 
d="M378 758h-48q-20 0 -20 20v88q0 20 20 20h48q20 0 20 -20v-88q0 -20 -20 -20zM141 0h-58q-20 0 -20 20v666q0 20 20 20h541q20 0 20 -20v-55q0 -20 -20 -20h-463v-205h314q20 0 20 -20v-52q0 -20 -20 -20h-314v-294q0 -20 -20 -20z" />
    <glyph glyph-name="uni1E1F" unicode="&#x1e1f;" horiz-adv-x="409" 
d="M267 810h-48q-20 0 -20 20v88q0 20 20 20h48q20 0 20 -20v-88q0 -20 -20 -20zM171 0h-54q-20 0 -20 20v455h-62q-20 0 -20 20v47q0 20 20 20h62q0 110 41 154q40 43 162 43h69q20 0 20 -20v-45q0 -20 -20 -20h-69q-70 0 -90 -20q-19 -19 -19 -92h178q20 0 20 -20v-47
q0 -20 -20 -20h-178v-455q0 -20 -20 -20z" />
    <glyph glyph-name="uni1E40" unicode="&#x1e40;" horiz-adv-x="929" 
d="M489 763h-48q-20 0 -20 20v88q0 20 20 20h48q20 0 20 -20v-88q0 -20 -20 -20zM141 0h-58q-20 0 -20 20v666q0 20 20 20h72q17 0 24 -13l286 -458l286 458q7 13 24 13h71q20 0 20 -20v-666q0 -20 -20 -20h-58q-20 0 -20 20v524l-259 -407q-7 -13 -24 -13h-41q-17 0 -24 13
l-259 408v-525q0 -20 -20 -20z" />
    <glyph glyph-name="uni1E41" unicode="&#x1e41;" horiz-adv-x="962" 
d="M462 747h48q20 0 20 -20v-88q0 -20 -20 -20h-48q-20 0 -20 20v88q0 20 20 20zM686 562h22q116 0 160 -53t44 -169v-321q0 -20 -20 -20h-54q-20 0 -20 20v329q0 76 -23 101q-23 24 -92 24h-57q-64 0 -89 -25q-26 -24 -26 -100v-329q0 -20 -20 -20h-54q-20 0 -20 20v329
q0 76 -23 101q-23 24 -91 24h-57q-64 0 -89 -25q-26 -24 -26 -100v-328q0 -20 -20 -20h-54q-20 0 -20 20v522q0 20 20 20h54q20 0 20 -20v-53q33 73 159 73h22q141 0 178 -81q40 81 176 81z" />
    <glyph glyph-name="uni1E56" unicode="&#x1e56;" horiz-adv-x="762" 
d="M397 763h-48q-20 0 -20 20v88q0 20 20 20h48q20 0 20 -20v-88q0 -20 -20 -20zM141 0h-58q-20 0 -20 20v666q0 20 20 20h362q153 0 214 -57t61 -183v-16q0 -119 -62 -178q-61 -58 -213 -58h-284v-194q0 -20 -20 -20zM161 611v-303h278q103 0 143 31t40 112v15
q0 88 -39 116q-38 29 -144 29h-278z" />
    <glyph glyph-name="uni1E57" unicode="&#x1e57;" 
d="M321 747h48q20 0 20 -20v-88q0 -20 -20 -20h-48q-20 0 -20 20v88q0 20 20 20zM310 562h119q120 0 163 -52q44 -53 44 -167v-121q0 -117 -44 -170q-43 -52 -163 -52h-119q-126 0 -159 73v-250q0 -20 -20 -20h-54q-20 0 -20 20v719q0 20 20 20h54q20 0 20 -20v-53
q33 73 159 73zM542 214v136q0 74 -23 99q-23 24 -91 24h-162q-64 0 -89 -24q-26 -24 -26 -99v-136q0 -75 26 -101q26 -24 89 -24h162q68 0 91 24q23 25 23 101z" />
    <glyph glyph-name="uni1E60" unicode="&#x1e60;" horiz-adv-x="755" 
d="M393 762h-48q-20 0 -20 20v88q0 20 20 20h48q20 0 20 -20v-88q0 -20 -20 -20zM470 0h-191q-122 0 -177 51.5t-60 166.5q0 20 20 20h58q20 0 20 -20q4 -70 34 -97q32 -26 105 -26h191q82 0 114 23t32 83q0 55 -29 75t-103 26l-219 18q-120 9 -169 49t-49 137
q0 104 56.5 152t186.5 48h176q122 0 177 -51.5t60 -166.5q0 -20 -20 -20h-58q-20 0 -20 20q-5 71 -35 96q-30 27 -104 27h-175q-84 0 -116 -23q-31 -22 -31 -83q0 -55 28 -74t103 -25l219 -17q118 -9 168 -51q51 -42 51 -137q0 -106 -56.5 -153.5t-186.5 -47.5z" />
    <glyph glyph-name="uni1E61" unicode="&#x1e61;" horiz-adv-x="597" 
d="M332 618h-48q-20 0 -20 20v88q0 20 20 20h48q20 0 20 -20v-88q0 -20 -20 -20zM357 0h-285q-20 0 -20 20v49q0 20 20 20h286q66 0 90 15t24 54t-19 52q-19 14 -79 20l-168 17q-92 9 -129 46.5t-37 115.5q0 79 48 116t153 37h278q20 0 20 -20v-49q0 -20 -20 -20h-276
q-60 0 -84.5 -16t-24.5 -55q0 -36 17 -49.5t71 -19.5l166 -18q103 -10 141 -50q38 -38 38 -115q0 -81 -48.5 -115.5t-161.5 -34.5z" />
    <glyph glyph-name="uni1E6A" unicode="&#x1e6a;" horiz-adv-x="655" 
d="M352 764h-48q-20 0 -20 20v88q0 20 20 20h48q20 0 20 -20v-88q0 -20 -20 -20zM357 0h-59q-20 0 -20 20v591h-241q-20 0 -20 20v55q0 20 20 20h581q20 0 20 -20v-55q0 -20 -20 -20h-241v-591q0 -20 -20 -20z" />
    <glyph glyph-name="uni1E6B" unicode="&#x1e6b;" horiz-adv-x="471" 
d="M188 746h-48q-20 0 -20 20v88q0 20 20 20h48q20 0 20 -20v-88q0 -20 -20 -20zM421 0h-102q-129 0 -176 50q-46 49 -46 162v263h-62q-20 0 -20 20v47q0 20 20 20q36 0 50 3.5t25 16.5t13 31.5t2 71.5q0 21 20 21h26q20 0 20 -20v-124h230q20 0 20 -20v-47q0 -20 -20 -20
h-230v-271q0 -67 26 -93q27 -24 102 -24h102q20 0 20 -20v-47q0 -20 -20 -20z" />
    <glyph glyph-name="Wgrave" unicode="&#x1e80;" horiz-adv-x="1039" 
d="M541 757h-36q-17 0 -24 13l-55 90q-6 10 -2.5 17t15.5 7h62q17 0 23 -16l33 -88q8 -23 -16 -23zM323 0h-67q-17 0 -23 16l-227 667q-8 23 16 23h63q18 0 22 -16l182 -558l183 558q4 16 22 16h68q18 0 22 -16l182 -558l183 558q4 16 22 16h62q24 0 16 -23l-227 -667
q-6 -16 -23 -16h-67q-18 0 -22 16l-182 553l-183 -553q-4 -16 -22 -16z" />
    <glyph glyph-name="wgrave" unicode="&#x1e81;" horiz-adv-x="972" 
d="M502 614h-36q-17 0 -24 13l-55 90q-13 24 13 24h62q17 0 23 -16l33 -88q8 -23 -16 -23zM323 0h-76q-17 0 -23 16l-207 523q-8 23 16 23h62q17 0 23 -16l167 -450l152 450q6 16 23 16h67q17 0 23 -16l152 -450l167 450q6 16 23 16h63q24 0 16 -23l-208 -523
q-6 -16 -23 -16h-76q-17 0 -23 16l-148 430l-147 -430q-6 -16 -23 -16z" />
    <glyph glyph-name="Wacute" unicode="&#x1e82;" horiz-adv-x="1039" 
d="M553 760h-36q-24 0 -16 23l34 88q6 16 23 16h61q26 0 13 -24l-55 -90q-7 -13 -24 -13zM323 0h-67q-17 0 -23 16l-227 667q-8 23 16 23h63q18 0 22 -16l182 -558l183 558q4 16 22 16h68q18 0 22 -16l182 -558l183 558q4 16 22 16h62q24 0 16 -23l-227 -667q-6 -16 -23 -16
h-67q-18 0 -22 16l-182 553l-183 -553q-4 -16 -22 -16z" />
    <glyph glyph-name="wacute" unicode="&#x1e83;" horiz-adv-x="972" 
d="M517 613h-36q-24 0 -16 23l34 88q6 16 23 16h61q12 0 15.5 -7t-2.5 -17l-55 -90q-7 -13 -24 -13zM323 0h-76q-17 0 -23 16l-207 523q-8 23 16 23h62q17 0 23 -16l167 -450l152 450q6 16 23 16h67q17 0 23 -16l152 -450l167 450q6 16 23 16h63q24 0 16 -23l-208 -523
q-6 -16 -23 -16h-76q-17 0 -23 16l-148 430l-147 -430q-6 -16 -23 -16z" />
    <glyph glyph-name="Wdieresis" unicode="&#x1e84;" horiz-adv-x="1039" 
d="M452 761h-43q-20 0 -20 20v89q0 20 20 20h43q20 0 20 -20v-89q0 -20 -20 -20zM650 761h-43q-20 0 -20 20v89q0 20 20 20h43q20 0 20 -20v-89q0 -20 -20 -20zM323 0h-67q-17 0 -23 16l-227 667q-8 23 16 23h63q18 0 22 -16l182 -558l183 558q4 16 22 16h68q18 0 22 -16
l182 -558l183 558q4 16 22 16h62q24 0 16 -23l-227 -667q-6 -16 -23 -16h-67q-18 0 -22 16l-182 553l-183 -553q-4 -16 -22 -16z" />
    <glyph glyph-name="wdieresis" unicode="&#x1e85;" horiz-adv-x="972" 
d="M414 617h-43q-20 0 -20 20v89q0 20 20 20h43q20 0 20 -20v-89q0 -20 -20 -20zM612 617h-43q-20 0 -20 20v89q0 20 20 20h43q20 0 20 -20v-89q0 -20 -20 -20zM323 0h-76q-17 0 -23 16l-207 523q-8 23 16 23h62q17 0 23 -16l167 -450l152 450q6 16 23 16h67q17 0 23 -16
l152 -450l167 450q6 16 23 16h63q24 0 16 -23l-208 -523q-6 -16 -23 -16h-76q-17 0 -23 16l-148 430l-147 -430q-6 -16 -23 -16z" />
    <glyph glyph-name="Ygrave" unicode="&#x1ef2;" horiz-adv-x="748" 
d="M387 758h-36q-17 0 -24 13l-55 90q-13 24 13 24h62q17 0 23 -16l33 -88q8 -23 -16 -23zM410 0h-59q-20 0 -20 20v173l-331 489q-7 10 -3 17t16 7h70q15 0 24 -13l273 -407l270 407q9 13 25 13h68q12 0 16 -7t-3 -17l-326 -489v-173q0 -20 -20 -20z" />
    <glyph glyph-name="ygrave" unicode="&#x1ef3;" 
d="M352 616h-36q-17 0 -24 13l-55 90q-13 24 13 24h62q17 0 23 -16l33 -88q8 -23 -16 -23zM413 -197h-267q-20 0 -20 20v49q0 20 20 20h267q67 0 92 27.5t25 97.5v81q-15 -41 -52 -59.5t-106 -18.5h-108q-121 0 -164 52t-43 170v300q0 20 20 20h54q20 0 20 -20v-308
q0 -78 22 -101q22 -24 92 -24h151q62 0 88 24q26 26 26 101v307q0 20 20 20h54q20 0 20 -20v-516q0 -111 -46 -166q-47 -56 -165 -56z" />
    <glyph glyph-name="endash" unicode="&#x2013;" horiz-adv-x="471" 
d="M419 248h-367q-20 0 -20 20v39q0 20 20 20h367q20 0 20 -20v-39q0 -20 -20 -20z" />
    <glyph glyph-name="emdash" unicode="&#x2014;" horiz-adv-x="595" 
d="M543 248h-491q-20 0 -20 20v39q0 20 20 20h491q20 0 20 -20v-39q0 -20 -20 -20z" />
    <glyph glyph-name="quoteleft" unicode="&#x2018;" horiz-adv-x="244" 
d="M120 379h-64q-24 0 -16 23l105 288q6 16 23 16h33q24 0 17 -22l-76 -288q-5 -17 -22 -17z" />
    <glyph glyph-name="quoteright" unicode="&#x2019;" horiz-adv-x="244" 
d="M87 379h-33q-24 0 -17 22l76 288q5 17 22 17h64q24 0 16 -23l-105 -288q-6 -16 -23 -16z" />
    <glyph glyph-name="quotesinglbase" unicode="&#x201a;" horiz-adv-x="244" 
d="M78 -131h-32q-24 0 -17 22l75 284q5 17 22 17h63q11 0 16 -6.5t1 -16.5l-105 -284q-6 -16 -23 -16z" />
    <glyph glyph-name="quotedblleft" unicode="&#x201c;" horiz-adv-x="434" 
d="M116 383h-63q-11 0 -16 6.5t-1 16.5l105 284q6 16 23 16h33q24 0 17 -22l-75 -284q-5 -17 -23 -17zM306 383h-63q-11 0 -16 6.5t-1 16.5l105 284q6 16 23 16h33q24 0 17 -22l-75 -284q-5 -17 -23 -17z" />
    <glyph glyph-name="quotedblright" unicode="&#x201d;" horiz-adv-x="434" 
d="M87 383h-33q-24 0 -17 22l75 284q5 17 23 17h63q11 0 16 -6.5t1 -16.5l-105 -284q-6 -16 -23 -16zM277 383h-33q-24 0 -17 22l75 284q5 17 22 17h64q11 0 16 -6.5t1 -16.5l-105 -284q-6 -16 -23 -16z" />
    <glyph glyph-name="quotedblbase" unicode="&#x201e;" horiz-adv-x="434" 
d="M78 -131h-32q-24 0 -17 22l75 284q5 17 22 17h63q11 0 16 -6.5t1 -16.5l-105 -284q-6 -16 -23 -16zM269 -131h-33q-24 0 -17 22l75 284q5 17 22 17h64q24 0 16 -23l-104 -284q-6 -16 -23 -16z" />
    <glyph glyph-name="dagger" unicode="&#x2020;" horiz-adv-x="346" 
d="M220 562h74q20 0 20 -20v-47q0 -20 -20 -20h-74v-506q0 -20 -20 -20h-54q-20 0 -20 20v506h-74q-20 0 -20 20v47q0 20 20 20h74v124q0 20 20 20h54q20 0 20 -20v-124z" />
    <glyph glyph-name="daggerdbl" unicode="&#x2021;" horiz-adv-x="345" 
d="M314 542v-47q0 -20 -20 -20h-74v-102h74q20 0 20 -20v-47q0 -20 -20 -20h-74v-317q0 -20 -20 -20h-54q-20 0 -20 20v317h-74q-20 0 -20 20v47q0 20 20 20h74v102h-74q-20 0 -20 20v47q0 20 20 20h74v124q0 20 20 20h54q20 0 20 -20v-124h74q20 0 20 -20z" />
    <glyph glyph-name="bullet" unicode="&#x2022;" horiz-adv-x="518" 
d="M319 93h-120q-78 0 -113.5 40.5t-35.5 120.5v87q0 158 149 158h120q78 0 113.5 -39.5t35.5 -118.5v-87q0 -81 -35.5 -121t-113.5 -40z" />
    <glyph glyph-name="ellipsis" unicode="&#x2026;" horiz-adv-x="615" 
d="M141 0h-58q-20 0 -20 20v120q0 20 20 20h58q20 0 20 -20v-120q0 -20 -20 -20zM336 0h-57q-20 0 -20 20v120q0 20 20 20h57q20 0 20 -20v-120q0 -20 -20 -20zM532 0h-58q-20 0 -20 20v120q0 20 20 20h58q20 0 20 -20v-120q0 -20 -20 -20z" />
    <glyph glyph-name="perthousand" unicode="&#x2030;" horiz-adv-x="1709" 
d="M278 252h-34q-109 0 -158 55.5t-49 166.5v13q0 109 49.5 164t157.5 55h34q108 0 157.5 -55t49.5 -164v-13q0 -111 -49 -166.5t-158 -55.5zM509 0h-51q-24 0 -17 23l216 667q4 16 22 16h51q24 0 17 -23l-216 -667q-4 -16 -22 -16zM244 339h34q61 0 87.5 28.5t26.5 96.5v32
q0 66 -27 94.5t-87 28.5h-34q-60 0 -87 -28.5t-27 -94.5v-32q0 -68 26.5 -96.5t87.5 -28.5zM944 0h-34q-109 0 -158 55.5t-49 166.5v13q0 109 49.5 164t157.5 55h34q108 0 157.5 -55t49.5 -164v-13q0 -111 -49 -166.5t-158 -55.5zM1465 0h-34q-109 0 -158 55.5t-49 166.5v13
q0 109 49.5 164t157.5 55h34q108 0 157.5 -55t49.5 -164v-13q0 -111 -49 -166.5t-158 -55.5zM911 87h33q61 0 87.5 28.5t26.5 96.5v32q0 66 -26.5 94.5t-87.5 28.5h-33q-61 0 -88 -28.5t-27 -94.5v-32q0 -68 27 -96.5t88 -28.5zM1432 87h33q61 0 87.5 28.5t26.5 96.5v32
q0 66 -26.5 94.5t-87.5 28.5h-33q-61 0 -88 -28.5t-27 -94.5v-32q0 -68 27 -96.5t88 -28.5z" />
    <glyph glyph-name="guilsinglleft" unicode="&#x2039;" horiz-adv-x="284" 
d="M228 83h-41q-17 0 -24 13l-113 176q-9 14 0 28l113 176q7 13 24 13h41q26 0 15 -24l-91 -179l91 -179q11 -24 -15 -24z" />
    <glyph glyph-name="guilsinglright" unicode="&#x203a;" horiz-adv-x="284" 
d="M111 83h-42q-26 0 -15 24l91 179l-91 179q-11 24 15 24h42q17 0 24 -13l112 -176q9 -14 0 -28l-112 -176q-7 -13 -24 -13z" />
    <glyph glyph-name="Euro" unicode="&#x20ac;" horiz-adv-x="811" 
d="M761 462v-14q0 -14 -20 -14h-58q-20 0 -20 16v15q0 83 -30.5 114.5t-108.5 31.5h-223q-78 0 -108.5 -31.5t-30.5 -114.5v-62h303q20 0 20 -20v-48q0 -20 -20 -20h-303v-75q0 -83 30.5 -114t108.5 -31h223q78 0 108.5 31t30.5 114v22q0 20 20 20h58q20 0 20 -19v-20
q0 -122 -57 -182.5t-180 -60.5h-223q-123 0 -180 60.5t-57 182.5v72h-34q-20 0 -20 20v48q0 20 20 20h34v59q0 123 57 183.5t180 60.5h223q123 0 180 -60.5t57 -183.5z" />
    <glyph glyph-name="trademark" unicode="&#x2122;" horiz-adv-x="821" 
d="M176 342h-27q-20 0 -20 20v279h-89q-20 0 -20 20v25q0 20 20 20h245q20 0 20 -20v-25q0 -20 -20 -20h-89v-279q0 -20 -20 -20zM402 342h-27q-20 0 -20 20v324q0 20 20 20h33q16 0 24 -14l125 -223l125 223q8 14 24 14h32q20 0 20 -20v-324q0 -20 -20 -20h-27
q-20 0 -20 20v222l-100 -183q-8 -14 -24 -14h-20q-16 0 -24 14l-101 183v-222q0 -20 -20 -20z" />
    <glyph glyph-name="minus" unicode="&#x2212;" horiz-adv-x="547" 
d="M485 310h-423q-20 0 -20 20v48q0 20 20 20h423q20 0 20 -20v-48q0 -20 -20 -20z" />
    <glyph glyph-name="notequal" unicode="&#x2260;" horiz-adv-x="771" 
 />
    <glyph glyph-name="NULL" horiz-adv-x="0" 
 />
    <glyph glyph-name="CR" horiz-adv-x="333" 
 />
    <glyph glyph-name="a.ss01" 
d="M530 489v53q0 20 20 20h54q20 0 20 -20v-522q0 -20 -20 -20h-54q-20 0 -20 20v53q-17 -38 -54.5 -55.5t-103.5 -17.5h-120q-117 0 -162 52t-45 168v121q0 115 45 168t162 53h120q66 0 103.5 -17.5t54.5 -55.5zM254 89h162q62 0 87 24q27 25 27 99v136q0 76 -27 100
q-25 25 -87 25h-162q-68 0 -92 -25q-23 -25 -23 -100v-136q0 -74 24 -99q24 -24 91 -24z" />
    </font>
</defs>
</svg>
